<svg width="22" height="22" viewBox="0 0 22 22" fill="none" xmlns="http://www.w3.org/2000/svg">
<path d="M5.99173 21.5H4.46323C3.69085 21.5003 2.93521 21.2749 2.2893 20.8514C1.64339 20.4278 1.13537 19.8247 0.82775 19.1163C0.520131 18.4078 0.426332 17.6248 0.557892 16.8637C0.689452 16.1026 1.04063 15.3966 1.56823 14.8325L2.76373 13.55C3.34095 12.9314 3.65543 12.1129 3.64088 11.267C3.62633 10.4211 3.28388 9.61384 2.68573 9.0155L1.51123 7.841C1.37461 7.69955 1.29901 7.5101 1.30072 7.31345C1.30243 7.1168 1.38131 6.92869 1.52036 6.78964C1.65942 6.65058 1.84753 6.5717 2.04418 6.56999C2.24082 6.56829 2.43028 6.64388 2.57173 6.7805L3.74473 7.955C4.61768 8.82828 5.11746 10.0064 5.13873 11.241C5.15999 12.4756 4.70108 13.6702 3.85873 14.573L2.66323 15.8555C2.33628 16.2064 2.11883 16.6451 2.03753 17.1178C1.95624 17.5905 2.01464 18.0766 2.20557 18.5166C2.3965 18.9566 2.71166 19.3313 3.11242 19.5948C3.51317 19.8583 3.98211 19.9991 4.46173 20H5.21623C5.21323 19.694 5.21473 19.31 5.22823 18.872C5.26723 17.732 5.39323 16.1975 5.75323 14.651C6.11323 13.1135 6.71623 11.504 7.74823 10.265C8.66773 9.161 9.91723 8.3675 11.5612 8.183V3.779C11.5624 2.90946 11.9085 2.0759 12.5235 1.46118C13.1385 0.846466 13.9722 0.500794 14.8417 0.5C15.6037 0.5 16.2217 1.1195 16.2217 1.883V2.6075H17.9872C18.9772 2.6075 19.8937 3.119 20.4157 3.9605L21.0682 5.0135C22.2097 6.857 20.9662 9.2195 18.8557 9.371V19.169C18.8557 20.456 17.8132 21.5 16.5262 21.5H15.6967V19.169C15.6969 18.6553 15.5959 18.1467 15.3995 17.6721C15.2031 17.1974 14.915 16.7662 14.5519 16.4029C14.1888 16.0396 13.7576 15.7514 13.2831 15.5548C12.8085 15.3582 12.2999 15.257 11.7862 15.257H10.4692C10.2703 15.257 10.0795 15.336 9.9389 15.4767C9.79825 15.6173 9.71923 15.8081 9.71923 16.007C9.71923 16.2059 9.79825 16.3967 9.9389 16.5373C10.0795 16.678 10.2703 16.757 10.4692 16.757H11.7862C13.1167 16.757 14.1967 17.837 14.1967 19.169V21.5H5.99173Z" fill="url(#paint0_linear_306_2957)"/>
<defs>
<linearGradient id="paint0_linear_306_2957" x1="11.0008" y1="-3.28" x2="11.0008" y2="24.86" gradientUnits="userSpaceOnUse">
<stop stop-color="#FACB30"/>
<stop offset="0.302269" stop-color="#FEF9C8"/>
<stop offset="0.640625" stop-color="#C49530"/>
<stop offset="1" stop-color="#FFF8C4"/>
</linearGradient>
</defs>
</svg>
