<svg width="20" height="24" viewBox="0 0 20 24" fill="none" xmlns="http://www.w3.org/2000/svg">
<g clip-path="url(#clip0_294_10374)">
<path fill-rule="evenodd" clip-rule="evenodd" d="M8.07971 15.0488H11.4176C11.5869 15.0483 11.7546 15.0812 11.9112 15.1455C12.0678 15.2098 12.2102 15.3043 12.3302 15.4236C12.4503 15.543 12.5457 15.6848 12.6109 15.841C12.6762 15.9972 12.7101 16.1647 12.7106 16.334V17.9414H12.6969V22.3184H10.1188V18.3086C10.1188 17.7441 9.90588 17.9414 9.27111 17.9414C7.75939 17.9414 6.26525 17.9414 4.75744 17.9414C4.24561 17.9399 3.75519 17.7359 3.39327 17.3739C3.03135 17.012 2.82735 16.5216 2.8258 16.0098V10.5039C2.82735 9.98346 3.03492 9.48479 3.40312 9.11695C3.77132 8.74912 4.27019 8.54205 4.79064 8.54102C9.47814 8.54102 8.13439 11.7988 8.07971 15.0488ZM1.06994 22.7227C1.08055 22.6414 1.11761 22.5659 1.17541 22.5078C1.6446 22.0433 2.20531 21.6815 2.82189 21.4453C3.28645 21.264 3.7732 21.1458 4.26916 21.0938L4.1715 20.5313H0.689081C0.514313 20.5302 0.346994 20.4603 0.223412 20.3368C0.0998306 20.2132 0.0299495 20.0459 0.0289244 19.8711C0.0289244 17.1367 0.671503 14.9883 0.0289244 11.8809C-0.166388 10.959 1.74182 10.8262 1.74182 11.9316V18.709H8.32971C8.91564 18.709 8.98986 19.9453 8.98986 20.3926C8.98936 20.4313 8.97376 20.4682 8.9464 20.4956C8.91904 20.523 8.88207 20.5386 8.84338 20.5391H5.34924L5.21447 21.0859C5.73878 21.1195 6.25566 21.2273 6.74963 21.4063C7.33991 21.6175 7.88327 21.9419 8.34924 22.3613C8.39846 22.4082 8.43463 22.467 8.45415 22.5321C8.47367 22.5972 8.47589 22.6662 8.46057 22.7324C8.55462 22.7913 8.63063 22.8749 8.68025 22.9741C8.72987 23.0734 8.75117 23.1844 8.74181 23.2949C8.72913 23.4769 8.65124 23.6482 8.52244 23.7773C8.39364 23.9065 8.22257 23.9849 8.04064 23.9981C7.85851 23.9849 7.6872 23.9066 7.55808 23.7775C7.42896 23.6484 7.35066 23.4771 7.33752 23.2949C7.32846 23.1832 7.35049 23.0712 7.40116 22.9712C7.45183 22.8713 7.52918 22.7873 7.62463 22.7285C7.28263 22.465 6.90179 22.2561 6.49572 22.1094C6.02271 21.9387 5.5257 21.8438 5.02306 21.8281L4.94494 22.5879V22.6211C5.09505 22.6585 5.22786 22.7461 5.3213 22.8694C5.41474 22.9927 5.4632 23.1442 5.45861 23.2988C5.45861 23.4848 5.38474 23.6631 5.25324 23.7946C5.12175 23.9261 4.9434 24 4.75744 24C4.57148 24 4.39313 23.9261 4.26164 23.7946C4.13014 23.6631 4.05627 23.4848 4.05627 23.2988C4.0512 23.1454 4.09882 22.9949 4.19121 22.8723C4.2836 22.7497 4.41519 22.6624 4.56408 22.625V22.5879L4.50744 21.8359C4.02563 21.8674 3.55143 21.9721 3.10119 22.1465C2.69019 22.3 2.30741 22.5204 1.96838 22.7988C2.0425 22.8578 2.10052 22.9346 2.13705 23.022C2.17359 23.1094 2.18745 23.2046 2.17736 23.2988C2.15969 23.4788 2.08014 23.6471 1.95228 23.7749C1.82441 23.9028 1.65615 23.9823 1.47619 24C1.29457 23.9869 1.12376 23.9088 0.995002 23.78C0.866244 23.6513 0.788154 23.4804 0.775018 23.2988C0.762121 23.1837 0.782498 23.0674 0.833732 22.9635C0.884967 22.8597 0.964909 22.7727 1.06408 22.7129L1.06994 22.7227ZM5.40002 2.92969C5.911 2.9293 6.41062 3.08043 6.83573 3.36395C7.26083 3.64747 7.59233 4.05067 7.78832 4.52257C7.98431 4.99447 8.03599 5.51389 7.93682 6.01515C7.83766 6.51642 7.5921 6.97703 7.23119 7.33875C6.87028 7.70048 6.41023 7.94708 5.90919 8.04739C5.40815 8.14769 4.88862 8.09719 4.41628 7.90227C3.94394 7.70735 3.53999 7.37676 3.2555 6.9523C2.97101 6.52784 2.81876 6.02856 2.81799 5.51758C2.81747 4.83208 3.08915 4.17443 3.57332 3.68916C4.05749 3.2039 4.71452 2.93072 5.40002 2.92969ZM14.5797 1.53453e-06C15.6976 0.000108042 16.7808 0.387788 17.6449 1.09699C18.5089 1.8062 19.1004 2.79305 19.3184 3.88943C19.5365 4.98581 19.3677 6.12387 18.8408 7.10974C18.3138 8.09561 17.4614 8.86829 16.4287 9.29613C15.3959 9.72398 14.2468 9.78053 13.177 9.45614C12.1073 9.13175 11.1831 8.4465 10.5619 7.51713C9.94076 6.58776 9.66103 5.47176 9.7704 4.35927C9.87977 3.24679 10.3715 2.20663 11.1617 1.41602C11.6095 0.96673 12.1416 0.610344 12.7275 0.367338C13.3134 0.124332 13.9415 -0.000504871 14.5758 1.53453e-06H14.5797ZM12.6871 1.57813C12.7407 1.54723 12.8023 1.53293 12.864 1.53705C12.9257 1.54116 12.9848 1.5635 13.0338 1.60123C13.0829 1.63896 13.1196 1.69039 13.1393 1.74901C13.1591 1.80762 13.161 1.87078 13.1449 1.93049C13.1287 1.9902 13.0952 2.04377 13.0486 2.08442C13.0019 2.12507 12.9443 2.15096 12.8829 2.15882C12.8216 2.16668 12.7593 2.15616 12.7039 2.12858C12.6485 2.101 12.6026 2.05761 12.5719 2.00391C12.5513 1.96843 12.538 1.92923 12.5326 1.88857C12.5273 1.84791 12.5301 1.80659 12.5408 1.767C12.5515 1.72742 12.5699 1.69034 12.5951 1.65793C12.6202 1.62551 12.6515 1.59839 12.6871 1.57813ZM11.3199 2.95899C11.3509 2.90602 11.3968 2.8634 11.4519 2.83651C11.507 2.80961 11.5689 2.79964 11.6297 2.80785C11.6905 2.81606 11.7475 2.84209 11.7935 2.88265C11.8395 2.92321 11.8724 2.97648 11.8882 3.03576C11.904 3.09503 11.9018 3.15764 11.8821 3.21571C11.8623 3.27377 11.8258 3.32467 11.7771 3.362C11.7284 3.39933 11.6698 3.42142 11.6086 3.42547C11.5474 3.42952 11.4864 3.41536 11.4332 3.38477C11.3977 3.36434 11.3666 3.3371 11.3417 3.30461C11.3168 3.27212 11.2985 3.23502 11.288 3.19545C11.2775 3.15587 11.2749 3.11461 11.2804 3.07403C11.2858 3.03344 11.2993 2.99435 11.3199 2.95899ZM10.8199 4.83985C10.8199 4.77804 10.8383 4.71762 10.8726 4.66623C10.9069 4.61484 10.9557 4.57479 11.0129 4.55113C11.07 4.52748 11.1328 4.52129 11.1934 4.53335C11.254 4.54541 11.3097 4.57517 11.3534 4.61887C11.3971 4.66258 11.4269 4.71826 11.4389 4.77888C11.451 4.8395 11.4448 4.90233 11.4212 4.95943C11.3975 5.01654 11.3574 5.06534 11.3061 5.09968C11.2547 5.13402 11.1942 5.15235 11.1324 5.15235C11.0496 5.15235 10.9701 5.11942 10.9115 5.06082C10.8529 5.00221 10.8199 4.92273 10.8199 4.83985ZM11.3278 6.71875C11.2969 6.66516 11.2826 6.60361 11.2867 6.54189C11.2908 6.48017 11.3131 6.42106 11.3509 6.37204C11.3886 6.32303 11.44 6.28631 11.4986 6.26655C11.5572 6.24678 11.6204 6.24486 11.6801 6.26102C11.7398 6.27718 11.7934 6.31069 11.834 6.35732C11.8747 6.40395 11.9006 6.46159 11.9084 6.52295C11.9163 6.58431 11.9058 6.64661 11.8782 6.70198C11.8506 6.75735 11.8072 6.80329 11.7535 6.83399C11.7181 6.85456 11.6789 6.8679 11.6382 6.87324C11.5975 6.87858 11.5562 6.87581 11.5166 6.8651C11.477 6.85438 11.44 6.83594 11.4076 6.81082C11.3751 6.7857 11.348 6.75441 11.3278 6.71875ZM12.7086 8.08594C12.6549 8.05525 12.6115 8.00931 12.5839 7.95394C12.5564 7.89857 12.5458 7.83626 12.5537 7.7749C12.5616 7.71355 12.5875 7.6559 12.6281 7.60928C12.6687 7.56265 12.7223 7.52913 12.782 7.51297C12.8417 7.49681 12.9049 7.49874 12.9635 7.5185C13.0221 7.53826 13.0736 7.57498 13.1113 7.62399C13.149 7.67301 13.1714 7.73212 13.1755 7.79384C13.1796 7.85556 13.1653 7.91712 13.1344 7.97071C13.0931 8.04233 13.0251 8.09467 12.9453 8.11627C12.8655 8.13787 12.7804 8.12696 12.7086 8.08594ZM14.5836 8.59375C14.5217 8.59375 14.4612 8.57537 14.4098 8.54095C14.3584 8.50652 14.3183 8.4576 14.2947 8.40038C14.2711 8.34317 14.2651 8.28024 14.2773 8.21956C14.2895 8.15889 14.3194 8.10321 14.3633 8.05959C14.4072 8.01596 14.4631 7.98636 14.5239 7.97452C14.5846 7.96268 14.6475 7.96915 14.7046 7.9931C14.7616 8.01706 14.8103 8.05741 14.8444 8.10906C14.8785 8.16071 14.8965 8.22132 14.8961 8.28321C14.8956 8.36575 14.8624 8.44473 14.8039 8.50291C14.7453 8.5611 14.6662 8.59375 14.5836 8.59375ZM16.4625 8.08594C16.4092 8.11623 16.3481 8.13006 16.287 8.12569C16.2258 8.12133 16.1674 8.09896 16.1189 8.06142C16.0704 8.02387 16.0342 7.97282 16.0147 7.91469C15.9952 7.85657 15.9933 7.79398 16.0093 7.73481C16.0254 7.67563 16.0585 7.62252 16.1047 7.58216C16.1508 7.54181 16.2079 7.51601 16.2687 7.50803C16.3294 7.50005 16.3912 7.51023 16.4462 7.53731C16.5012 7.56438 16.547 7.60712 16.5778 7.66016C16.6188 7.73194 16.6297 7.81705 16.6081 7.89685C16.5865 7.97665 16.5341 8.04465 16.4625 8.08594ZM17.8297 6.70703C17.7988 6.76067 17.7527 6.80393 17.6972 6.83133C17.6417 6.85873 17.5794 6.86904 17.518 6.86095C17.4567 6.85285 17.3991 6.82672 17.3526 6.78587C17.3061 6.74502 17.2728 6.69128 17.2569 6.63148C17.241 6.57167 17.2432 6.50848 17.2632 6.44993C17.2833 6.39138 17.3202 6.34009 17.3695 6.30258C17.4187 6.26507 17.4779 6.24302 17.5397 6.23922C17.6015 6.23542 17.663 6.25005 17.7164 6.28125C17.7877 6.32287 17.8396 6.39101 17.8609 6.47078C17.8821 6.55056 17.8709 6.63549 17.8297 6.70703ZM18.3297 4.82422C18.3301 4.88611 18.3121 4.94672 18.278 4.99837C18.2439 5.05001 18.1952 5.09037 18.1382 5.11432C18.0811 5.13827 18.0182 5.14474 17.9574 5.13291C17.8967 5.12107 17.8408 5.09146 17.7969 5.04784C17.753 5.00421 17.7231 4.94853 17.7109 4.88786C17.6986 4.82719 17.7047 4.76426 17.7283 4.70704C17.7519 4.64982 17.792 4.6009 17.8434 4.56648C17.8948 4.53205 17.9553 4.51368 18.0172 4.51367C18.0997 4.51367 18.1789 4.54633 18.2375 4.60451C18.296 4.66269 18.3292 4.74168 18.3297 4.82422ZM17.8219 2.94531C17.853 2.99891 17.8675 3.06054 17.8635 3.12238C17.8595 3.18422 17.8372 3.24348 17.7995 3.29262C17.7617 3.34176 17.7102 3.37857 17.6515 3.39836C17.5927 3.41816 17.5295 3.42005 17.4697 3.40379C17.4099 3.38753 17.3562 3.35386 17.3156 3.30705C17.275 3.26025 17.2492 3.20243 17.2416 3.14093C17.2339 3.07944 17.2447 3.01705 17.2725 2.9617C17.3004 2.90635 17.3441 2.86054 17.3981 2.83008C17.4334 2.80943 17.4725 2.79597 17.5131 2.79049C17.5537 2.78501 17.595 2.78761 17.6345 2.79814C17.6741 2.80866 17.7112 2.82692 17.7437 2.85184C17.7762 2.87676 17.8034 2.90787 17.8238 2.94336L17.8219 2.94531ZM16.4469 1.5625C16.5014 1.59151 16.5461 1.63612 16.5751 1.69064C16.6042 1.74515 16.6163 1.8071 16.61 1.86854C16.6036 1.92999 16.5791 1.98815 16.5396 2.03559C16.5 2.08303 16.4472 2.11759 16.3879 2.13485C16.3286 2.15212 16.2654 2.1513 16.2066 2.13251C16.1477 2.11372 16.0958 2.0778 16.0575 2.02935C16.0192 1.98091 15.9962 1.92213 15.9914 1.86054C15.9867 1.79895 16.0004 1.73734 16.0309 1.6836C16.0708 1.61318 16.1366 1.56113 16.2143 1.53851C16.292 1.51589 16.3754 1.5245 16.4469 1.5625ZM14.566 1.07031C14.6278 1.07031 14.6883 1.08864 14.7397 1.12298C14.791 1.15732 14.8311 1.20612 14.8547 1.26323C14.8784 1.32033 14.8846 1.38316 14.8725 1.44378C14.8605 1.5044 14.8307 1.56008 14.787 1.60378C14.7433 1.64749 14.6876 1.67725 14.627 1.68931C14.5664 1.70137 14.5035 1.69518 14.4464 1.67153C14.3893 1.64787 14.3405 1.60782 14.3062 1.55643C14.2719 1.50504 14.2535 1.44462 14.2535 1.38281C14.2535 1.29993 14.2865 1.22045 14.3451 1.16184C14.4037 1.10324 14.4832 1.07031 14.566 1.07031ZM15.4332 5.17188V4.88281C15.4329 4.8753 15.4342 4.86782 15.437 4.86082C15.4397 4.85382 15.4439 4.84747 15.4492 4.84215C15.4545 4.83684 15.4609 4.83268 15.4679 4.82993C15.4749 4.82718 15.4824 4.8259 15.4899 4.82617L17.5055 4.97071L15.4899 5.22656C15.4823 5.22657 15.4747 5.22504 15.4677 5.22207C15.4607 5.21911 15.4544 5.21476 15.4491 5.20929C15.4438 5.20382 15.4397 5.19735 15.437 5.19025C15.4342 5.18315 15.433 5.17557 15.4332 5.16797V5.17188ZM14.3297 4.04883H14.8395C14.8545 4.04883 14.8689 4.04286 14.8795 4.03224C14.8901 4.02162 14.8961 4.00721 14.8961 3.99219L14.6012 1.97266L14.2731 3.98828C14.2736 4.00348 14.28 4.01789 14.2909 4.02846C14.3018 4.03903 14.3165 4.04493 14.3317 4.04492L14.3297 4.04883ZM14.5836 4.42578C14.7035 4.4254 14.8209 4.46063 14.9207 4.52701C15.0206 4.59339 15.0985 4.68793 15.1446 4.79865C15.1906 4.90936 15.2028 5.03126 15.1795 5.14889C15.1562 5.26652 15.0985 5.37459 15.0137 5.45938C14.9289 5.54417 14.8208 5.60188 14.7032 5.62518C14.5856 5.64848 14.4637 5.63632 14.353 5.59026C14.2422 5.54419 14.1477 5.46628 14.0813 5.36641C14.0149 5.26654 13.9797 5.14921 13.9801 5.0293C13.9801 4.95004 13.9957 4.87157 14.026 4.79834C14.0564 4.72512 14.1008 4.65859 14.1569 4.60255C14.2129 4.54651 14.2794 4.50205 14.3527 4.47172C14.4259 4.44139 14.5044 4.42578 14.5836 4.42578ZM17.6735 1.73242C16.9557 1.01627 16.0119 0.571119 15.0028 0.472795C13.9937 0.374471 12.9817 0.629061 12.1392 1.19319C11.2967 1.75732 10.6759 2.5961 10.3825 3.56662C10.0891 4.53714 10.1412 5.57937 10.53 6.51576C10.9189 7.45214 11.6203 8.22475 12.5149 8.70196C13.4095 9.17917 14.4419 9.33146 15.4361 9.13288C16.4304 8.93431 17.3251 8.39716 17.9677 7.61294C18.6104 6.82872 18.9612 5.84594 18.9606 4.83203C18.961 4.25603 18.8476 3.68561 18.6267 3.15365C18.4058 2.62168 18.0818 2.13867 17.6735 1.73242Z" fill="url(#paint0_linear_294_10374)"/>
</g>
<defs>
<linearGradient id="paint0_linear_294_10374" x1="9.71305" y1="-4.32" x2="9.71305" y2="27.84" gradientUnits="userSpaceOnUse">
<stop stop-color="#FACB30"/>
<stop offset="0.302269" stop-color="#FEF9C8"/>
<stop offset="0.640625" stop-color="#C49530"/>
<stop offset="1" stop-color="#FFF8C4"/>
</linearGradient>
<clipPath id="clip0_294_10374">
<rect width="19.3906" height="24" fill="white" transform="translate(0.0151367)"/>
</clipPath>
</defs>
</svg>
