<svg width="15" height="22" viewBox="0 0 15 22" fill="none" xmlns="http://www.w3.org/2000/svg">
<path d="M11.75 14.0395H11.69C12.542 14.0395 13.25 14.731 13.25 15.5995V17.0395H13.6572C14.255 17.0395 14.75 17.542 14.75 18.1495V21.5395H0.5V18.1495C0.5 17.542 0.995 17.0395 1.59275 17.0395H2V15.5995C2 14.7475 2.6915 14.0395 3.56 14.0395H3.5V2.25696C3.49025 1.69596 3.65375 1.22796 4.01 0.918963C4.09625 0.843963 4.1915 0.779463 4.295 0.726963C4.57086 0.552054 4.89087 0.459432 5.2175 0.459963C6.683 0.459963 8.1815 1.41921 9.37325 2.70246C9.45275 2.77971 9.5315 2.85846 9.6095 2.93946C11.0562 4.43796 11.8378 6.13596 11.7418 7.32096C11.7478 7.39596 11.75 7.46871 11.75 7.53996V14.0395ZM3.5 17.0395H11.75V15.5995C11.7501 15.5916 11.7486 15.5838 11.7455 15.5766C11.7424 15.5693 11.7378 15.5628 11.732 15.5575C11.7265 15.5518 11.72 15.5473 11.7128 15.5443C11.7056 15.5412 11.6978 15.5395 11.69 15.5395H3.56C3.55213 15.5394 3.54432 15.5409 3.53709 15.544C3.52985 15.5471 3.52335 15.5517 3.518 15.5575C3.51234 15.5629 3.50782 15.5694 3.50473 15.5766C3.50164 15.5838 3.50003 15.5916 3.5 15.5995V17.0395ZM8.53025 3.98121C7.66025 3.07971 6.72275 2.48121 5.96225 2.20671C5.38625 1.99896 5.10875 2.03346 5.01425 2.05596C4.99175 2.14146 4.96925 2.36046 5.10275 2.80746C5.31425 3.51771 5.84825 4.44471 6.71975 5.34771C7.58975 6.24921 8.52725 6.84771 9.28775 7.12221C9.86375 7.32996 10.1413 7.29546 10.2358 7.27296C10.2583 7.18746 10.2808 6.96846 10.1473 6.52146C9.93575 5.81121 9.40175 4.88421 8.53025 3.98121Z" fill="url(#paint0_linear_306_2903)"/>
<defs>
<linearGradient id="paint0_linear_306_2903" x1="7.62497" y1="-3.33435" x2="7.62497" y2="24.9122" gradientUnits="userSpaceOnUse">
<stop stop-color="#FACB30"/>
<stop offset="0.302269" stop-color="#FEF9C8"/>
<stop offset="0.640625" stop-color="#C49530"/>
<stop offset="1" stop-color="#FFF8C4"/>
</linearGradient>
</defs>
</svg>
