<svg width="575" height="445" viewBox="0 0 575 445" fill="none" xmlns="http://www.w3.org/2000/svg">
<rect width="575" height="445" fill="#EBF3FF"/>
<rect x="236.955" y="308.403" width="76.9134" height="0.477723" fill="url(#paint0_linear_302_353)"/>
<rect x="249.854" y="339.933" width="64.0148" height="0.477723" fill="url(#paint1_linear_302_353)"/>
<rect x="263" y="371" width="68" height="0.48" fill="url(#paint2_linear_302_353)"/>
<path d="M284.78 308.881H254.761V273.269H236L270.578 242L304.792 273.269H284.78V308.881Z" fill="url(#paint3_linear_302_353)"/>
<path d="M262.275 297.416H295.238C296.557 297.416 297.626 298.485 297.626 299.804V340.5H268.008V309.625C268.008 307.118 267.249 304.669 265.831 302.601L262.275 297.416Z" fill="url(#paint4_linear_302_353)"/>
<path d="M257.497 301.238C257.497 298.863 259.422 296.938 261.797 296.938H263.708C266.082 296.938 268.007 298.863 268.007 301.238V308.881H257.497V301.238Z" fill="#11AB11"/>
<path d="M275.173 328.946H308.136C309.455 328.946 310.525 330.015 310.525 331.334V371.938H280.906V341.155C280.906 338.648 280.147 336.199 278.729 334.131L275.173 328.946Z" fill="url(#paint5_linear_302_353)"/>
<path d="M270.396 332.767C270.396 330.393 272.321 328.468 274.696 328.468H276.606C278.981 328.468 280.906 330.393 280.906 332.767V340.411H270.396V332.767Z" fill="#11AB11"/>
<path d="M289 360H321.963C323.282 360 324.351 361.069 324.351 362.389V402.995H294.733V372.21C294.733 369.702 293.974 367.253 292.556 365.185L289 360Z" fill="url(#paint6_linear_302_353)"/>
<path d="M284 364.3C284 361.925 285.925 360 288.3 360H290.21C292.585 360 294.51 361.925 294.51 364.3V371.943H284V364.3Z" fill="#11AB11"/>
<g filter="url(#filter0_dd_302_353)">
<rect x="200" y="155" width="175" height="80" rx="5" fill="#EBF3FF"/>
</g>
<g filter="url(#filter1_dd_302_353)">
<rect x="53" y="22" width="471" height="115" rx="7.1875" fill="#EBF3FF"/>
</g>
<path d="M79.145 55H81.4575L86.895 68.2812H87.0825L92.52 55H94.8325V71H93.02V58.8438H92.8638L87.8638 71H86.1138L81.1138 58.8438H80.9575V71H79.145V55ZM102.659 71.2813C101.898 71.2813 101.208 71.138 100.588 70.8516C99.9684 70.5599 99.4763 70.1406 99.1117 69.5938C98.7471 69.0417 98.5648 68.375 98.5648 67.5937C98.5648 66.9062 98.7002 66.349 98.9711 65.9219C99.2419 65.4896 99.6039 65.151 100.057 64.9062C100.51 64.6615 101.01 64.4792 101.557 64.3594C102.109 64.2344 102.664 64.1354 103.221 64.0625C103.95 63.9687 104.541 63.8984 104.994 63.8516C105.453 63.7995 105.786 63.7135 105.994 63.5937C106.208 63.474 106.315 63.2656 106.315 62.9687V62.9062C106.315 62.1354 106.104 61.5365 105.682 61.1094C105.265 60.6823 104.633 60.4687 103.784 60.4687C102.903 60.4687 102.213 60.6615 101.713 61.0469C101.213 61.4323 100.862 61.8437 100.659 62.2812L98.9086 61.6562C99.2211 60.9271 99.6377 60.3594 100.159 59.9531C100.685 59.5417 101.258 59.2552 101.877 59.0937C102.502 58.9271 103.117 58.8438 103.721 58.8438C104.106 58.8438 104.549 58.8906 105.049 58.9844C105.554 59.0729 106.041 59.2578 106.51 59.5391C106.984 59.8203 107.377 60.2448 107.69 60.8125C108.002 61.3802 108.159 62.1406 108.159 63.0938V71H106.315V69.375H106.221C106.096 69.6354 105.888 69.9141 105.596 70.2109C105.304 70.5078 104.916 70.7604 104.432 70.9687C103.948 71.1771 103.356 71.2813 102.659 71.2813ZM102.94 69.625C103.669 69.625 104.284 69.4818 104.784 69.1953C105.289 68.9089 105.669 68.5391 105.924 68.0859C106.185 67.6328 106.315 67.1562 106.315 66.6562V64.9687C106.237 65.0625 106.065 65.1484 105.799 65.2266C105.539 65.2995 105.237 65.3646 104.893 65.4219C104.554 65.474 104.224 65.5208 103.901 65.5625C103.583 65.599 103.325 65.6302 103.127 65.6562C102.648 65.7187 102.2 65.8203 101.784 65.9609C101.372 66.0964 101.039 66.3021 100.784 66.5781C100.534 66.849 100.409 67.2187 100.409 67.6875C100.409 68.3281 100.646 68.8125 101.119 69.1406C101.599 69.4635 102.205 69.625 102.94 69.625ZM112.184 71V59H113.965V60.8125H114.09C114.309 60.2188 114.705 59.737 115.278 59.3672C115.85 58.9974 116.496 58.8125 117.215 58.8125C117.35 58.8125 117.52 58.8151 117.723 58.8203C117.926 58.8255 118.08 58.8333 118.184 58.8438V60.7187C118.121 60.7031 117.978 60.6797 117.754 60.6484C117.535 60.612 117.304 60.5937 117.059 60.5937C116.475 60.5937 115.955 60.7161 115.496 60.9609C115.043 61.2005 114.684 61.5339 114.418 61.9609C114.158 62.3828 114.028 62.8646 114.028 63.4062V71H112.184ZM122.748 66.625L122.717 64.3438H123.092L128.342 59H130.623L125.029 64.6562H124.873L122.748 66.625ZM121.029 71V55H122.873V71H121.029ZM128.654 71L123.967 65.0625L125.279 63.7812L130.998 71H128.654ZM138.193 71.25C137.037 71.25 136.04 70.9948 135.201 70.4844C134.368 69.9688 133.724 69.25 133.271 68.3281C132.823 67.401 132.599 66.3229 132.599 65.0938C132.599 63.8646 132.823 62.7812 133.271 61.8437C133.724 60.901 134.355 60.1667 135.162 59.6406C135.974 59.1094 136.922 58.8438 138.006 58.8438C138.631 58.8438 139.248 58.9479 139.857 59.1562C140.467 59.3646 141.021 59.7031 141.521 60.1719C142.021 60.6354 142.42 61.25 142.717 62.0156C143.014 62.7812 143.162 63.724 143.162 64.8437V65.625H133.912V64.0312H141.287C141.287 63.3542 141.152 62.75 140.881 62.2187C140.615 61.6875 140.235 61.2682 139.74 60.9609C139.251 60.6536 138.672 60.5 138.006 60.5C137.271 60.5 136.636 60.6823 136.099 61.0469C135.568 61.4062 135.159 61.875 134.873 62.4531C134.586 63.0312 134.443 63.651 134.443 64.3125V65.375C134.443 66.2813 134.599 67.0495 134.912 67.6797C135.23 68.3047 135.67 68.7812 136.232 69.1094C136.795 69.4323 137.448 69.5938 138.193 69.5938C138.678 69.5938 139.115 69.526 139.506 69.3906C139.902 69.25 140.243 69.0417 140.529 68.7656C140.816 68.4844 141.037 68.1354 141.193 67.7187L142.974 68.2188C142.787 68.8229 142.472 69.3542 142.029 69.8125C141.586 70.2656 141.04 70.6198 140.389 70.875C139.738 71.125 139.006 71.25 138.193 71.25ZM151.845 59V60.5625H145.627V59H151.845ZM147.439 56.125H149.283V67.5625C149.283 68.0833 149.358 68.474 149.509 68.7344C149.666 68.9896 149.864 69.1615 150.103 69.25C150.348 69.3333 150.606 69.375 150.877 69.375C151.08 69.375 151.246 69.3646 151.377 69.3437C151.507 69.3177 151.611 69.2969 151.689 69.2812L152.064 70.9375C151.939 70.9844 151.765 71.0313 151.541 71.0781C151.317 71.1302 151.033 71.1563 150.689 71.1563C150.168 71.1563 149.658 71.0443 149.158 70.8203C148.663 70.5964 148.252 70.2552 147.924 69.7969C147.601 69.3385 147.439 68.7604 147.439 68.0625V56.125ZM173.314 60C173.142 59.474 172.915 59.0026 172.634 58.5859C172.358 58.1641 172.027 57.8047 171.642 57.5078C171.262 57.2109 170.829 56.9844 170.345 56.8281C169.861 56.6719 169.329 56.5937 168.751 56.5937C167.803 56.5937 166.941 56.8385 166.165 57.3281C165.389 57.8177 164.772 58.5391 164.314 59.4922C163.856 60.4453 163.626 61.6146 163.626 63C163.626 64.3854 163.858 65.5547 164.322 66.5078C164.785 67.4609 165.413 68.1823 166.204 68.6719C166.996 69.1615 167.887 69.4062 168.876 69.4062C169.793 69.4062 170.6 69.2109 171.298 68.8203C172.001 68.4245 172.548 67.8672 172.939 67.1484C173.335 66.4245 173.533 65.5729 173.533 64.5937L174.126 64.7187H169.314V63H175.408V64.7187C175.408 66.0365 175.126 67.1823 174.564 68.1562C174.007 69.1302 173.236 69.8854 172.251 70.4219C171.272 70.9531 170.147 71.2187 168.876 71.2187C167.46 71.2187 166.215 70.8854 165.142 70.2188C164.074 69.5521 163.241 68.6042 162.642 67.375C162.048 66.1458 161.751 64.6875 161.751 63C161.751 61.7344 161.921 60.5964 162.259 59.5859C162.603 58.5703 163.087 57.7057 163.712 56.9922C164.337 56.2786 165.077 55.7318 165.931 55.3516C166.785 54.9714 167.725 54.7812 168.751 54.7812C169.595 54.7812 170.382 54.9089 171.111 55.1641C171.845 55.4141 172.499 55.7708 173.072 56.2344C173.65 56.6927 174.132 57.2422 174.517 57.8828C174.902 58.5182 175.168 59.224 175.314 60H173.314ZM179.136 71V59H180.917V60.8125H181.042C181.261 60.2188 181.657 59.737 182.23 59.3672C182.803 58.9974 183.448 58.8125 184.167 58.8125C184.303 58.8125 184.472 58.8151 184.675 58.8203C184.878 58.8255 185.032 58.8333 185.136 58.8438V60.7187C185.073 60.7031 184.93 60.6797 184.706 60.6484C184.488 60.612 184.256 60.5937 184.011 60.5937C183.428 60.5937 182.907 60.7161 182.448 60.9609C181.995 61.2005 181.636 61.5339 181.37 61.9609C181.11 62.3828 180.98 62.8646 180.98 63.4062V71H179.136ZM192.491 71.25C191.408 71.25 190.457 70.9922 189.64 70.4766C188.827 69.9609 188.192 69.2396 187.733 68.3125C187.28 67.3854 187.054 66.3021 187.054 65.0625C187.054 63.8125 187.28 62.7214 187.733 61.7891C188.192 60.8568 188.827 60.1328 189.64 59.6172C190.457 59.1016 191.408 58.8438 192.491 58.8438C193.575 58.8438 194.523 59.1016 195.335 59.6172C196.153 60.1328 196.788 60.8568 197.241 61.7891C197.7 62.7214 197.929 63.8125 197.929 65.0625C197.929 66.3021 197.7 67.3854 197.241 68.3125C196.788 69.2396 196.153 69.9609 195.335 70.4766C194.523 70.9922 193.575 71.25 192.491 71.25ZM192.491 69.5938C193.314 69.5938 193.991 69.3828 194.523 68.9609C195.054 68.5391 195.447 67.9844 195.702 67.2969C195.957 66.6094 196.085 65.8646 196.085 65.0625C196.085 64.2604 195.957 63.513 195.702 62.8203C195.447 62.1276 195.054 61.5677 194.523 61.1406C193.991 60.7135 193.314 60.5 192.491 60.5C191.668 60.5 190.991 60.7135 190.46 61.1406C189.929 61.5677 189.536 62.1276 189.28 62.8203C189.025 63.513 188.898 64.2604 188.898 65.0625C188.898 65.8646 189.025 66.6094 189.28 67.2969C189.536 67.9844 189.929 68.5391 190.46 68.9609C190.991 69.3828 191.668 69.5938 192.491 69.5938ZM203.714 71L200.058 59H201.995L204.589 68.1875H204.714L207.276 59H209.245L211.776 68.1562H211.901L214.495 59H216.433L212.776 71H210.964L208.339 61.7812H208.151L205.526 71H203.714ZM224.749 59V60.5625H218.53V59H224.749ZM220.343 56.125H222.186V67.5625C222.186 68.0833 222.262 68.474 222.413 68.7344C222.569 68.9896 222.767 69.1615 223.007 69.25C223.251 69.3333 223.509 69.375 223.78 69.375C223.983 69.375 224.15 69.3646 224.28 69.3437C224.41 69.3177 224.514 69.2969 224.593 69.2812L224.968 70.9375C224.843 70.9844 224.668 71.0313 224.444 71.0781C224.22 71.1302 223.936 71.1563 223.593 71.1563C223.072 71.1563 222.561 71.0443 222.061 70.8203C221.566 70.5964 221.155 70.2552 220.827 69.7969C220.504 69.3385 220.343 68.7604 220.343 68.0625V56.125ZM230.284 63.7812V71H228.44V55H230.284V60.875H230.44C230.721 60.2552 231.143 59.763 231.706 59.3984C232.273 59.0286 233.029 58.8438 233.971 58.8438C234.789 58.8438 235.505 59.0078 236.12 59.3359C236.734 59.6589 237.211 60.1562 237.549 60.8281C237.893 61.4948 238.065 62.3437 238.065 63.375V71H236.221V63.5C236.221 62.5469 235.974 61.8099 235.479 61.2891C234.99 60.763 234.31 60.5 233.44 60.5C232.836 60.5 232.294 60.6276 231.815 60.8828C231.341 61.138 230.966 61.5104 230.69 62C230.419 62.4896 230.284 63.0833 230.284 63.7812ZM251.664 71L248.008 59H249.946L252.539 68.1875H252.664L255.227 59H257.196L259.727 68.1562H259.852L262.446 59H264.383L260.727 71H258.914L256.289 61.7812H256.102L253.477 71H251.664ZM267.481 71V59H269.324V71H267.481ZM268.418 57C268.059 57 267.749 56.8776 267.488 56.6328C267.233 56.388 267.106 56.0938 267.106 55.75C267.106 55.4063 267.233 55.112 267.488 54.8672C267.749 54.6224 268.059 54.5 268.418 54.5C268.777 54.5 269.085 54.6224 269.34 54.8672C269.6 55.112 269.731 55.4063 269.731 55.75C269.731 56.0938 269.6 56.388 269.34 56.6328C269.085 56.8776 268.777 57 268.418 57ZM275.205 55V71H273.361V55H275.205ZM281.086 55V71H279.242V55H281.086ZM295.237 71H291.018L298.699 49.1818H303.578L311.27 71H307.051L301.224 53.6562H301.053L295.237 71ZM295.375 62.4453H306.881V65.62H295.375V62.4453ZM332.694 56.5433H328.709C328.596 55.8899 328.386 55.3111 328.081 54.8068C327.775 54.2955 327.395 53.8622 326.941 53.5071C326.486 53.152 325.968 52.8857 325.385 52.7081C324.81 52.5234 324.189 52.4311 323.521 52.4311C322.335 52.4311 321.284 52.7294 320.368 53.326C319.452 53.9155 318.734 54.782 318.216 55.9254C317.697 57.0618 317.438 58.4503 317.438 60.0909C317.438 61.7599 317.697 63.1662 318.216 64.3097C318.741 65.446 319.459 66.3054 320.368 66.8878C321.284 67.4631 322.331 67.7507 323.51 67.7507C324.164 67.7507 324.775 67.6655 325.343 67.495C325.918 67.3175 326.433 67.0582 326.888 66.7173C327.349 66.3764 327.736 65.9574 328.049 65.4602C328.368 64.9631 328.589 64.3949 328.709 63.7557L332.694 63.777C332.545 64.8139 332.221 65.7869 331.724 66.696C331.234 67.6051 330.591 68.4077 329.796 69.1037C329.001 69.7926 328.07 70.3324 327.005 70.723C325.939 71.1065 324.757 71.2983 323.457 71.2983C321.54 71.2983 319.828 70.8544 318.322 69.9666C316.817 69.0788 315.63 67.7969 314.764 66.1207C313.898 64.4446 313.464 62.4347 313.464 60.0909C313.464 57.7401 313.901 55.7301 314.775 54.0611C315.648 52.3849 316.838 51.103 318.344 50.2152C319.849 49.3274 321.554 48.8835 323.457 48.8835C324.672 48.8835 325.801 49.054 326.845 49.3949C327.889 49.7358 328.819 50.2365 329.636 50.897C330.453 51.5504 331.124 52.353 331.65 53.3047C332.182 54.2493 332.53 55.3288 332.694 56.5433ZM355.889 56.5433H351.904C351.791 55.8899 351.581 55.3111 351.276 54.8068C350.97 54.2955 350.59 53.8622 350.136 53.5071C349.681 53.152 349.163 52.8857 348.58 52.7081C348.005 52.5234 347.384 52.4311 346.716 52.4311C345.53 52.4311 344.479 52.7294 343.563 53.326C342.646 53.9155 341.929 54.782 341.411 55.9254C340.892 57.0618 340.633 58.4503 340.633 60.0909C340.633 61.7599 340.892 63.1662 341.411 64.3097C341.936 65.446 342.654 66.3054 343.563 66.8878C344.479 67.4631 345.526 67.7507 346.705 67.7507C347.359 67.7507 347.97 67.6655 348.538 67.495C349.113 67.3175 349.628 67.0582 350.083 66.7173C350.544 66.3764 350.931 65.9574 351.244 65.4602C351.563 64.9631 351.784 64.3949 351.904 63.7557L355.889 63.777C355.739 64.8139 355.416 65.7869 354.919 66.696C354.429 67.6051 353.786 68.4077 352.991 69.1037C352.195 69.7926 351.265 70.3324 350.2 70.723C349.134 71.1065 347.952 71.2983 346.652 71.2983C344.735 71.2983 343.023 70.8544 341.517 69.9666C340.012 69.0788 338.825 67.7969 337.959 66.1207C337.092 64.4446 336.659 62.4347 336.659 60.0909C336.659 57.7401 337.096 55.7301 337.97 54.0611C338.843 52.3849 340.033 51.103 341.538 50.2152C343.044 49.3274 344.749 48.8835 346.652 48.8835C347.867 48.8835 348.996 49.054 350.04 49.3949C351.084 49.7358 352.014 50.2365 352.831 50.897C353.648 51.5504 354.319 52.353 354.845 53.3047C355.377 54.2493 355.725 55.3288 355.889 56.5433ZM360.408 71V49.1818H374.598V52.495H364.361V58.4183H373.863V61.7315H364.361V67.6868H374.684V71H360.408ZM379.531 71V49.1818H383.483V67.6868H393.093V71H379.531ZM397.423 71V49.1818H411.613V52.495H401.375V58.4183H410.878V61.7315H401.375V67.6868H411.699V71H397.423ZM416.546 71V49.1818H424.727C426.404 49.1818 427.81 49.473 428.946 50.0554C430.09 50.6378 430.953 51.4545 431.535 52.5057C432.124 53.5497 432.419 54.7678 432.419 56.1598C432.419 57.5589 432.121 58.7734 431.524 59.8033C430.935 60.826 430.065 61.6179 428.914 62.179C427.764 62.733 426.35 63.0099 424.674 63.0099H418.847V59.7287H424.141C425.122 59.7287 425.924 59.5937 426.549 59.3239C427.174 59.0469 427.636 58.6456 427.934 58.12C428.239 57.5874 428.392 56.9339 428.392 56.1598C428.392 55.3857 428.239 54.7251 427.934 54.1783C427.629 53.6243 427.164 53.2053 426.539 52.9212C425.914 52.63 425.107 52.4844 424.12 52.4844H420.498V71H416.546ZM427.817 61.1136L433.218 71H428.808L423.502 61.1136H427.817ZM439.759 71H435.54L443.222 49.1818H448.101L455.793 71H451.574L445.746 53.6562H445.576L439.759 71ZM439.898 62.4453H451.403V65.62H439.898V62.4453ZM455.971 52.495V49.1818H473.378V52.495H466.635V71H462.714V52.495H455.971ZM477.634 71V49.1818H491.825V52.495H481.587V58.4183H491.09V61.7315H481.587V67.6868H491.91V71H477.634ZM170.645 110.281C169.884 110.281 169.194 110.138 168.574 109.852C167.954 109.56 167.462 109.141 167.098 108.594C166.733 108.042 166.551 107.375 166.551 106.594C166.551 105.906 166.686 105.349 166.957 104.922C167.228 104.49 167.59 104.151 168.043 103.906C168.496 103.661 168.996 103.479 169.543 103.359C170.095 103.234 170.65 103.135 171.207 103.063C171.936 102.969 172.527 102.898 172.981 102.852C173.439 102.799 173.772 102.714 173.981 102.594C174.194 102.474 174.301 102.266 174.301 101.969V101.906C174.301 101.135 174.09 100.536 173.668 100.109C173.251 99.6823 172.619 99.4687 171.77 99.4687C170.889 99.4687 170.199 99.6615 169.699 100.047C169.199 100.432 168.848 100.844 168.645 101.281L166.895 100.656C167.207 99.9271 167.624 99.3594 168.145 98.9531C168.671 98.5417 169.244 98.2552 169.863 98.0937C170.488 97.9271 171.103 97.8438 171.707 97.8438C172.092 97.8438 172.535 97.8906 173.035 97.9844C173.54 98.0729 174.027 98.2578 174.496 98.5391C174.97 98.8203 175.363 99.2448 175.676 99.8125C175.988 100.38 176.145 101.141 176.145 102.094V110H174.301V108.375H174.207C174.082 108.635 173.874 108.914 173.582 109.211C173.29 109.508 172.902 109.76 172.418 109.969C171.934 110.177 171.342 110.281 170.645 110.281ZM170.926 108.625C171.655 108.625 172.27 108.482 172.77 108.195C173.275 107.909 173.655 107.539 173.91 107.086C174.171 106.633 174.301 106.156 174.301 105.656V103.969C174.223 104.062 174.051 104.148 173.785 104.227C173.525 104.299 173.223 104.365 172.879 104.422C172.54 104.474 172.21 104.521 171.887 104.562C171.569 104.599 171.311 104.63 171.113 104.656C170.634 104.719 170.186 104.82 169.77 104.961C169.358 105.096 169.025 105.302 168.77 105.578C168.52 105.849 168.395 106.219 168.395 106.687C168.395 107.328 168.632 107.812 169.106 108.141C169.585 108.464 170.191 108.625 170.926 108.625ZM185.389 98V99.5625H179.17V98H185.389ZM180.982 95.125H182.826V106.562C182.826 107.083 182.902 107.474 183.053 107.734C183.209 107.99 183.407 108.161 183.646 108.25C183.891 108.333 184.149 108.375 184.42 108.375C184.623 108.375 184.79 108.365 184.92 108.344C185.05 108.318 185.154 108.297 185.232 108.281L185.607 109.937C185.482 109.984 185.308 110.031 185.084 110.078C184.86 110.13 184.576 110.156 184.232 110.156C183.711 110.156 183.201 110.044 182.701 109.82C182.206 109.596 181.795 109.255 181.467 108.797C181.144 108.339 180.982 107.76 180.982 107.062V95.125ZM199.201 110.281C198.44 110.281 197.75 110.138 197.13 109.852C196.511 109.56 196.018 109.141 195.654 108.594C195.289 108.042 195.107 107.375 195.107 106.594C195.107 105.906 195.242 105.349 195.513 104.922C195.784 104.49 196.146 104.151 196.599 103.906C197.052 103.661 197.552 103.479 198.099 103.359C198.651 103.234 199.206 103.135 199.763 103.063C200.492 102.969 201.084 102.898 201.537 102.852C201.995 102.799 202.328 102.714 202.537 102.594C202.75 102.474 202.857 102.266 202.857 101.969V101.906C202.857 101.135 202.646 100.536 202.224 100.109C201.808 99.6823 201.175 99.4687 200.326 99.4687C199.446 99.4687 198.755 99.6615 198.255 100.047C197.755 100.432 197.404 100.844 197.201 101.281L195.451 100.656C195.763 99.9271 196.18 99.3594 196.701 98.9531C197.227 98.5417 197.8 98.2552 198.419 98.0937C199.044 97.9271 199.659 97.8438 200.263 97.8438C200.649 97.8438 201.091 97.8906 201.591 97.9844C202.097 98.0729 202.584 98.2578 203.052 98.5391C203.526 98.8203 203.919 99.2448 204.232 99.8125C204.544 100.38 204.701 101.141 204.701 102.094V110H202.857V108.375H202.763C202.638 108.635 202.43 108.914 202.138 109.211C201.847 109.508 201.459 109.76 200.974 109.969C200.49 110.177 199.899 110.281 199.201 110.281ZM199.482 108.625C200.211 108.625 200.826 108.482 201.326 108.195C201.831 107.909 202.211 107.539 202.466 107.086C202.727 106.633 202.857 106.156 202.857 105.656V103.969C202.779 104.062 202.607 104.148 202.341 104.227C202.081 104.299 201.779 104.365 201.435 104.422C201.097 104.474 200.766 104.521 200.443 104.562C200.125 104.599 199.867 104.63 199.669 104.656C199.19 104.719 198.742 104.82 198.326 104.961C197.914 105.096 197.581 105.302 197.326 105.578C197.076 105.849 196.951 106.219 196.951 106.687C196.951 107.328 197.188 107.812 197.662 108.141C198.141 108.464 198.748 108.625 199.482 108.625ZM234.713 95.5433H230.729C230.615 94.8899 230.406 94.3111 230.1 93.8068C229.795 93.2955 229.415 92.8622 228.961 92.5071C228.506 92.152 227.988 91.8857 227.405 91.7081C226.83 91.5234 226.208 91.4311 225.541 91.4311C224.355 91.4311 223.304 91.7294 222.387 92.326C221.471 92.9155 220.754 93.782 220.235 94.9254C219.717 96.0618 219.458 97.4503 219.458 99.0909C219.458 100.76 219.717 102.166 220.235 103.31C220.761 104.446 221.478 105.305 222.387 105.888C223.304 106.463 224.351 106.751 225.53 106.751C226.184 106.751 226.794 106.665 227.363 106.495C227.938 106.317 228.453 106.058 228.907 105.717C229.369 105.376 229.756 104.957 230.068 104.46C230.388 103.963 230.608 103.395 230.729 102.756L234.713 102.777C234.564 103.814 234.241 104.787 233.744 105.696C233.254 106.605 232.611 107.408 231.816 108.104C231.02 108.793 230.09 109.332 229.024 109.723C227.959 110.107 226.777 110.298 225.477 110.298C223.559 110.298 221.848 109.854 220.342 108.967C218.836 108.079 217.65 106.797 216.784 105.121C215.917 103.445 215.484 101.435 215.484 99.0909C215.484 96.7401 215.921 94.7301 216.794 93.0611C217.668 91.3849 218.858 90.103 220.363 89.2152C221.869 88.3274 223.573 87.8835 225.477 87.8835C226.691 87.8835 227.821 88.054 228.865 88.3949C229.909 88.7358 230.839 89.2365 231.656 89.897C232.473 90.5504 233.144 91.353 233.669 92.3047C234.202 93.2493 234.55 94.3288 234.713 95.5433ZM241.771 110H237.552L245.233 88.1818H250.113L257.804 110H253.586L247.758 92.6562H247.588L241.771 110ZM241.91 101.445H253.415V104.62H241.91V101.445ZM275.169 95.1491C274.992 94.5739 274.747 94.0589 274.434 93.6044C274.129 93.1428 273.759 92.7486 273.326 92.4219C272.9 92.0952 272.41 91.8501 271.856 91.6868C271.302 91.5163 270.698 91.4311 270.045 91.4311C268.873 91.4311 267.829 91.7259 266.913 92.3153C265.997 92.9048 265.276 93.7713 264.75 94.9148C264.232 96.0511 263.973 97.4361 263.973 99.0696C263.973 100.717 264.232 102.113 264.75 103.256C265.269 104.4 265.99 105.27 266.913 105.866C267.836 106.456 268.909 106.751 270.13 106.751C271.238 106.751 272.197 106.538 273.007 106.112C273.823 105.685 274.452 105.082 274.892 104.3C275.333 103.512 275.553 102.589 275.553 101.531L276.448 101.669H270.524V98.5795H279.377V101.2C279.377 103.068 278.98 104.684 278.184 106.048C277.389 107.411 276.295 108.462 274.903 109.201C273.511 109.933 271.913 110.298 270.109 110.298C268.099 110.298 266.334 109.847 264.814 108.945C263.301 108.036 262.119 106.747 261.267 105.078C260.421 103.402 259.999 101.413 259.999 99.1122C259.999 97.3509 260.247 95.7777 260.745 94.3928C261.249 93.0078 261.952 91.8324 262.854 90.8665C263.756 89.8935 264.814 89.1548 266.029 88.6506C267.243 88.1392 268.564 87.8835 269.992 87.8835C271.199 87.8835 272.325 88.0611 273.369 88.4162C274.413 88.7642 275.34 89.2614 276.149 89.9077C276.966 90.554 277.637 91.321 278.163 92.2088C278.688 93.0966 279.033 94.0767 279.196 95.1491H275.169ZM284.099 110V88.1818H292.281C293.957 88.1818 295.363 88.473 296.5 89.0554C297.643 89.6378 298.506 90.4545 299.089 91.5057C299.678 92.5497 299.973 93.7678 299.973 95.1598C299.973 96.5589 299.675 97.7734 299.078 98.8033C298.488 99.826 297.618 100.618 296.468 101.179C295.317 101.733 293.904 102.01 292.228 102.01H286.4V98.7287H291.695C292.675 98.7287 293.478 98.5937 294.103 98.3239C294.728 98.0469 295.189 97.6456 295.488 97.12C295.793 96.5874 295.946 95.9339 295.946 95.1598C295.946 94.3857 295.793 93.7251 295.488 93.1783C295.182 92.6243 294.717 92.2053 294.092 91.9212C293.467 91.63 292.661 91.4844 291.674 91.4844H288.052V110H284.099ZM295.371 100.114L300.772 110H296.361L291.056 100.114H295.371ZM317.263 110.25C316.18 110.25 315.229 109.992 314.411 109.477C313.599 108.961 312.963 108.24 312.505 107.312C312.052 106.385 311.825 105.302 311.825 104.062C311.825 102.812 312.052 101.721 312.505 100.789C312.963 99.8568 313.599 99.1328 314.411 98.6172C315.229 98.1016 316.18 97.8438 317.263 97.8438C318.346 97.8438 319.294 98.1016 320.107 98.6172C320.924 99.1328 321.56 99.8568 322.013 100.789C322.471 101.721 322.7 102.812 322.7 104.062C322.7 105.302 322.471 106.385 322.013 107.312C321.56 108.24 320.924 108.961 320.107 109.477C319.294 109.992 318.346 110.25 317.263 110.25ZM317.263 108.594C318.086 108.594 318.763 108.383 319.294 107.961C319.825 107.539 320.219 106.984 320.474 106.297C320.729 105.609 320.857 104.865 320.857 104.062C320.857 103.26 320.729 102.513 320.474 101.82C320.219 101.128 319.825 100.568 319.294 100.141C318.763 99.7135 318.086 99.5 317.263 99.5C316.44 99.5 315.763 99.7135 315.232 100.141C314.7 100.568 314.307 101.128 314.052 101.82C313.797 102.513 313.669 103.26 313.669 104.062C313.669 104.865 313.797 105.609 314.052 106.297C314.307 106.984 314.7 107.539 315.232 107.961C315.763 108.383 316.44 108.594 317.263 108.594ZM331.519 98V99.5625H325.05V98H331.519ZM326.987 110V96.3438C326.987 95.6562 327.149 95.0833 327.472 94.625C327.795 94.1667 328.214 93.8229 328.73 93.5937C329.245 93.3646 329.789 93.25 330.362 93.25C330.816 93.25 331.185 93.2865 331.472 93.3594C331.758 93.4323 331.972 93.5 332.112 93.5625L331.581 95.1562C331.487 95.125 331.357 95.0859 331.191 95.0391C331.029 94.9922 330.816 94.9687 330.55 94.9687C329.941 94.9687 329.5 95.1224 329.23 95.4297C328.964 95.737 328.831 96.1875 328.831 96.7812V110H326.987ZM345.141 110.281C344.381 110.281 343.691 110.138 343.071 109.852C342.451 109.56 341.959 109.141 341.594 108.594C341.23 108.042 341.048 107.375 341.048 106.594C341.048 105.906 341.183 105.349 341.454 104.922C341.725 104.49 342.087 104.151 342.54 103.906C342.993 103.661 343.493 103.479 344.04 103.359C344.592 103.234 345.147 103.135 345.704 103.063C346.433 102.969 347.024 102.898 347.477 102.852C347.936 102.799 348.269 102.714 348.477 102.594C348.691 102.474 348.798 102.266 348.798 101.969V101.906C348.798 101.135 348.587 100.536 348.165 100.109C347.748 99.6823 347.115 99.4687 346.266 99.4687C345.386 99.4687 344.696 99.6615 344.196 100.047C343.696 100.432 343.344 100.844 343.141 101.281L341.391 100.656C341.704 99.9271 342.121 99.3594 342.641 98.9531C343.167 98.5417 343.74 98.2552 344.36 98.0937C344.985 97.9271 345.6 97.8438 346.204 97.8438C346.589 97.8438 347.032 97.8906 347.532 97.9844C348.037 98.0729 348.524 98.2578 348.993 98.5391C349.467 98.8203 349.86 99.2448 350.173 99.8125C350.485 100.38 350.641 101.141 350.641 102.094V110H348.798V108.375H348.704C348.579 108.635 348.371 108.914 348.079 109.211C347.787 109.508 347.399 109.76 346.915 109.969C346.43 110.177 345.839 110.281 345.141 110.281ZM345.423 108.625C346.152 108.625 346.766 108.482 347.266 108.195C347.772 107.909 348.152 107.539 348.407 107.086C348.667 106.633 348.798 106.156 348.798 105.656V103.969C348.719 104.062 348.548 104.148 348.282 104.227C348.022 104.299 347.719 104.365 347.376 104.422C347.037 104.474 346.706 104.521 346.384 104.562C346.066 104.599 345.808 104.63 345.61 104.656C345.131 104.719 344.683 104.82 344.266 104.961C343.855 105.096 343.522 105.302 343.266 105.578C343.016 105.849 342.891 106.219 342.891 106.687C342.891 107.328 343.128 107.812 343.602 108.141C344.081 108.464 344.688 108.625 345.423 108.625ZM356.51 94V110H354.667V94H356.51ZM360.547 110V98H362.329V99.875H362.485C362.735 99.2344 363.138 98.737 363.696 98.3828C364.253 98.0234 364.922 97.8438 365.704 97.8438C366.495 97.8438 367.154 98.0234 367.68 98.3828C368.211 98.737 368.625 99.2344 368.922 99.875H369.047C369.355 99.2552 369.816 98.763 370.43 98.3984C371.045 98.0286 371.782 97.8438 372.641 97.8438C373.714 97.8438 374.592 98.1797 375.274 98.8516C375.956 99.5182 376.297 100.557 376.297 101.969V110H374.454V101.969C374.454 101.083 374.211 100.451 373.727 100.07C373.243 99.6901 372.672 99.5 372.016 99.5C371.172 99.5 370.519 99.7552 370.055 100.266C369.592 100.771 369.36 101.411 369.36 102.187V110H367.485V101.781C367.485 101.099 367.263 100.549 366.821 100.133C366.378 99.7109 365.808 99.5 365.11 99.5C364.631 99.5 364.183 99.6276 363.766 99.8828C363.355 100.138 363.021 100.492 362.766 100.945C362.516 101.393 362.391 101.911 362.391 102.5V110H360.547ZM385.203 110.25C384.12 110.25 383.17 109.992 382.352 109.477C381.539 108.961 380.904 108.24 380.446 107.312C379.992 106.385 379.766 105.302 379.766 104.062C379.766 102.812 379.992 101.721 380.446 100.789C380.904 99.8568 381.539 99.1328 382.352 98.6172C383.17 98.1016 384.12 97.8438 385.203 97.8438C386.287 97.8438 387.235 98.1016 388.047 98.6172C388.865 99.1328 389.5 99.8568 389.953 100.789C390.412 101.721 390.641 102.812 390.641 104.062C390.641 105.302 390.412 106.385 389.953 107.312C389.5 108.24 388.865 108.961 388.047 109.477C387.235 109.992 386.287 110.25 385.203 110.25ZM385.203 108.594C386.026 108.594 386.703 108.383 387.235 107.961C387.766 107.539 388.159 106.984 388.414 106.297C388.67 105.609 388.797 104.865 388.797 104.062C388.797 103.26 388.67 102.513 388.414 101.82C388.159 101.128 387.766 100.568 387.235 100.141C386.703 99.7135 386.026 99.5 385.203 99.5C384.38 99.5 383.703 99.7135 383.172 100.141C382.641 100.568 382.248 101.128 381.992 101.82C381.737 102.513 381.61 103.26 381.61 104.062C381.61 104.865 381.737 105.609 381.992 106.297C382.248 106.984 382.641 107.539 383.172 107.961C383.703 108.383 384.38 108.594 385.203 108.594ZM402.615 100.687L400.959 101.156C400.855 100.88 400.701 100.612 400.498 100.352C400.3 100.086 400.029 99.8672 399.686 99.6953C399.342 99.5234 398.902 99.4375 398.365 99.4375C397.631 99.4375 397.019 99.6068 396.529 99.9453C396.045 100.279 395.803 100.703 395.803 101.219C395.803 101.677 395.97 102.039 396.303 102.305C396.636 102.57 397.157 102.792 397.865 102.969L399.647 103.406C400.72 103.667 401.519 104.065 402.045 104.602C402.571 105.133 402.834 105.818 402.834 106.656C402.834 107.344 402.636 107.958 402.24 108.5C401.85 109.042 401.303 109.469 400.6 109.781C399.897 110.094 399.079 110.25 398.147 110.25C396.923 110.25 395.91 109.984 395.108 109.453C394.305 108.922 393.798 108.146 393.584 107.125L395.334 106.687C395.501 107.333 395.816 107.818 396.279 108.141C396.748 108.464 397.36 108.625 398.115 108.625C398.975 108.625 399.657 108.443 400.162 108.078C400.673 107.708 400.928 107.266 400.928 106.75C400.928 106.333 400.782 105.984 400.49 105.703C400.199 105.417 399.751 105.203 399.147 105.062L397.147 104.594C396.048 104.333 395.24 103.93 394.725 103.383C394.214 102.831 393.959 102.141 393.959 101.312C393.959 100.635 394.149 100.036 394.529 99.5156C394.915 98.9948 395.438 98.5859 396.1 98.2891C396.766 97.9922 397.522 97.8438 398.365 97.8438C399.553 97.8438 400.485 98.1042 401.162 98.625C401.845 99.1458 402.329 99.8333 402.615 100.687ZM411.488 98V99.5625H405.27V98H411.488ZM407.082 95.125H408.926V106.562C408.926 107.083 409.001 107.474 409.152 107.734C409.309 107.99 409.506 108.161 409.746 108.25C409.991 108.333 410.249 108.375 410.52 108.375C410.723 108.375 410.889 108.365 411.02 108.344C411.15 108.318 411.254 108.297 411.332 108.281L411.707 109.937C411.582 109.984 411.408 110.031 411.184 110.078C410.96 110.13 410.676 110.156 410.332 110.156C409.811 110.156 409.301 110.044 408.801 109.82C408.306 109.596 407.895 109.255 407.566 108.797C407.243 108.339 407.082 107.76 407.082 107.062V95.125Z" fill="#575757"/>
<defs>
<filter id="filter0_dd_302_353" x="185" y="140" width="205" height="110" filterUnits="userSpaceOnUse" color-interpolation-filters="sRGB">
<feFlood flood-opacity="0" result="BackgroundImageFix"/>
<feColorMatrix in="SourceAlpha" type="matrix" values="0 0 0 0 0 0 0 0 0 0 0 0 0 0 0 0 0 0 127 0" result="hardAlpha"/>
<feOffset dx="5" dy="5"/>
<feGaussianBlur stdDeviation="5"/>
<feComposite in2="hardAlpha" operator="out"/>
<feColorMatrix type="matrix" values="0 0 0 0 0.6 0 0 0 0 0.623529 0 0 0 0 0.690196 0 0 0 1 0"/>
<feBlend mode="normal" in2="BackgroundImageFix" result="effect1_dropShadow_302_353"/>
<feColorMatrix in="SourceAlpha" type="matrix" values="0 0 0 0 0 0 0 0 0 0 0 0 0 0 0 0 0 0 127 0" result="hardAlpha"/>
<feOffset dx="-5" dy="-5"/>
<feGaussianBlur stdDeviation="5"/>
<feComposite in2="hardAlpha" operator="out"/>
<feColorMatrix type="matrix" values="0 0 0 0 1 0 0 0 0 1 0 0 0 0 1 0 0 0 1 0"/>
<feBlend mode="normal" in2="effect1_dropShadow_302_353" result="effect2_dropShadow_302_353"/>
<feBlend mode="normal" in="SourceGraphic" in2="effect2_dropShadow_302_353" result="shape"/>
</filter>
<filter id="filter1_dd_302_353" x="38" y="7" width="501" height="145" filterUnits="userSpaceOnUse" color-interpolation-filters="sRGB">
<feFlood flood-opacity="0" result="BackgroundImageFix"/>
<feColorMatrix in="SourceAlpha" type="matrix" values="0 0 0 0 0 0 0 0 0 0 0 0 0 0 0 0 0 0 127 0" result="hardAlpha"/>
<feOffset dx="5" dy="5"/>
<feGaussianBlur stdDeviation="5"/>
<feComposite in2="hardAlpha" operator="out"/>
<feColorMatrix type="matrix" values="0 0 0 0 0.6 0 0 0 0 0.623529 0 0 0 0 0.690196 0 0 0 1 0"/>
<feBlend mode="normal" in2="BackgroundImageFix" result="effect1_dropShadow_302_353"/>
<feColorMatrix in="SourceAlpha" type="matrix" values="0 0 0 0 0 0 0 0 0 0 0 0 0 0 0 0 0 0 127 0" result="hardAlpha"/>
<feOffset dx="-5" dy="-5"/>
<feGaussianBlur stdDeviation="5"/>
<feComposite in2="hardAlpha" operator="out"/>
<feColorMatrix type="matrix" values="0 0 0 0 1 0 0 0 0 1 0 0 0 0 1 0 0 0 1 0"/>
<feBlend mode="normal" in2="effect1_dropShadow_302_353" result="effect2_dropShadow_302_353"/>
<feBlend mode="normal" in="SourceGraphic" in2="effect2_dropShadow_302_353" result="shape"/>
</filter>
<linearGradient id="paint0_linear_302_353" x1="312.288" y1="308.881" x2="236.956" y2="308.3" gradientUnits="userSpaceOnUse">
<stop stop-color="#A5A0A0"/>
<stop offset="1" stop-color="#A5A0A0" stop-opacity="0.05"/>
</linearGradient>
<linearGradient id="paint1_linear_302_353" x1="312.553" y1="340.411" x2="249.854" y2="340.008" gradientUnits="userSpaceOnUse">
<stop stop-color="#A5A0A0"/>
<stop offset="1" stop-color="#A5A0A0" stop-opacity="0.05"/>
</linearGradient>
<linearGradient id="paint2_linear_302_353" x1="329.603" y1="371.48" x2="263" y2="371.028" gradientUnits="userSpaceOnUse">
<stop stop-color="#A5A0A0"/>
<stop offset="1" stop-color="#A5A0A0" stop-opacity="0.05"/>
</linearGradient>
<linearGradient id="paint3_linear_302_353" x1="270.396" y1="242" x2="270.396" y2="308.881" gradientUnits="userSpaceOnUse">
<stop stop-color="#1FE31F"/>
<stop offset="1" stop-color="#11B211"/>
</linearGradient>
<linearGradient id="paint4_linear_302_353" x1="279.951" y1="297.416" x2="279.951" y2="340.172" gradientUnits="userSpaceOnUse">
<stop stop-color="#1FE31F"/>
<stop offset="0.203125" stop-color="#11AB11"/>
<stop offset="1" stop-color="#10BD10"/>
</linearGradient>
<linearGradient id="paint5_linear_302_353" x1="292.849" y1="328.946" x2="292.849" y2="371.702" gradientUnits="userSpaceOnUse">
<stop stop-color="#1FE31F"/>
<stop offset="0.203125" stop-color="#11AB11"/>
<stop offset="1" stop-color="#10BD10"/>
</linearGradient>
<linearGradient id="paint6_linear_302_353" x1="306.676" y1="360" x2="306.676" y2="402.756" gradientUnits="userSpaceOnUse">
<stop stop-color="#1FE31F"/>
<stop offset="0.280545" stop-color="#11AB11"/>
<stop offset="1" stop-color="#10BD10"/>
</linearGradient>
</defs>
</svg>
