<svg width="504" height="504" viewBox="0 0 504 504" fill="none" xmlns="http://www.w3.org/2000/svg">
<g filter="url(#filter0_dd_301_320)">
<circle cx="252" cy="252" r="231" fill="#E1E7E9"/>
<circle cx="252" cy="252" r="184.932" stroke="#EBF3FF" stroke-width="92.1367"/>
</g>
<g filter="url(#filter1_dd_301_320)">
<circle cx="252.658" cy="252.658" r="95.4274" stroke="#EBF3FF" stroke-width="32.906" shape-rendering="crispEdges"/>
</g>
<g filter="url(#filter2_dd_301_320)">
<circle cx="252" cy="252" r="96.1496" stroke="#2F5081" stroke-width="6.45299" shape-rendering="crispEdges"/>
</g>
<path d="M188.217 324.349C206.779 340.104 229.634 348.648 253.975 348.085C278.315 347.523 301.314 337.698 319.128 321.103" stroke="#DB488F" stroke-width="6.5812"/>
<path d="M323.077 316.496C339.412 298.442 346.769 279.641 348.171 253.907C348.38 229.562 340.846 208.564 326.368 191.453" stroke="#FF8616" stroke-width="6.5812"/>
<rect x="250.613" y="43.376" width="2.78165" height="41.7248" rx="1.39083" fill="#999999"/>
<rect x="250.613" y="418.899" width="2.78165" height="41.7248" rx="1.39083" fill="#999999"/>
<rect x="250.613" y="43.376" width="2.78165" height="41.7248" rx="1.39083" fill="#999999"/>
<rect x="250.613" y="418.899" width="2.78165" height="41.7248" rx="1.39083" fill="#999999"/>
<rect x="229.688" y="44.5684" width="2.78165" height="41.7248" rx="1.39083" transform="rotate(-5.75864 229.688 44.5684)" fill="#999999"/>
<rect x="267.367" y="418.196" width="2.78165" height="41.7248" rx="1.39083" transform="rotate(-5.75864 267.367 418.196)" fill="#999999"/>
<rect x="83.5054" y="128.979" width="2.78165" height="41.7248" rx="1.39083" transform="rotate(-53.485 83.5054 128.979)" fill="#999999"/>
<rect x="385.314" y="352.428" width="2.78165" height="41.7248" rx="1.39083" transform="rotate(-53.485 385.314 352.428)" fill="#999999"/>
<rect x="60.1372" y="333.934" width="2.78165" height="41.7248" rx="1.39083" transform="rotate(-112.742 60.1372 333.934)" fill="#999999"/>
<rect x="406.465" y="188.762" width="2.78165" height="41.7248" rx="1.39083" transform="rotate(-112.742 406.465 188.762)" fill="#999999"/>
<rect x="147.547" y="71.4047" width="2.78165" height="41.7248" rx="1.39083" transform="rotate(-29.6632 147.547 71.4047)" fill="#999999"/>
<rect x="333.394" y="397.715" width="2.78165" height="41.7248" rx="1.39083" transform="rotate(-29.6632 333.394 397.715)" fill="#999999"/>
<rect x="48.1099" y="207.81" width="2.78165" height="41.7248" rx="1.39083" transform="rotate(-77.3895 48.1099 207.81)" fill="#999999"/>
<rect x="414.574" y="289.795" width="2.78165" height="41.7248" rx="1.39083" transform="rotate(-77.3895 414.574 289.795)" fill="#999999"/>
<rect x="109.796" y="404.653" width="2.78165" height="41.7248" rx="1.39083" transform="rotate(-136.647 109.796 404.653)" fill="#999999"/>
<rect x="367.59" y="131.596" width="2.78165" height="41.7248" rx="1.39083" transform="rotate(-136.647 367.59 131.596)" fill="#999999"/>
<rect x="186.529" y="53.9118" width="2.78165" height="41.7248" rx="1.39083" transform="rotate(-17.9085 186.529 53.9118)" fill="#999999"/>
<rect x="302.002" y="411.24" width="2.78165" height="41.7248" rx="1.39083" transform="rotate(-17.9085 302.002 411.24)" fill="#999999"/>
<rect x="61.3877" y="167.199" width="2.78165" height="41.7248" rx="1.39083" transform="rotate(-65.6348 61.3877 167.199)" fill="#999999"/>
<rect x="403.465" y="322.121" width="2.78165" height="41.7248" rx="1.39083" transform="rotate(-65.6348 403.465 322.121)" fill="#999999"/>
<rect x="81.6802" y="372.481" width="2.78165" height="41.7248" rx="1.39083" transform="rotate(-124.892 81.6802 372.481)" fill="#999999"/>
<rect x="389.695" y="157.669" width="2.78165" height="41.7248" rx="1.39083" transform="rotate(-124.892 389.695 157.669)" fill="#999999"/>
<rect x="111.877" y="97.4348" width="2.78165" height="41.7248" rx="1.39083" transform="rotate(-41.8131 111.877 97.4348)" fill="#999999"/>
<rect x="362.24" y="377.321" width="2.78165" height="41.7248" rx="1.39083" transform="rotate(-41.8131 362.24 377.321)" fill="#999999"/>
<rect x="47.5298" y="293.424" width="2.78165" height="41.7248" rx="1.39083" transform="rotate(-101.07 47.5298 293.424)" fill="#999999"/>
<rect x="416.065" y="221.318" width="2.78165" height="41.7248" rx="1.39083" transform="rotate(-101.07 416.065 221.318)" fill="#999999"/>
<rect x="43.376" y="251.713" width="2.78165" height="41.7248" rx="1.39083" transform="rotate(-89.5394 43.376 251.713)" fill="#999999"/>
<rect x="418.887" y="254.732" width="2.78165" height="41.7248" rx="1.39083" transform="rotate(-89.5394 418.887 254.732)" fill="#999999"/>
<rect x="145.111" y="431.164" width="2.78165" height="41.7248" rx="1.39083" transform="rotate(-148.797 145.111 431.164)" fill="#999999"/>
<rect x="339.661" y="109.966" width="2.78165" height="41.7248" rx="1.39083" transform="rotate(-148.797 339.661 109.966)" fill="#999999"/>
<rect x="208.355" y="456.011" width="2.78165" height="41.7248" rx="1.39083" transform="rotate(-167.542 208.355 456.011)" fill="#999999"/>
<rect x="289.367" y="89.3308" width="2.78165" height="41.7248" rx="1.39083" transform="rotate(-167.542 289.367 89.3308)" fill="#999999"/>
<rect x="208.91" y="47.8707" width="2.78165" height="41.7248" rx="1.39083" transform="rotate(-11.539 208.91 47.8707)" fill="#999999"/>
<rect x="284.027" y="415.804" width="2.78165" height="41.7248" rx="1.39083" transform="rotate(-11.539 284.027 415.804)" fill="#999999"/>
<rect x="71.9722" y="146.575" width="2.78165" height="41.7248" rx="1.39083" transform="rotate(-59.2653 71.9722 146.575)" fill="#999999"/>
<rect x="394.75" y="338.492" width="2.78165" height="41.7248" rx="1.39083" transform="rotate(-59.2653 394.75 338.492)" fill="#999999"/>
<rect x="69.3652" y="352.841" width="2.78165" height="41.7248" rx="1.39083" transform="rotate(-118.523 69.3652 352.841)" fill="#999999"/>
<rect x="399.311" y="173.527" width="2.78165" height="41.7248" rx="1.39083" transform="rotate(-118.523 399.311 173.527)" fill="#999999"/>
<rect x="129.89" y="82.8431" width="2.78165" height="41.7248" rx="1.39083" transform="rotate(-35.4435 129.89 82.8431)" fill="#999999"/>
<rect x="347.656" y="388.777" width="2.78165" height="41.7248" rx="1.39083" transform="rotate(-35.4435 347.656 388.777)" fill="#999999"/>
<rect x="44.6953" y="228.57" width="2.78165" height="41.7248" rx="1.39083" transform="rotate(-83.1699 44.6953 228.57)" fill="#999999"/>
<rect x="417.553" y="273.23" width="2.78165" height="41.7248" rx="1.39083" transform="rotate(-83.1699 417.553 273.23)" fill="#999999"/>
<rect x="125.894" y="418.199" width="2.78165" height="41.7248" rx="1.39083" transform="rotate(-142.427 125.894 418.199)" fill="#999999"/>
<rect x="354.876" y="120.567" width="2.78165" height="41.7248" rx="1.39083" transform="rotate(-142.427 354.876 120.567)" fill="#999999"/>
<rect x="185.992" y="449.91" width="2.78165" height="41.7248" rx="1.39083" transform="rotate(-161.172 185.992 449.91)" fill="#999999"/>
<rect x="307.183" y="94.48" width="2.78165" height="41.7248" rx="1.39083" transform="rotate(-161.172 307.183 94.48)" fill="#999999"/>
<rect x="166.912" y="61.5133" width="2.78165" height="41.7248" rx="1.39083" transform="rotate(-23.6889 166.912 61.5133)" fill="#999999"/>
<rect x="317.786" y="405.395" width="2.78165" height="41.7248" rx="1.39083" transform="rotate(-23.6889 317.786 405.395)" fill="#999999"/>
<rect x="53.8164" y="186.828" width="2.78165" height="41.7248" rx="1.39083" transform="rotate(-71.4152 53.8164 186.828)" fill="#999999"/>
<rect x="409.757" y="306.51" width="2.78165" height="41.7248" rx="1.39083" transform="rotate(-71.4152 409.757 306.51)" fill="#999999"/>
<rect x="94.6802" y="389.022" width="2.78165" height="41.7248" rx="1.39083" transform="rotate(-130.673 94.6802 389.022)" fill="#999999"/>
<rect x="379.495" y="144.281" width="2.78165" height="41.7248" rx="1.39083" transform="rotate(-130.673 379.495 144.281)" fill="#999999"/>
<rect x="97.0229" y="112.334" width="2.78165" height="41.7248" rx="1.39083" transform="rotate(-47.5934 97.0229 112.334)" fill="#999999"/>
<rect x="374.301" y="365.582" width="2.78165" height="41.7248" rx="1.39083" transform="rotate(-47.5934 374.301 365.582)" fill="#999999"/>
<rect x="52.7412" y="313.807" width="2.78165" height="41.7248" rx="1.39083" transform="rotate(-106.851 52.7412 313.807)" fill="#999999"/>
<rect x="412.141" y="204.95" width="2.78165" height="41.7248" rx="1.39083" transform="rotate(-106.851 412.141 204.95)" fill="#999999"/>
<rect x="44.4077" y="272.727" width="2.78165" height="41.7248" rx="1.39083" transform="rotate(-95.3197 44.4077 272.727)" fill="#999999"/>
<rect x="418.313" y="237.911" width="2.78165" height="41.7248" rx="1.39083" transform="rotate(-95.3197 418.313 237.911)" fill="#999999"/>
<rect x="163.699" y="441.019" width="2.78165" height="41.7248" rx="1.39083" transform="rotate(-154.577 163.699 441.019)" fill="#999999"/>
<rect x="324.91" y="101.86" width="2.78165" height="41.7248" rx="1.39083" transform="rotate(-154.577 324.91 101.86)" fill="#999999"/>
<rect x="229.125" y="459.37" width="2.78165" height="41.7248" rx="1.39083" transform="rotate(-173.322 229.125 459.37)" fill="#999999"/>
<rect x="272.794" y="86.3947" width="2.78165" height="41.7248" rx="1.39083" transform="rotate(-173.322 272.794 86.3947)" fill="#999999"/>
<circle cx="328.342" cy="195.402" r="7.23932" fill="#EBF3FF" stroke="#2F5081" stroke-width="5.26496"/>
<circle cx="321.761" cy="316.496" r="7.23932" fill="#EBF3FF" stroke="#FF8616" stroke-width="5.26496"/>
<circle cx="190.137" cy="325.709" r="7.23932" fill="#EBF3FF" stroke="#DB488F" stroke-width="5.26496"/>
<g filter="url(#filter3_dd_301_320)">
<path d="M215.607 303.286L302.192 282.819L309.158 297.767L215.607 320.774L215.607 303.286Z" fill="#354E1C"/>
</g>
<g filter="url(#filter4_dd_301_320)">
<path d="M201.625 281.704L228.602 271.285L298.929 271.285L272.696 281.704L201.625 281.704Z" fill="#003951"/>
</g>
<g filter="url(#filter5_dd_301_320)">
<path d="M212.044 254.727L232.51 244.308L288.139 244.308L274.185 254.727L212.044 254.727Z" fill="#944E00"/>
</g>
<g filter="url(#filter6_dd_301_320)">
<path d="M223.207 227.438L254.091 212.865L277.348 217.019L257.812 227.438L223.207 227.438Z" fill="#DF183F"/>
</g>
<g filter="url(#filter7_dd_301_320)">
<rect x="201.38" y="281.409" width="107.909" height="16.7445" transform="rotate(-0.0209003 201.38 281.409)" fill="url(#paint0_linear_301_320)"/>
</g>
<g filter="url(#filter8_dd_301_320)">
<rect x="211.79" y="254.578" width="87.4437" height="16.7445" transform="rotate(-0.0209003 211.79 254.578)" fill="url(#paint1_linear_301_320)"/>
</g>
<g filter="url(#filter9_dd_301_320)">
<rect x="223.315" y="227.755" width="64.7456" height="16.7445" transform="rotate(-0.0209003 223.315 227.755)" fill="url(#paint2_linear_301_320)"/>
</g>
<g filter="url(#filter10_dd_301_320)">
<path d="M252.226 200.938L277.261 200.929L277.267 217.673L260.231 217.673L252.226 200.938Z" fill="url(#paint3_linear_301_320)"/>
</g>
<path d="M260.231 217.703L243.712 208.821C243.229 208.562 242.928 208.058 242.928 207.51V193.144H235.63C234.268 193.144 233.621 191.465 234.632 190.552L251.335 175.446C251.904 174.932 252.771 174.934 253.338 175.452L269.866 190.557C270.868 191.473 270.22 193.144 268.861 193.144H260.789L260.231 217.703Z" fill="url(#paint4_linear_301_320)"/>
<g filter="url(#filter11_dd_301_320)">
<rect x="148" y="66" width="208" height="80" rx="5" fill="#EBF3FF"/>
</g>
<defs>
<filter id="filter0_dd_301_320" x="0.251497" y="0.251497" width="503.497" height="503.497" filterUnits="userSpaceOnUse" color-interpolation-filters="sRGB">
<feFlood flood-opacity="0" result="BackgroundImageFix"/>
<feColorMatrix in="SourceAlpha" type="matrix" values="0 0 0 0 0 0 0 0 0 0 0 0 0 0 0 0 0 0 127 0" result="hardAlpha"/>
<feOffset dx="6.91617" dy="6.91617"/>
<feGaussianBlur stdDeviation="6.91617"/>
<feComposite in2="hardAlpha" operator="out"/>
<feColorMatrix type="matrix" values="0 0 0 0 0.6 0 0 0 0 0.623529 0 0 0 0 0.690196 0 0 0 1 0"/>
<feBlend mode="normal" in2="BackgroundImageFix" result="effect1_dropShadow_301_320"/>
<feColorMatrix in="SourceAlpha" type="matrix" values="0 0 0 0 0 0 0 0 0 0 0 0 0 0 0 0 0 0 127 0" result="hardAlpha"/>
<feOffset dx="-6.91617" dy="-6.91617"/>
<feGaussianBlur stdDeviation="6.91617"/>
<feComposite in2="hardAlpha" operator="out"/>
<feColorMatrix type="matrix" values="0 0 0 0 1 0 0 0 0 1 0 0 0 0 1 0 0 0 1 0"/>
<feBlend mode="normal" in2="effect1_dropShadow_301_320" result="effect2_dropShadow_301_320"/>
<feBlend mode="normal" in="SourceGraphic" in2="effect2_dropShadow_301_320" result="shape"/>
</filter>
<filter id="filter1_dd_301_320" x="131.215" y="131.215" width="242.886" height="242.886" filterUnits="userSpaceOnUse" color-interpolation-filters="sRGB">
<feFlood flood-opacity="0" result="BackgroundImageFix"/>
<feColorMatrix in="SourceAlpha" type="matrix" values="0 0 0 0 0 0 0 0 0 0 0 0 0 0 0 0 0 0 127 0" result="hardAlpha"/>
<feOffset dx="3.18747" dy="3.18747"/>
<feGaussianBlur stdDeviation="3.18747"/>
<feComposite in2="hardAlpha" operator="out"/>
<feColorMatrix type="matrix" values="0 0 0 0 0.6 0 0 0 0 0.623529 0 0 0 0 0.690196 0 0 0 1 0"/>
<feBlend mode="normal" in2="BackgroundImageFix" result="effect1_dropShadow_301_320"/>
<feColorMatrix in="SourceAlpha" type="matrix" values="0 0 0 0 0 0 0 0 0 0 0 0 0 0 0 0 0 0 127 0" result="hardAlpha"/>
<feOffset dx="-3.18747" dy="-3.18747"/>
<feGaussianBlur stdDeviation="3.18747"/>
<feComposite in2="hardAlpha" operator="out"/>
<feColorMatrix type="matrix" values="0 0 0 0 1 0 0 0 0 1 0 0 0 0 1 0 0 0 1 0"/>
<feBlend mode="normal" in2="effect1_dropShadow_301_320" result="effect2_dropShadow_301_320"/>
<feBlend mode="normal" in="SourceGraphic" in2="effect2_dropShadow_301_320" result="shape"/>
</filter>
<filter id="filter2_dd_301_320" x="144.13" y="144.13" width="215.739" height="215.739" filterUnits="userSpaceOnUse" color-interpolation-filters="sRGB">
<feFlood flood-opacity="0" result="BackgroundImageFix"/>
<feColorMatrix in="SourceAlpha" type="matrix" values="0 0 0 0 0 0 0 0 0 0 0 0 0 0 0 0 0 0 127 0" result="hardAlpha"/>
<feOffset dx="2.83123" dy="2.83123"/>
<feGaussianBlur stdDeviation="2.83123"/>
<feComposite in2="hardAlpha" operator="out"/>
<feColorMatrix type="matrix" values="0 0 0 0 0.6 0 0 0 0 0.623529 0 0 0 0 0.690196 0 0 0 1 0"/>
<feBlend mode="normal" in2="BackgroundImageFix" result="effect1_dropShadow_301_320"/>
<feColorMatrix in="SourceAlpha" type="matrix" values="0 0 0 0 0 0 0 0 0 0 0 0 0 0 0 0 0 0 127 0" result="hardAlpha"/>
<feOffset dx="-2.83123" dy="-2.83123"/>
<feGaussianBlur stdDeviation="2.83123"/>
<feComposite in2="hardAlpha" operator="out"/>
<feColorMatrix type="matrix" values="0 0 0 0 1 0 0 0 0 1 0 0 0 0 1 0 0 0 1 0"/>
<feBlend mode="normal" in2="effect1_dropShadow_301_320" result="effect2_dropShadow_301_320"/>
<feBlend mode="normal" in="SourceGraphic" in2="effect2_dropShadow_301_320" result="shape"/>
</filter>
<filter id="filter3_dd_301_320" x="210.026" y="277.237" width="104.714" height="49.1188" filterUnits="userSpaceOnUse" color-interpolation-filters="sRGB">
<feFlood flood-opacity="0" result="BackgroundImageFix"/>
<feColorMatrix in="SourceAlpha" type="matrix" values="0 0 0 0 0 0 0 0 0 0 0 0 0 0 0 0 0 0 127 0" result="hardAlpha"/>
<feOffset dx="1.8605" dy="1.8605"/>
<feGaussianBlur stdDeviation="1.8605"/>
<feComposite in2="hardAlpha" operator="out"/>
<feColorMatrix type="matrix" values="0 0 0 0 0.6 0 0 0 0 0.623529 0 0 0 0 0.690196 0 0 0 1 0"/>
<feBlend mode="normal" in2="BackgroundImageFix" result="effect1_dropShadow_301_320"/>
<feColorMatrix in="SourceAlpha" type="matrix" values="0 0 0 0 0 0 0 0 0 0 0 0 0 0 0 0 0 0 127 0" result="hardAlpha"/>
<feOffset dx="-1.8605" dy="-1.8605"/>
<feGaussianBlur stdDeviation="1.8605"/>
<feComposite in2="hardAlpha" operator="out"/>
<feColorMatrix type="matrix" values="0 0 0 0 1 0 0 0 0 1 0 0 0 0 1 0 0 0 1 0"/>
<feBlend mode="normal" in2="effect1_dropShadow_301_320" result="effect2_dropShadow_301_320"/>
<feBlend mode="normal" in="SourceGraphic" in2="effect2_dropShadow_301_320" result="shape"/>
</filter>
<filter id="filter4_dd_301_320" x="196.043" y="265.704" width="108.468" height="21.5819" filterUnits="userSpaceOnUse" color-interpolation-filters="sRGB">
<feFlood flood-opacity="0" result="BackgroundImageFix"/>
<feColorMatrix in="SourceAlpha" type="matrix" values="0 0 0 0 0 0 0 0 0 0 0 0 0 0 0 0 0 0 127 0" result="hardAlpha"/>
<feOffset dx="1.8605" dy="1.8605"/>
<feGaussianBlur stdDeviation="1.8605"/>
<feComposite in2="hardAlpha" operator="out"/>
<feColorMatrix type="matrix" values="0 0 0 0 0.6 0 0 0 0 0.623529 0 0 0 0 0.690196 0 0 0 1 0"/>
<feBlend mode="normal" in2="BackgroundImageFix" result="effect1_dropShadow_301_320"/>
<feColorMatrix in="SourceAlpha" type="matrix" values="0 0 0 0 0 0 0 0 0 0 0 0 0 0 0 0 0 0 127 0" result="hardAlpha"/>
<feOffset dx="-1.8605" dy="-1.8605"/>
<feGaussianBlur stdDeviation="1.8605"/>
<feComposite in2="hardAlpha" operator="out"/>
<feColorMatrix type="matrix" values="0 0 0 0 1 0 0 0 0 1 0 0 0 0 1 0 0 0 1 0"/>
<feBlend mode="normal" in2="effect1_dropShadow_301_320" result="effect2_dropShadow_301_320"/>
<feBlend mode="normal" in="SourceGraphic" in2="effect2_dropShadow_301_320" result="shape"/>
</filter>
<filter id="filter5_dd_301_320" x="206.463" y="238.726" width="87.2578" height="21.5819" filterUnits="userSpaceOnUse" color-interpolation-filters="sRGB">
<feFlood flood-opacity="0" result="BackgroundImageFix"/>
<feColorMatrix in="SourceAlpha" type="matrix" values="0 0 0 0 0 0 0 0 0 0 0 0 0 0 0 0 0 0 127 0" result="hardAlpha"/>
<feOffset dx="1.8605" dy="1.8605"/>
<feGaussianBlur stdDeviation="1.8605"/>
<feComposite in2="hardAlpha" operator="out"/>
<feColorMatrix type="matrix" values="0 0 0 0 0.6 0 0 0 0 0.623529 0 0 0 0 0.690196 0 0 0 1 0"/>
<feBlend mode="normal" in2="BackgroundImageFix" result="effect1_dropShadow_301_320"/>
<feColorMatrix in="SourceAlpha" type="matrix" values="0 0 0 0 0 0 0 0 0 0 0 0 0 0 0 0 0 0 127 0" result="hardAlpha"/>
<feOffset dx="-1.8605" dy="-1.8605"/>
<feGaussianBlur stdDeviation="1.8605"/>
<feComposite in2="hardAlpha" operator="out"/>
<feColorMatrix type="matrix" values="0 0 0 0 1 0 0 0 0 1 0 0 0 0 1 0 0 0 1 0"/>
<feBlend mode="normal" in2="effect1_dropShadow_301_320" result="effect2_dropShadow_301_320"/>
<feBlend mode="normal" in="SourceGraphic" in2="effect2_dropShadow_301_320" result="shape"/>
</filter>
<filter id="filter6_dd_301_320" x="217.626" y="207.284" width="65.3037" height="25.7359" filterUnits="userSpaceOnUse" color-interpolation-filters="sRGB">
<feFlood flood-opacity="0" result="BackgroundImageFix"/>
<feColorMatrix in="SourceAlpha" type="matrix" values="0 0 0 0 0 0 0 0 0 0 0 0 0 0 0 0 0 0 127 0" result="hardAlpha"/>
<feOffset dx="1.8605" dy="1.8605"/>
<feGaussianBlur stdDeviation="1.8605"/>
<feComposite in2="hardAlpha" operator="out"/>
<feColorMatrix type="matrix" values="0 0 0 0 0.6 0 0 0 0 0.623529 0 0 0 0 0.690196 0 0 0 1 0"/>
<feBlend mode="normal" in2="BackgroundImageFix" result="effect1_dropShadow_301_320"/>
<feColorMatrix in="SourceAlpha" type="matrix" values="0 0 0 0 0 0 0 0 0 0 0 0 0 0 0 0 0 0 127 0" result="hardAlpha"/>
<feOffset dx="-1.8605" dy="-1.8605"/>
<feGaussianBlur stdDeviation="1.8605"/>
<feComposite in2="hardAlpha" operator="out"/>
<feColorMatrix type="matrix" values="0 0 0 0 1 0 0 0 0 1 0 0 0 0 1 0 0 0 1 0"/>
<feBlend mode="normal" in2="effect1_dropShadow_301_320" result="effect2_dropShadow_301_320"/>
<feBlend mode="normal" in="SourceGraphic" in2="effect2_dropShadow_301_320" result="shape"/>
</filter>
<filter id="filter7_dd_301_320" x="195.798" y="275.788" width="119.079" height="27.947" filterUnits="userSpaceOnUse" color-interpolation-filters="sRGB">
<feFlood flood-opacity="0" result="BackgroundImageFix"/>
<feColorMatrix in="SourceAlpha" type="matrix" values="0 0 0 0 0 0 0 0 0 0 0 0 0 0 0 0 0 0 127 0" result="hardAlpha"/>
<feOffset dx="1.8605" dy="1.8605"/>
<feGaussianBlur stdDeviation="1.8605"/>
<feComposite in2="hardAlpha" operator="out"/>
<feColorMatrix type="matrix" values="0 0 0 0 0.6 0 0 0 0 0.623529 0 0 0 0 0.690196 0 0 0 1 0"/>
<feBlend mode="normal" in2="BackgroundImageFix" result="effect1_dropShadow_301_320"/>
<feColorMatrix in="SourceAlpha" type="matrix" values="0 0 0 0 0 0 0 0 0 0 0 0 0 0 0 0 0 0 127 0" result="hardAlpha"/>
<feOffset dx="-1.8605" dy="-1.8605"/>
<feGaussianBlur stdDeviation="1.8605"/>
<feComposite in2="hardAlpha" operator="out"/>
<feColorMatrix type="matrix" values="0 0 0 0 1 0 0 0 0 1 0 0 0 0 1 0 0 0 1 0"/>
<feBlend mode="normal" in2="effect1_dropShadow_301_320" result="effect2_dropShadow_301_320"/>
<feBlend mode="normal" in="SourceGraphic" in2="effect2_dropShadow_301_320" result="shape"/>
</filter>
<filter id="filter8_dd_301_320" x="206.208" y="248.965" width="98.6127" height="27.9395" filterUnits="userSpaceOnUse" color-interpolation-filters="sRGB">
<feFlood flood-opacity="0" result="BackgroundImageFix"/>
<feColorMatrix in="SourceAlpha" type="matrix" values="0 0 0 0 0 0 0 0 0 0 0 0 0 0 0 0 0 0 127 0" result="hardAlpha"/>
<feOffset dx="1.8605" dy="1.8605"/>
<feGaussianBlur stdDeviation="1.8605"/>
<feComposite in2="hardAlpha" operator="out"/>
<feColorMatrix type="matrix" values="0 0 0 0 0.6 0 0 0 0 0.623529 0 0 0 0 0.690196 0 0 0 1 0"/>
<feBlend mode="normal" in2="BackgroundImageFix" result="effect1_dropShadow_301_320"/>
<feColorMatrix in="SourceAlpha" type="matrix" values="0 0 0 0 0 0 0 0 0 0 0 0 0 0 0 0 0 0 127 0" result="hardAlpha"/>
<feOffset dx="-1.8605" dy="-1.8605"/>
<feGaussianBlur stdDeviation="1.8605"/>
<feComposite in2="hardAlpha" operator="out"/>
<feColorMatrix type="matrix" values="0 0 0 0 1 0 0 0 0 1 0 0 0 0 1 0 0 0 1 0"/>
<feBlend mode="normal" in2="effect1_dropShadow_301_320" result="effect2_dropShadow_301_320"/>
<feBlend mode="normal" in="SourceGraphic" in2="effect2_dropShadow_301_320" result="shape"/>
</filter>
<filter id="filter9_dd_301_320" x="217.733" y="222.15" width="75.9145" height="27.9312" filterUnits="userSpaceOnUse" color-interpolation-filters="sRGB">
<feFlood flood-opacity="0" result="BackgroundImageFix"/>
<feColorMatrix in="SourceAlpha" type="matrix" values="0 0 0 0 0 0 0 0 0 0 0 0 0 0 0 0 0 0 127 0" result="hardAlpha"/>
<feOffset dx="1.8605" dy="1.8605"/>
<feGaussianBlur stdDeviation="1.8605"/>
<feComposite in2="hardAlpha" operator="out"/>
<feColorMatrix type="matrix" values="0 0 0 0 0.6 0 0 0 0 0.623529 0 0 0 0 0.690196 0 0 0 1 0"/>
<feBlend mode="normal" in2="BackgroundImageFix" result="effect1_dropShadow_301_320"/>
<feColorMatrix in="SourceAlpha" type="matrix" values="0 0 0 0 0 0 0 0 0 0 0 0 0 0 0 0 0 0 127 0" result="hardAlpha"/>
<feOffset dx="-1.8605" dy="-1.8605"/>
<feGaussianBlur stdDeviation="1.8605"/>
<feComposite in2="hardAlpha" operator="out"/>
<feColorMatrix type="matrix" values="0 0 0 0 1 0 0 0 0 1 0 0 0 0 1 0 0 0 1 0"/>
<feBlend mode="normal" in2="effect1_dropShadow_301_320" result="effect2_dropShadow_301_320"/>
<feBlend mode="normal" in="SourceGraphic" in2="effect2_dropShadow_301_320" result="shape"/>
</filter>
<filter id="filter10_dd_301_320" x="246.645" y="195.347" width="36.2036" height="27.9076" filterUnits="userSpaceOnUse" color-interpolation-filters="sRGB">
<feFlood flood-opacity="0" result="BackgroundImageFix"/>
<feColorMatrix in="SourceAlpha" type="matrix" values="0 0 0 0 0 0 0 0 0 0 0 0 0 0 0 0 0 0 127 0" result="hardAlpha"/>
<feOffset dx="1.8605" dy="1.8605"/>
<feGaussianBlur stdDeviation="1.8605"/>
<feComposite in2="hardAlpha" operator="out"/>
<feColorMatrix type="matrix" values="0 0 0 0 0.6 0 0 0 0 0.623529 0 0 0 0 0.690196 0 0 0 1 0"/>
<feBlend mode="normal" in2="BackgroundImageFix" result="effect1_dropShadow_301_320"/>
<feColorMatrix in="SourceAlpha" type="matrix" values="0 0 0 0 0 0 0 0 0 0 0 0 0 0 0 0 0 0 127 0" result="hardAlpha"/>
<feOffset dx="-1.8605" dy="-1.8605"/>
<feGaussianBlur stdDeviation="1.8605"/>
<feComposite in2="hardAlpha" operator="out"/>
<feColorMatrix type="matrix" values="0 0 0 0 1 0 0 0 0 1 0 0 0 0 1 0 0 0 1 0"/>
<feBlend mode="normal" in2="effect1_dropShadow_301_320" result="effect2_dropShadow_301_320"/>
<feBlend mode="normal" in="SourceGraphic" in2="effect2_dropShadow_301_320" result="shape"/>
</filter>
<filter id="filter11_dd_301_320" x="133" y="51" width="238" height="110" filterUnits="userSpaceOnUse" color-interpolation-filters="sRGB">
<feFlood flood-opacity="0" result="BackgroundImageFix"/>
<feColorMatrix in="SourceAlpha" type="matrix" values="0 0 0 0 0 0 0 0 0 0 0 0 0 0 0 0 0 0 127 0" result="hardAlpha"/>
<feOffset dx="5" dy="5"/>
<feGaussianBlur stdDeviation="5"/>
<feComposite in2="hardAlpha" operator="out"/>
<feColorMatrix type="matrix" values="0 0 0 0 0.6 0 0 0 0 0.623529 0 0 0 0 0.690196 0 0 0 1 0"/>
<feBlend mode="normal" in2="BackgroundImageFix" result="effect1_dropShadow_301_320"/>
<feColorMatrix in="SourceAlpha" type="matrix" values="0 0 0 0 0 0 0 0 0 0 0 0 0 0 0 0 0 0 127 0" result="hardAlpha"/>
<feOffset dx="-5" dy="-5"/>
<feGaussianBlur stdDeviation="5"/>
<feComposite in2="hardAlpha" operator="out"/>
<feColorMatrix type="matrix" values="0 0 0 0 1 0 0 0 0 1 0 0 0 0 1 0 0 0 1 0"/>
<feBlend mode="normal" in2="effect1_dropShadow_301_320" result="effect2_dropShadow_301_320"/>
<feBlend mode="normal" in="SourceGraphic" in2="effect2_dropShadow_301_320" result="shape"/>
</filter>
<linearGradient id="paint0_linear_301_320" x1="201.25" y1="289.89" x2="309.159" y2="289.93" gradientUnits="userSpaceOnUse">
<stop stop-color="#7EC147"/>
<stop offset="1" stop-color="#446528"/>
</linearGradient>
<linearGradient id="paint1_linear_301_320" x1="211.669" y1="263.099" x2="299.112" y2="263.131" gradientUnits="userSpaceOnUse">
<stop stop-color="#00A5ED"/>
<stop offset="1" stop-color="#006DA9"/>
</linearGradient>
<linearGradient id="paint2_linear_301_320" x1="223.203" y1="235.936" x2="287.949" y2="235.959" gradientUnits="userSpaceOnUse">
<stop stop-color="#FFA52C"/>
<stop offset="1" stop-color="#DC6F00"/>
</linearGradient>
<linearGradient id="paint3_linear_301_320" x1="252.149" y1="209.142" x2="277.183" y2="209.14" gradientUnits="userSpaceOnUse">
<stop stop-color="#10BD10"/>
<stop offset="1" stop-color="#1FE31F"/>
</linearGradient>
<linearGradient id="paint4_linear_301_320" x1="252.231" y1="174.539" x2="252.231" y2="215.656" gradientUnits="userSpaceOnUse">
<stop stop-color="#1FE31F"/>
<stop offset="1" stop-color="#1CD31C"/>
</linearGradient>
</defs>
</svg>
