<svg width="25" height="24" viewBox="0 0 25 24" fill="none" xmlns="http://www.w3.org/2000/svg">
<g clip-path="url(#clip0_294_10338)">
<path d="M10.4689 19.032V11.031H9.51939C8.83936 11.3935 8.18213 11.7973 7.55139 12.24V13.2825C8.11389 12.897 9.00489 12.3525 9.43839 12.117H9.45639V19.032H10.4689ZM12.2509 17.0745C12.3214 18.0345 13.1419 19.1835 14.8054 19.1835C16.6924 19.1835 17.8054 17.5845 17.8054 14.877C17.8054 11.976 16.6339 10.875 14.8759 10.875C13.4869 10.875 12.1804 11.883 12.1804 13.5885C12.1804 15.3285 13.4164 16.2435 14.6944 16.2435C15.8134 16.2435 16.5394 15.6795 16.7689 15.0585H16.8094C16.8034 17.0325 16.1179 18.3045 14.8519 18.3045C13.8559 18.3045 13.3399 17.6295 13.2769 17.0745H12.2509ZM16.6804 13.599C16.6804 14.643 15.8419 15.369 14.9044 15.369C14.0029 15.369 13.1884 14.7945 13.1884 13.569C13.1884 12.3345 14.0614 11.754 14.9404 11.754C15.8899 11.754 16.6804 12.351 16.6804 13.599Z" fill="url(#paint0_linear_294_10338)"/>
<path d="M6.05139 0C6.2503 0 6.44107 0.0790176 6.58172 0.21967C6.72237 0.360322 6.80139 0.551088 6.80139 0.75V1.5H18.8014V0.75C18.8014 0.551088 18.8804 0.360322 19.0211 0.21967C19.1617 0.0790176 19.3525 0 19.5514 0C19.7503 0 19.9411 0.0790176 20.0817 0.21967C20.2224 0.360322 20.3014 0.551088 20.3014 0.75V1.5H21.8014C22.597 1.5 23.3601 1.81607 23.9227 2.37868C24.4853 2.94129 24.8014 3.70435 24.8014 4.5V21C24.8014 21.7956 24.4853 22.5587 23.9227 23.1213C23.3601 23.6839 22.597 24 21.8014 24H3.80139C3.00574 24 2.24268 23.6839 1.68007 23.1213C1.11746 22.5587 0.801392 21.7956 0.801392 21V4.5C0.801392 3.70435 1.11746 2.94129 1.68007 2.37868C2.24268 1.81607 3.00574 1.5 3.80139 1.5H5.30139V0.75C5.30139 0.551088 5.38041 0.360322 5.52106 0.21967C5.66171 0.0790176 5.85248 0 6.05139 0V0ZM3.80139 3C3.40357 3 3.02204 3.15804 2.74073 3.43934C2.45943 3.72064 2.30139 4.10218 2.30139 4.5V21C2.30139 21.3978 2.45943 21.7794 2.74073 22.0607C3.02204 22.342 3.40357 22.5 3.80139 22.5H21.8014C22.1992 22.5 22.5807 22.342 22.8621 22.0607C23.1434 21.7794 23.3014 21.3978 23.3014 21V4.5C23.3014 4.10218 23.1434 3.72064 22.8621 3.43934C22.5807 3.15804 22.1992 3 21.8014 3H3.80139Z" fill="url(#paint1_linear_294_10338)"/>
<path d="M4.55139 6C4.55139 5.80109 4.63041 5.61032 4.77106 5.46967C4.91171 5.32902 5.10248 5.25 5.30139 5.25H20.3014C20.5003 5.25 20.6911 5.32902 20.8317 5.46967C20.9724 5.61032 21.0514 5.80109 21.0514 6V7.5C21.0514 7.69891 20.9724 7.88968 20.8317 8.03033C20.6911 8.17098 20.5003 8.25 20.3014 8.25H5.30139C5.10248 8.25 4.91171 8.17098 4.77106 8.03033C4.63041 7.88968 4.55139 7.69891 4.55139 7.5V6Z" fill="url(#paint2_linear_294_10338)"/>
</g>
<defs>
<linearGradient id="paint0_linear_294_10338" x1="12.6784" y1="9.37947" x2="12.6784" y2="20.5129" gradientUnits="userSpaceOnUse">
<stop stop-color="#FACB30"/>
<stop offset="0.302269" stop-color="#FEF9C8"/>
<stop offset="0.640625" stop-color="#C49530"/>
<stop offset="1" stop-color="#FFF8C4"/>
</linearGradient>
<linearGradient id="paint1_linear_294_10338" x1="12.8013" y1="-4.32" x2="12.8013" y2="27.84" gradientUnits="userSpaceOnUse">
<stop stop-color="#FACB30"/>
<stop offset="0.302269" stop-color="#FEF9C8"/>
<stop offset="0.640625" stop-color="#C49530"/>
<stop offset="1" stop-color="#FFF8C4"/>
</linearGradient>
<linearGradient id="paint2_linear_294_10338" x1="12.8014" y1="4.71" x2="12.8014" y2="8.73001" gradientUnits="userSpaceOnUse">
<stop stop-color="#FACB30"/>
<stop offset="0.302269" stop-color="#FEF9C8"/>
<stop offset="0.640625" stop-color="#C49530"/>
<stop offset="1" stop-color="#FFF8C4"/>
</linearGradient>
<clipPath id="clip0_294_10338">
<rect width="24" height="24" fill="white" transform="translate(0.801392)"/>
</clipPath>
</defs>
</svg>
