<svg width="25" height="24" viewBox="0 0 25 24" fill="none" xmlns="http://www.w3.org/2000/svg">
<path fill-rule="evenodd" clip-rule="evenodd" d="M1.69995 1.2002V18.0002H15.1321V16.8002H2.89995V2.4002H19.1V3.6722H20.2999V1.2002H1.69995ZM20.2999 7.20019C20.2999 7.51845 20.1735 7.82368 19.9485 8.04872C19.7234 8.27377 19.4182 8.4002 19.1 8.4002C18.7817 8.4002 18.4765 8.27377 18.2514 8.04872C18.0264 7.82368 17.9 7.51845 17.9 7.20019C17.9 6.88194 18.0264 6.57671 18.2514 6.35167C18.4765 6.12662 18.7817 6.0002 19.1 6.0002C19.4182 6.0002 19.7234 6.12662 19.9485 6.35167C20.1735 6.57671 20.2999 6.88194 20.2999 7.20019ZM21.5 7.20019C21.5 7.83671 21.2471 8.44716 20.797 8.89725C20.3469 9.34734 19.7365 9.60019 19.1 9.60019C18.4634 9.60019 17.853 9.34734 17.4029 8.89725C16.9528 8.44716 16.7 7.83671 16.7 7.20019C16.7 6.56368 16.9528 5.95323 17.4029 5.50314C17.853 5.05305 18.4634 4.8002 19.1 4.8002C19.7365 4.8002 20.3469 5.05305 20.797 5.50314C21.2471 5.95323 21.5 6.56368 21.5 7.20019Z" fill="url(#paint0_linear_306_2913)"/>
<path fill-rule="evenodd" clip-rule="evenodd" d="M16.1559 10.6982C16.4905 10.3788 16.9353 10.2004 17.3979 10.2002H19.8471C20.7255 10.2002 21.5433 10.499 22.1733 11.0942C22.7793 11.6666 23.0949 12.4004 23.2239 13.0958C23.4267 14.189 23.2167 15.3836 22.7001 16.4426V21.3002C22.7001 21.6766 22.5586 22.0393 22.3036 22.3162C22.0487 22.5931 21.6989 22.7641 21.3238 22.7951C20.9487 22.8262 20.5756 22.7151 20.2786 22.4838C19.9815 22.2526 19.7823 21.9181 19.7205 21.5468L19.4001 19.6244L19.0797 21.5468C19.0178 21.9181 18.8186 22.2526 18.5216 22.4838C18.2246 22.7151 17.8515 22.8262 17.4763 22.7951C17.1012 22.7641 16.7515 22.5931 16.4965 22.3162C16.2416 22.0393 16.1001 21.6766 16.1001 21.3002V15.656C15.8264 15.814 15.516 15.8972 15.2001 15.8972H12.1389C11.6615 15.8972 11.2036 15.7076 10.8661 15.37C10.5285 15.0324 10.3389 14.5746 10.3389 14.0972C10.3389 13.6198 10.5285 13.162 10.8661 12.8244C11.2036 12.4868 11.6615 12.2972 12.1389 12.2972H14.4789L16.1559 10.6976V10.6982ZM17.3001 17.6852V21.3002C17.3003 21.3753 17.3287 21.4477 17.3797 21.5029C17.4306 21.5581 17.5005 21.5922 17.5754 21.5984C17.6503 21.6045 17.7248 21.5824 17.7841 21.5363C17.8435 21.4902 17.8833 21.4235 17.8959 21.3494L18.5217 17.5958C18.545 17.4557 18.6172 17.3284 18.7255 17.2366C18.8338 17.1447 18.9712 17.0943 19.1133 17.0942H19.6869C19.8289 17.0943 19.9663 17.1447 20.0746 17.2366C20.1829 17.3284 20.2552 17.4557 20.2785 17.5958L20.9043 21.3494C20.9168 21.4235 20.9567 21.4902 21.016 21.5363C21.0754 21.5824 21.1499 21.6045 21.2248 21.5984C21.2997 21.5922 21.3695 21.5581 21.4205 21.5029C21.4715 21.4477 21.4999 21.3753 21.5001 21.3002V16.2998C21.5001 16.2037 21.5231 16.1091 21.5673 16.0238C22.0305 15.1298 22.1991 14.15 22.0443 13.3148C21.9501 12.8072 21.7299 12.326 21.3495 11.9666C20.9613 11.6 20.4465 11.4002 19.8471 11.4002H17.3985C17.2443 11.4002 17.0955 11.4596 16.9839 11.5658L15.1335 13.331C15.022 13.4375 14.8737 13.4971 14.7195 13.4972H12.1389C11.9797 13.4972 11.8271 13.5604 11.7146 13.6729C11.6021 13.7855 11.5389 13.9381 11.5389 14.0972C11.5389 14.2563 11.6021 14.4089 11.7146 14.5215C11.8271 14.634 11.9797 14.6972 12.1389 14.6972H15.2001C15.3543 14.6971 15.5026 14.6375 15.6141 14.531L16.2861 13.8902C16.3711 13.8091 16.478 13.7548 16.5936 13.734C16.7092 13.7132 16.8284 13.7267 16.9363 13.773C17.0443 13.8192 17.1363 13.8961 17.201 13.9942C17.2656 14.0923 17.3001 14.2071 17.3001 14.3246V17.6858V17.6852Z" fill="url(#paint1_linear_306_2913)"/>
<defs>
<linearGradient id="paint0_linear_306_2913" x1="11.5999" y1="-1.82381" x2="11.5999" y2="20.6882" gradientUnits="userSpaceOnUse">
<stop stop-color="#FACB30"/>
<stop offset="0.302269" stop-color="#FEF9C8"/>
<stop offset="0.640625" stop-color="#C49530"/>
<stop offset="1" stop-color="#FFF8C4"/>
</linearGradient>
<linearGradient id="paint1_linear_306_2913" x1="16.8195" y1="7.93218" x2="16.8195" y2="24.8163" gradientUnits="userSpaceOnUse">
<stop stop-color="#FACB30"/>
<stop offset="0.302269" stop-color="#FEF9C8"/>
<stop offset="0.640625" stop-color="#C49530"/>
<stop offset="1" stop-color="#FFF8C4"/>
</linearGradient>
</defs>
</svg>
