<svg width="32" height="24" viewBox="0 0 32 24" fill="none" xmlns="http://www.w3.org/2000/svg">
<g clip-path="url(#clip0_294_10423)">
<path fill-rule="evenodd" clip-rule="evenodd" d="M2.84658 0H28.998C30.1254 0 31.046 0.920615 31.046 2.048V21.952C31.046 23.0794 30.1254 24 28.998 24H2.84658C1.7192 24 0.798584 23.0794 0.798584 21.952V2.048C0.798584 0.920615 1.7192 0 2.84658 0ZM6.66935 20.1502C6.43551 20.1502 6.24843 19.9434 6.24843 19.6874C6.24843 19.4314 6.43797 19.2246 6.66935 19.2246H17.1407C17.3746 19.2246 17.5617 19.4314 17.5617 19.6874C17.5617 19.9434 17.3721 20.1502 17.1407 20.1502H6.66935ZM6.66935 17.9545C6.43551 17.9545 6.24843 17.7477 6.24843 17.4917C6.24843 17.2357 6.43797 17.0289 6.66935 17.0289H17.1407C17.3746 17.0289 17.5617 17.2357 17.5617 17.4917C17.5617 17.7477 17.3721 17.9545 17.1407 17.9545H6.66935ZM20.6509 20.1502C20.417 20.1502 20.23 19.9434 20.23 19.6874C20.23 19.4314 20.4195 19.2246 20.6509 19.2246H25.1752C25.409 19.2246 25.5961 19.4314 25.5961 19.6874C25.5961 19.9434 25.4066 20.1502 25.1752 20.1502H20.6509ZM20.4835 17.9545C20.2497 17.9545 20.0626 17.7477 20.0626 17.4917C20.0626 17.2357 20.2521 17.0289 20.4835 17.0289H25.0078C25.2417 17.0289 25.4287 17.2357 25.4287 17.4917C25.4287 17.7477 25.2392 17.9545 25.0078 17.9545H20.4835ZM19.0115 8.69169H21.3278L22.209 12.1502L23.0952 8.69169H25.4017V14.3754H23.9641V10.0431L22.8564 14.3754H21.5543L20.449 10.0431V14.3754H19.0115V8.69169ZM12.8626 14.3729V8.69169H15.7894C16.3309 8.69169 16.7469 8.73846 17.0324 8.832C17.3204 8.92554 17.5518 9.09785 17.7266 9.34892C17.9014 9.60246 17.99 9.91015 17.99 10.272C17.99 10.5871 17.9235 10.8603 17.7881 11.0892C17.6552 11.3182 17.4706 11.5052 17.2318 11.648C17.0817 11.7391 16.8749 11.8129 16.6164 11.872C16.8257 11.9409 16.9783 12.0098 17.0718 12.0812C17.1358 12.128 17.2294 12.2289 17.3524 12.3791C17.473 12.5317 17.5567 12.6498 17.5961 12.7311L18.4503 14.3729H16.4663L15.5284 12.64C15.4103 12.416 15.3044 12.2708 15.2109 12.2018C15.0829 12.1157 14.9401 12.0714 14.7801 12.0714H14.625V14.3729H12.8626ZM14.625 11.0006H15.366C15.4447 11.0006 15.6023 10.9735 15.8312 10.9218C15.9469 10.8997 16.0429 10.8406 16.1167 10.7422C16.1906 10.6462 16.2275 10.5354 16.2275 10.4123C16.2275 10.2277 16.1684 10.0874 16.0527 9.98892C15.937 9.89046 15.718 9.84123 15.3955 9.84123H14.6226V11.0006H14.625ZM10.438 12.0492L11.9764 12.5145C11.873 12.9452 11.7106 13.3071 11.4866 13.5951C11.265 13.8855 10.9894 14.1022 10.6595 14.2498C10.3297 14.3975 9.9112 14.4714 9.40166 14.4714C8.78381 14.4714 8.2792 14.3803 7.88535 14.2031C7.49397 14.0234 7.15674 13.7058 6.8712 13.2554C6.58566 12.8049 6.44289 12.224 6.44289 11.5225C6.44289 10.5822 6.69397 9.86092 7.19366 9.35631C7.69581 8.85169 8.40228 8.60062 9.31797 8.60062C10.0343 8.60062 10.598 8.74585 11.0066 9.03385C11.4152 9.32431 11.7204 9.76738 11.9198 10.368L10.374 10.7077C10.3198 10.5354 10.2632 10.4098 10.2041 10.3311C10.1057 10.1982 9.98505 10.0948 9.84228 10.0234C9.69951 9.94954 9.53951 9.91508 9.36474 9.91508C8.96597 9.91508 8.66074 10.0751 8.44905 10.3951C8.28905 10.6314 8.20781 11.0055 8.20781 11.5126C8.20781 12.1428 8.30381 12.5711 8.49581 12.8074C8.68781 13.0412 8.95612 13.1569 9.3032 13.1569C9.63797 13.1569 9.89397 13.0634 10.0663 12.8738C10.2337 12.6818 10.3592 12.4062 10.438 12.0492ZM29.8374 5.73292H2.10074V22.1514C2.10074 22.3089 2.16228 22.4468 2.26566 22.5526C2.36905 22.6585 2.50935 22.7175 2.66689 22.7175H29.2614C29.4189 22.7175 29.5567 22.656 29.6626 22.5526C29.7684 22.4468 29.8275 22.3089 29.8275 22.1514V5.73292H29.8374ZM27.0484 2.30154C27.6072 2.30154 28.0601 2.75446 28.0601 3.31323C28.0601 3.872 27.6072 4.32492 27.0484 4.32492C26.4897 4.32492 26.0367 3.872 26.0367 3.31323C26.0367 2.75446 26.4921 2.30154 27.0484 2.30154ZM20.1955 2.30154C20.7543 2.30154 21.2072 2.75446 21.2072 3.31323C21.2072 3.872 20.7543 4.32492 20.1955 4.32492C19.6367 4.32492 19.1838 3.872 19.1838 3.31323C19.1838 2.75446 19.6367 2.30154 20.1955 2.30154ZM23.622 2.30154C24.1807 2.30154 24.6337 2.75446 24.6337 3.31323C24.6337 3.872 24.1807 4.32492 23.622 4.32492C23.0632 4.32492 22.6103 3.872 22.6103 3.31323C22.6103 2.75446 23.0632 2.30154 23.622 2.30154Z" fill="url(#paint0_linear_294_10423)"/>
</g>
<defs>
<linearGradient id="paint0_linear_294_10423" x1="15.9222" y1="-4.32" x2="15.9222" y2="27.84" gradientUnits="userSpaceOnUse">
<stop stop-color="#FACB30"/>
<stop offset="0.302269" stop-color="#FEF9C8"/>
<stop offset="0.640625" stop-color="#C49530"/>
<stop offset="1" stop-color="#FFF8C4"/>
</linearGradient>
<clipPath id="clip0_294_10423">
<rect width="30.2474" height="24" fill="white" transform="translate(0.798584)"/>
</clipPath>
</defs>
</svg>
