<svg width="35" height="35" viewBox="0 0 35 35" fill="none" xmlns="http://www.w3.org/2000/svg">
<g clip-path="url(#clip0_207_6)">
<path d="M18.44 34.68C17.4551 34.6796 16.4719 34.5994 15.5 34.44C10.7462 33.6599 6.49633 31.0249 3.68386 27.1137C0.871391 23.2025 -0.273725 18.3349 0.500016 13.58C0.932987 10.8732 1.97648 8.30035 3.55142 6.05663C5.12635 3.81292 7.19139 1.95717 9.59002 0.630036C9.99469 0.403927 10.4558 0.298803 10.9185 0.327167C11.3812 0.355531 11.826 0.51619 12.2 0.790036C12.5823 1.05162 12.8804 1.41867 13.0579 1.84653C13.2354 2.27439 13.2848 2.74463 13.2 3.20004L11.9 3.10004L13.13 3.32004C12.4361 7.00102 13.0845 10.8088 14.9578 14.0526C16.831 17.2964 19.805 19.7613 23.34 21C26.0624 21.9448 28.9911 22.1281 31.81 21.53C32.2561 21.4425 32.7177 21.4813 33.1429 21.6421C33.568 21.8028 33.9399 22.0792 34.2164 22.4399C34.493 22.8007 34.6632 23.2315 34.708 23.6838C34.7528 24.1362 34.6704 24.592 34.47 25C32.9277 27.916 30.621 30.3575 27.7972 32.0627C24.9734 33.7679 21.7388 34.6727 18.44 34.68V34.68ZM10.67 2.89004C8.75731 3.97458 7.09425 5.44952 5.78897 7.21896C4.48369 8.9884 3.5654 11.0127 3.09381 13.1604C2.62222 15.308 2.60788 17.5308 3.05173 19.6844C3.49558 21.8379 4.38767 23.8739 5.67002 25.66C7.21562 27.8205 9.28541 29.5524 11.6847 30.6926C14.084 31.8328 16.7339 32.344 19.3851 32.178C22.0364 32.0119 24.6018 31.1742 26.8401 29.7436C29.0784 28.313 30.916 26.3365 32.18 24C28.9635 24.6466 25.6329 24.4257 22.53 23.36C18.4358 21.9245 14.99 19.0721 12.8149 15.3181C10.6399 11.564 9.87914 7.15593 10.67 2.89004V2.89004Z" fill="#7C7A7A"/>
</g>
<defs>
<clipPath id="clip0_207_6">
<rect width="35" height="35" fill="white"/>
</clipPath>
</defs>
</svg>
