<svg width="25" height="24" viewBox="0 0 25 24" fill="none" xmlns="http://www.w3.org/2000/svg">
<g clip-path="url(#clip0_294_10363)">
<path d="M16.8915 11.976L23.0425 6.632V17.259L16.8915 11.976ZM8.96547 12.881L11.1255 14.756C11.4645 15.044 11.9065 15.218 12.3895 15.218H12.4065H12.4055H12.4195C12.9035 15.218 13.3455 15.043 13.6885 14.753L13.6855 14.755L15.8455 12.88L22.4115 18.519H2.40247L8.96547 12.881ZM2.39347 5.365H22.4235L12.8025 13.721C12.6943 13.8066 12.5604 13.8531 12.4225 13.853H12.4085H12.4095H12.3955C12.2571 13.8532 12.1227 13.8063 12.0145 13.72L12.0155 13.721L2.39347 5.365ZM1.77247 6.631L7.92247 11.975L1.77247 17.255V6.631ZM23.3725 4.19C23.1325 4.07 22.8505 4 22.5515 4H2.26647C1.97663 4.00007 1.69078 4.06751 1.43147 4.197L1.44247 4.192C1.13204 4.34511 0.870618 4.58198 0.687725 4.87585C0.504831 5.16971 0.407758 5.50887 0.407471 5.855V18.027C0.408 18.5196 0.603923 18.9919 0.952251 19.3402C1.30058 19.6885 1.77286 19.8845 2.26547 19.885H22.5485C23.0411 19.8845 23.5134 19.6885 23.8617 19.3402C24.21 18.9919 24.4059 18.5196 24.4065 18.027V5.855C24.4065 5.128 23.9875 4.498 23.3775 4.195L23.3665 4.19H23.3725Z" fill="url(#paint0_linear_294_10363)"/>
</g>
<defs>
<linearGradient id="paint0_linear_294_10363" x1="12.4069" y1="1.1407" x2="12.4069" y2="22.4266" gradientUnits="userSpaceOnUse">
<stop stop-color="#FACB30"/>
<stop offset="0.302269" stop-color="#FEF9C8"/>
<stop offset="0.640625" stop-color="#C49530"/>
<stop offset="1" stop-color="#FFF8C4"/>
</linearGradient>
<clipPath id="clip0_294_10363">
<rect width="24" height="24" fill="white" transform="translate(0.407471)"/>
</clipPath>
</defs>
</svg>
