<svg width="25" height="24" viewBox="0 0 25 24" fill="none" xmlns="http://www.w3.org/2000/svg">
<g clip-path="url(#clip0_306_2935)">
<path d="M5.75 0C5.94891 0 6.13968 0.0790176 6.28033 0.21967C6.42098 0.360322 6.5 0.551088 6.5 0.75V1.5H18.5V0.75C18.5 0.551088 18.579 0.360322 18.7197 0.21967C18.8603 0.0790176 19.0511 0 19.25 0C19.4489 0 19.6397 0.0790176 19.7803 0.21967C19.921 0.360322 20 0.551088 20 0.75V1.5H21.5C22.2956 1.5 23.0587 1.81607 23.6213 2.37868C24.1839 2.94129 24.5 3.70435 24.5 4.5V21C24.5 21.7956 24.1839 22.5587 23.6213 23.1213C23.0587 23.6839 22.2956 24 21.5 24H3.5C2.70435 24 1.94129 23.6839 1.37868 23.1213C0.816071 22.5587 0.5 21.7956 0.5 21V4.5C0.5 3.70435 0.816071 2.94129 1.37868 2.37868C1.94129 1.81607 2.70435 1.5 3.5 1.5H5V0.75C5 0.551088 5.07902 0.360322 5.21967 0.21967C5.36032 0.0790176 5.55109 0 5.75 0V0ZM3.5 3C3.10218 3 2.72064 3.15804 2.43934 3.43934C2.15804 3.72064 2 4.10218 2 4.5V21C2 21.3978 2.15804 21.7794 2.43934 22.0607C2.72064 22.342 3.10218 22.5 3.5 22.5H21.5C21.8978 22.5 22.2794 22.342 22.5607 22.0607C22.842 21.7794 23 21.3978 23 21V4.5C23 4.10218 22.842 3.72064 22.5607 3.43934C22.2794 3.15804 21.8978 3 21.5 3H3.5Z" fill="url(#paint0_linear_306_2935)"/>
<path d="M4.5 5.25C4.5 5.1837 4.57662 5.12011 4.71301 5.07322C4.8494 5.02634 5.03439 5 5.22727 5H19.7727C19.9656 5 20.1506 5.02634 20.287 5.07322C20.4234 5.12011 20.5 5.1837 20.5 5.25V5.75C20.5 5.8163 20.4234 5.87989 20.287 5.92678C20.1506 5.97366 19.9656 6 19.7727 6H5.22727C5.03439 6 4.8494 5.97366 4.71301 5.92678C4.57662 5.87989 4.5 5.8163 4.5 5.75V5.25Z" fill="url(#paint1_linear_306_2935)"/>
<path d="M4.5 7.25C4.5 7.1837 4.57662 7.12011 4.71301 7.07322C4.8494 7.02634 5.03439 7 5.22727 7H19.7727C19.9656 7 20.1506 7.02634 20.287 7.07322C20.4234 7.12011 20.5 7.1837 20.5 7.25V7.75C20.5 7.8163 20.4234 7.87989 20.287 7.92678C20.1506 7.97366 19.9656 8 19.7727 8H5.22727C5.03439 8 4.8494 7.97366 4.71301 7.92678C4.57662 7.87989 4.5 7.8163 4.5 7.75V7.25Z" fill="url(#paint2_linear_306_2935)"/>
<path d="M4.00459 12.506V14.333H5.85959V14.739H4.00459V16.594H6.06959V17H3.51459V12.1H6.06959V12.506H4.00459ZM10.9131 12.107L9.0581 17H8.4981L6.6431 12.107H7.1751L8.7781 16.468L10.3951 12.107H10.9131ZM12.1394 12.506V14.333H13.9944V14.739H12.1394V16.594H14.2044V17H11.6494V12.1H14.2044V12.506H12.1394ZM18.8589 17H18.3689L15.6599 12.884V17H15.1699V12.107H15.6599L18.3689 16.216V12.107H18.8589V17ZM22.8317 12.107V12.513H21.4737V17H20.9837V12.513H19.6187V12.107H22.8317Z" fill="url(#paint3_linear_306_2935)"/>
</g>
<defs>
<linearGradient id="paint0_linear_306_2935" x1="12.5" y1="-4.32" x2="12.5" y2="27.84" gradientUnits="userSpaceOnUse">
<stop stop-color="#FACB30"/>
<stop offset="0.302269" stop-color="#FEF9C8"/>
<stop offset="0.640625" stop-color="#C49530"/>
<stop offset="1" stop-color="#FFF8C4"/>
</linearGradient>
<linearGradient id="paint1_linear_306_2935" x1="12.5" y1="4.82" x2="12.5" y2="6.16" gradientUnits="userSpaceOnUse">
<stop stop-color="#FACB30"/>
<stop offset="0.302269" stop-color="#FEF9C8"/>
<stop offset="0.640625" stop-color="#C49530"/>
<stop offset="1" stop-color="#FFF8C4"/>
</linearGradient>
<linearGradient id="paint2_linear_306_2935" x1="12.5" y1="6.82" x2="12.5" y2="8.16" gradientUnits="userSpaceOnUse">
<stop stop-color="#FACB30"/>
<stop offset="0.302269" stop-color="#FEF9C8"/>
<stop offset="0.640625" stop-color="#C49530"/>
<stop offset="1" stop-color="#FFF8C4"/>
</linearGradient>
<linearGradient id="paint3_linear_306_2935" x1="13" y1="7.02" x2="13" y2="21.76" gradientUnits="userSpaceOnUse">
<stop stop-color="#FACB30"/>
<stop offset="0.302269" stop-color="#FEF9C8"/>
<stop offset="0.640625" stop-color="#C49530"/>
<stop offset="1" stop-color="#FFF8C4"/>
</linearGradient>
<clipPath id="clip0_306_2935">
<rect width="24" height="24" fill="white" transform="translate(0.5)"/>
</clipPath>
</defs>
</svg>
