<svg width="25" height="24" viewBox="0 0 25 24" fill="none" xmlns="http://www.w3.org/2000/svg">
<g clip-path="url(#clip0_294_10396)">
<path d="M5.56641 0C5.76532 0 5.95608 0.0790176 6.09674 0.21967C6.23739 0.360322 6.31641 0.551088 6.31641 0.75V1.5H18.3164V0.75C18.3164 0.551088 18.3954 0.360322 18.5361 0.21967C18.6767 0.0790176 18.8675 0 19.0664 0C19.2653 0 19.4561 0.0790176 19.5967 0.21967C19.7374 0.360322 19.8164 0.551088 19.8164 0.75V1.5H21.3164C22.1121 1.5 22.8751 1.81607 23.4377 2.37868C24.0003 2.94129 24.3164 3.70435 24.3164 4.5V21C24.3164 21.7956 24.0003 22.5587 23.4377 23.1213C22.8751 23.6839 22.1121 24 21.3164 24H3.31641C2.52076 24 1.7577 23.6839 1.19509 23.1213C0.632477 22.5587 0.316406 21.7956 0.316406 21V4.5C0.316406 3.70435 0.632477 2.94129 1.19509 2.37868C1.7577 1.81607 2.52076 1.5 3.31641 1.5H4.81641V0.75C4.81641 0.551088 4.89542 0.360322 5.03608 0.21967C5.17673 0.0790176 5.36749 0 5.56641 0V0ZM3.31641 3C2.91858 3 2.53705 3.15804 2.25575 3.43934C1.97444 3.72064 1.81641 4.10218 1.81641 4.5V21C1.81641 21.3978 1.97444 21.7794 2.25575 22.0607C2.53705 22.342 2.91858 22.5 3.31641 22.5H21.3164C21.7142 22.5 22.0958 22.342 22.3771 22.0607C22.6584 21.7794 22.8164 21.3978 22.8164 21V4.5C22.8164 4.10218 22.6584 3.72064 22.3771 3.43934C22.0958 3.15804 21.7142 3 21.3164 3H3.31641Z" fill="url(#paint0_linear_294_10396)"/>
<path d="M4.31641 5.25C4.31641 5.1837 4.39303 5.12011 4.52942 5.07322C4.66581 5.02634 4.85079 5 5.04368 5H19.5891C19.782 5 19.967 5.02634 20.1034 5.07322C20.2398 5.12011 20.3164 5.1837 20.3164 5.25V5.75C20.3164 5.8163 20.2398 5.87989 20.1034 5.92678C19.967 5.97366 19.782 6 19.5891 6H5.04368C4.85079 6 4.66581 5.97366 4.52942 5.92678C4.39303 5.87989 4.31641 5.8163 4.31641 5.75V5.25Z" fill="url(#paint1_linear_294_10396)"/>
<path d="M4.31641 7.25C4.31641 7.1837 4.39303 7.12011 4.52942 7.07322C4.66581 7.02634 4.85079 7 5.04368 7H19.5891C19.782 7 19.967 7.02634 20.1034 7.07322C20.2398 7.12011 20.3164 7.1837 20.3164 7.25V7.75C20.3164 7.8163 20.2398 7.87989 20.1034 7.92678C19.967 7.97366 19.782 8 19.5891 8H5.04368C4.85079 8 4.66581 7.97366 4.52942 7.92678C4.39303 7.87989 4.31641 7.8163 4.31641 7.75V7.25Z" fill="url(#paint2_linear_294_10396)"/>
<path d="M3.4642 12.352V14.403H5.4242V14.669H3.4642V16.734H5.6342V17H3.1492V12.086H5.6342V12.352H3.4642ZM10.2977 12.086L8.42167 17H8.07167L6.20267 12.086H6.54567L8.24667 16.629L9.96167 12.086H10.2977ZM11.3734 12.352V14.403H13.3334V14.669H11.3734V16.734H13.5434V17H11.0584V12.086H13.5434V12.352H11.3734ZM18.0109 17H17.6959L14.8119 12.604V17H14.4969V12.093H14.8119L17.6959 16.475V12.093H18.0109V17ZM21.8818 12.086V12.352H20.4818V17H20.1668V12.352H18.7668V12.086H21.8818Z" fill="url(#paint3_linear_294_10396)"/>
</g>
<defs>
<linearGradient id="paint0_linear_294_10396" x1="12.3164" y1="-4.32" x2="12.3164" y2="27.84" gradientUnits="userSpaceOnUse">
<stop stop-color="#FACB30"/>
<stop offset="0.302269" stop-color="#FEF9C8"/>
<stop offset="0.640625" stop-color="#C49530"/>
<stop offset="1" stop-color="#FFF8C4"/>
</linearGradient>
<linearGradient id="paint1_linear_294_10396" x1="12.3164" y1="4.82" x2="12.3164" y2="6.16" gradientUnits="userSpaceOnUse">
<stop stop-color="#FACB30"/>
<stop offset="0.302269" stop-color="#FEF9C8"/>
<stop offset="0.640625" stop-color="#C49530"/>
<stop offset="1" stop-color="#FFF8C4"/>
</linearGradient>
<linearGradient id="paint2_linear_294_10396" x1="12.3164" y1="6.82" x2="12.3164" y2="8.16" gradientUnits="userSpaceOnUse">
<stop stop-color="#FACB30"/>
<stop offset="0.302269" stop-color="#FEF9C8"/>
<stop offset="0.640625" stop-color="#C49530"/>
<stop offset="1" stop-color="#FFF8C4"/>
</linearGradient>
<linearGradient id="paint3_linear_294_10396" x1="12.3164" y1="7.02" x2="12.3164" y2="21.76" gradientUnits="userSpaceOnUse">
<stop stop-color="#FACB30"/>
<stop offset="0.302269" stop-color="#FEF9C8"/>
<stop offset="0.640625" stop-color="#C49530"/>
<stop offset="1" stop-color="#FFF8C4"/>
</linearGradient>
<clipPath id="clip0_294_10396">
<rect width="24" height="24" fill="white" transform="translate(0.316406)"/>
</clipPath>
</defs>
</svg>
