<svg width="133" height="136" viewBox="0 0 133 136" fill="none" xmlns="http://www.w3.org/2000/svg">
<g filter="url(#filter0_dd_2234_3667)">
<path d="M23.9391 123.539H109.061C115.353 123.539 120.453 118.44 120.453 112.15V24.3493C120.453 18.0586 115.353 12.9598 109.061 12.9598H23.9391C17.6472 12.9598 12.5473 18.0586 12.5473 24.3493V112.15C12.5473 118.44 17.6472 123.539 23.9391 123.539Z" fill="#EFF4F8"/>
<path d="M78.7768 107.908C75.2918 97.7509 81.8193 80.4048 89.4797 84.7372C97.32 89.0916 102.063 100.227 101.503 107.908H78.7768Z" fill="#FFA599"/>
<path d="M54.3176 107.908C57.8026 97.7509 51.2769 80.4048 43.6166 84.7372C35.7744 89.0916 31.0335 100.227 31.5917 107.908H54.3176Z" fill="#FFA599"/>
<path d="M42.2542 86.3896C41.1562 75.5238 39.2411 31.3682 66.2856 31.3682C93.5559 31.3682 91.0734 75.2612 90.1535 85.547L42.2542 86.3896" fill="#0E0E0E"/>
<path d="M90.7853 85.7809C81.2025 78.6379 50.6198 78.4635 41.6447 86.2178L41.5235 107.97H90.9028L90.7853 85.7809" fill="white"/>
<path d="M74.4015 80.6988C74.4015 80.6988 85.6515 87.5077 78.9551 93.8007C73.4026 99.0197 65.2961 91.2471 65.2961 91.2471L74.4015 80.6988Z" fill="#1C1C1C"/>
<path d="M58.7612 80.5893C58.7612 80.5893 47.5111 87.3963 54.2094 93.6911C59.7618 98.9083 67.8684 91.1375 67.8684 91.1375L58.7612 80.5893Z" fill="#1C1C1C"/>
<path d="M57.6392 87.5659C57.6392 93.8075 75.4497 93.8075 75.4497 87.5659L74.506 77.9557L73.8853 71.7049H59.1723L58.1698 82.0843L57.6392 87.5659Z" fill="#FFA599"/>
<path d="M58.17 82.083L74.5061 77.9544L73.8855 71.7036H59.1725L58.17 82.083" fill="#E87C5D"/>
<path d="M48.0325 54.7035C47.4798 67.7576 55.5055 78.3408 65.955 78.3408C76.4026 78.3408 84.4284 67.7576 83.8776 54.7035C83.3579 42.4057 75.345 32.9479 65.955 32.9479C56.5632 32.9479 48.5503 42.4057 48.0325 54.7035Z" fill="#FFA599"/>
<path d="M85.9856 53.249H46.1818C46.1818 53.249 48.1923 31.3686 66.2857 31.3686C84.3771 31.3686 85.9856 53.249 85.9856 53.249" fill="#0E0E0E"/>
<path d="M81.632 79.2998H86.6557C90.3886 79.2998 93.4255 76.2653 93.4255 72.5332V67.327H91.549V72.5332C91.549 75.2299 89.3548 77.4255 86.6557 77.4255H81.632V79.2998Z" fill="#FC941A"/>
<path d="M47.0925 79.2998H52.0042V77.4255H47.0925C44.3952 77.4255 42.1992 75.2299 42.1992 72.5332V67.1471H40.3244V72.5332C40.3244 76.2653 43.3614 79.2998 47.0925 79.2998Z" fill="#FC941A"/>
<path d="M40.3246 40.3887H42.1993V35.7277C42.1993 33.0291 44.3953 30.8354 47.0926 30.8354H51.8225V28.9592H47.0926C43.3616 28.9592 40.3246 31.9956 40.3246 35.7277V40.3887Z" fill="#FC941A"/>
<path d="M91.549 41.2939H93.4255V35.7279C93.4255 31.9958 90.3886 28.9595 86.6557 28.9595H81.812V30.8356H86.6557C89.3548 30.8356 91.549 33.0294 91.549 35.7279V41.2939Z" fill="#FC941A"/>
</g>
<defs>
<filter id="filter0_dd_2234_3667" x="0.547363" y="0.959961" width="131.905" height="134.579" filterUnits="userSpaceOnUse" color-interpolation-filters="sRGB">
<feFlood flood-opacity="0" result="BackgroundImageFix"/>
<feColorMatrix in="SourceAlpha" type="matrix" values="0 0 0 0 0 0 0 0 0 0 0 0 0 0 0 0 0 0 127 0" result="hardAlpha"/>
<feOffset dx="-4" dy="-4"/>
<feGaussianBlur stdDeviation="4"/>
<feComposite in2="hardAlpha" operator="out"/>
<feColorMatrix type="matrix" values="0 0 0 0 1 0 0 0 0 1 0 0 0 0 1 0 0 0 1 0"/>
<feBlend mode="normal" in2="BackgroundImageFix" result="effect1_dropShadow_2234_3667"/>
<feColorMatrix in="SourceAlpha" type="matrix" values="0 0 0 0 0 0 0 0 0 0 0 0 0 0 0 0 0 0 127 0" result="hardAlpha"/>
<feOffset dx="4" dy="4"/>
<feGaussianBlur stdDeviation="4"/>
<feComposite in2="hardAlpha" operator="out"/>
<feColorMatrix type="matrix" values="0 0 0 0 0.718924 0 0 0 0 0.780295 0 0 0 0 0.841667 0 0 0 1 0"/>
<feBlend mode="normal" in2="effect1_dropShadow_2234_3667" result="effect2_dropShadow_2234_3667"/>
<feBlend mode="normal" in="SourceGraphic" in2="effect2_dropShadow_2234_3667" result="shape"/>
</filter>
</defs>
</svg>
