<svg width="22" height="24" viewBox="0 0 22 24" fill="none" xmlns="http://www.w3.org/2000/svg">
<path d="M16.25 6V5.25C16.25 3.85761 15.6969 2.52226 14.7123 1.53769C13.7277 0.553123 12.3924 0 11 0C9.60761 0 8.27226 0.553123 7.28769 1.53769C6.30312 2.52226 5.75 3.85761 5.75 5.25V6H0.5V21C0.5 21.7956 0.816071 22.5587 1.37868 23.1213C1.94129 23.6839 2.70435 24 3.5 24H18.5C19.2956 24 20.0587 23.6839 20.6213 23.1213C21.1839 22.5587 21.5 21.7956 21.5 21V6H16.25ZM11 1.5C11.9946 1.5 12.9484 1.89509 13.6517 2.59835C14.3549 3.30161 14.75 4.25544 14.75 5.25V6H7.25V5.25C7.25 4.25544 7.64509 3.30161 8.34835 2.59835C9.05161 1.89509 10.0054 1.5 11 1.5V1.5ZM11 11.9895C13.496 9.423 19.7375 13.914 11 19.6875C2.2625 13.9125 8.504 9.423 11 11.9895Z" fill="url(#paint0_linear_306_2899)"/>
<defs>
<linearGradient id="paint0_linear_306_2899" x1="11" y1="-4.32" x2="11" y2="27.84" gradientUnits="userSpaceOnUse">
<stop stop-color="#FACB30"/>
<stop offset="0.302269" stop-color="#FEF9C8"/>
<stop offset="0.640625" stop-color="#C49530"/>
<stop offset="1" stop-color="#FFF8C4"/>
</linearGradient>
</defs>
</svg>
