<svg width="95" height="95" viewBox="0 0 95 95" fill="none" xmlns="http://www.w3.org/2000/svg">
<g filter="url(#filter0_dd_2234_3037)">
<circle cx="47.5" cy="47.96" r="35" fill="#EFF4F8"/>
<path d="M47.531 37.1141C47.1453 37.1141 46.8326 37.4268 46.8326 37.8126V45.2627C46.8326 46.4182 47.7726 47.3581 48.9279 47.3581C50.0833 47.3581 51.0233 46.4182 51.0233 45.2627V37.8126C51.0233 35.8869 49.4568 34.3203 47.5311 34.3203C45.6054 34.3203 44.0388 35.8869 44.0388 37.8126V45.2627C44.0388 47.9587 46.2321 50.1519 48.9279 50.1519C51.6238 50.1519 53.8171 47.9586 53.8171 45.2627V40.6064C53.8171 40.2207 53.5044 39.908 53.1186 39.908C52.7328 39.908 52.4202 40.2207 52.4202 40.6064V45.2627C52.4202 47.1884 50.8536 48.755 48.9279 48.755C47.0022 48.755 45.4357 47.1884 45.4357 45.2627V37.8126C45.4357 36.6571 46.3756 35.7172 47.5311 35.7172C48.6864 35.7172 49.6265 36.6571 49.6265 37.8126V45.2627C49.6265 45.6479 49.3131 45.9612 48.928 45.9612C48.5428 45.9612 48.2296 45.6478 48.2296 45.2627V37.8126C48.2294 37.4268 47.9168 37.1141 47.531 37.1141Z" fill="url(#paint0_linear_2234_3037)"/>
<path d="M47.5311 31.5165C44.0649 31.5165 41.245 34.3364 41.245 37.8026V45.2527C41.245 49.4891 44.6915 52.9357 48.9279 52.9357C53.1643 52.9357 56.6109 49.4891 56.6109 45.2527V37.8026C56.6109 32.7959 52.5377 28.7227 47.531 28.7227C42.5243 28.7227 38.4512 32.7959 38.4512 37.803L38.4541 42.6928C38.4542 43.0784 38.7669 43.3909 39.1525 43.3909C39.5386 43.3907 39.8511 43.0778 39.8509 42.692L39.848 37.8026C39.848 33.5661 43.2946 30.1196 47.531 30.1196C51.7673 30.1196 55.2139 33.5661 55.2139 37.8026V45.2527C55.2139 48.7189 52.394 51.5388 48.9279 51.5388C45.4617 51.5388 42.6418 48.7189 42.6418 45.2527V37.8026C42.6418 35.1066 44.835 32.9134 47.5309 32.9134C50.2268 32.9134 52.42 35.1067 52.42 37.8026C52.42 38.1883 52.7326 38.501 53.1185 38.501C53.5043 38.501 53.8169 38.1883 53.8169 37.8026C53.8171 34.3364 50.9973 31.5165 47.5311 31.5165Z" fill="url(#paint1_linear_2234_3037)"/>
<path d="M33.562 38.5065C33.9477 38.5065 34.2604 38.1938 34.2604 37.8081C34.2604 30.4906 40.2135 24.5375 47.531 24.5375C54.8485 24.5375 60.8016 30.4906 60.8016 37.8081V41.3469C60.8016 41.7321 60.4883 42.0454 60.1031 42.0454C59.718 42.0454 59.4047 41.732 59.4047 41.3469V37.8081C59.4047 31.2609 54.0782 25.9344 47.531 25.9344C40.9837 25.9344 35.6573 31.2608 35.6573 37.8081V45.2582C35.6573 52.5757 41.6104 58.5288 48.9278 58.5288C56.2453 58.5288 62.1984 52.5757 62.1984 45.2582C62.1984 44.8725 61.8858 44.5598 61.5 44.5598C61.1142 44.5598 60.8016 44.8725 60.8016 45.2582C60.8016 51.8055 55.4751 57.132 48.9278 57.132C42.3806 57.132 37.0541 51.8055 37.0541 45.2582V37.8081C37.0541 32.0312 41.754 27.3313 47.5309 27.3313C53.3077 27.3313 58.0077 32.0312 58.0077 37.8081V41.3469C58.0077 42.5024 58.9477 43.4423 60.103 43.4423C61.2584 43.4423 62.1984 42.5024 62.1984 41.3469V37.8081C62.1984 29.7204 55.6186 23.1406 47.531 23.1406C39.4433 23.1406 32.8635 29.7204 32.8635 37.808C32.8635 38.1937 33.1762 38.5065 33.562 38.5065Z" fill="url(#paint2_linear_2234_3037)"/>
<path d="M48.9278 59.9246C40.8401 59.9246 34.2604 53.3448 34.2604 45.2571V40.6008C34.2604 40.2151 33.9477 39.9023 33.562 39.9023C33.1762 39.9023 32.8635 40.2151 32.8635 40.6008V45.2571C32.8635 54.1151 40.07 61.3215 48.9279 61.3215C49.3137 61.3215 49.6264 61.0088 49.6264 60.6231C49.6264 60.2373 49.3137 59.9246 48.9278 59.9246Z" fill="url(#paint3_linear_2234_3037)"/>
<path d="M48.9279 55.7387C54.7048 55.7387 59.4046 51.0388 59.4046 45.2619C59.4046 44.8762 59.092 44.5635 58.7062 44.5635C58.3204 44.5635 58.0078 44.8762 58.0078 45.2619C58.0078 50.2686 53.9345 54.3418 48.9279 54.3418C43.9212 54.3418 39.848 50.2686 39.848 45.2619C39.848 44.8762 39.5353 44.5635 39.1496 44.5635C38.7639 44.5635 38.4512 44.8762 38.4512 45.2619C38.4511 51.0389 43.1509 55.7387 48.9279 55.7387Z" fill="url(#paint4_linear_2234_3037)"/>
<mask id="mask0_2234_3037" style="mask-type:alpha" maskUnits="userSpaceOnUse" x="12" y="12" width="71" height="71">
<circle cx="47.5" cy="47.96" r="35" fill="#E5E9ED"/>
</mask>
<g mask="url(#mask0_2234_3037)">
<path d="M37.5484 56.7105L29.5679 61.3181C29.4749 61.3717 29.3686 61.3979 29.2612 61.3937C29.1539 61.3896 29.05 61.3552 28.9614 61.2945C28.8727 61.2339 28.8031 61.1494 28.7603 61.0509C28.7176 60.9523 28.7036 60.8437 28.7199 60.7376C29.2747 57.1294 27.4472 54.2216 27.4286 54.1922C27.3082 53.9789 27.1468 53.7915 26.9537 53.6407C26.7607 53.49 26.5397 53.3789 26.3036 53.3138C26.0674 53.2487 25.8207 53.2309 25.5777 53.2614C25.3346 53.292 25.1 53.3702 24.8873 53.4917C24.2119 53.8816 24.346 54.7649 24.4024 55.0247L24.5227 55.5659C25.2093 58.6186 24.5781 65.5525 18.0798 67.9482L17.8724 68.068C17.6564 68.1927 17.4988 68.3981 17.4342 68.639C17.3697 68.8799 17.4035 69.1366 17.5282 69.3526L24.2818 81.0502C24.4065 81.2662 24.6119 81.4238 24.8528 81.4884C25.0938 81.5529 25.3505 81.5191 25.5665 81.3944L30.2766 78.675C31.6183 77.8993 33.0866 77.3669 34.6137 77.1024L35.6523 76.9205C36.6766 76.7429 37.6616 76.3858 38.5617 75.8655L42.4724 73.6077C43.2749 73.1444 43.6209 72.1636 43.2608 71.3749C43.1626 71.157 43.0199 70.9621 42.8417 70.8027C42.6636 70.6434 42.454 70.5232 42.2265 70.4498C41.999 70.3765 41.7587 70.3517 41.5211 70.377C41.2834 70.4023 41.0537 70.4772 40.8467 70.5968L39.8769 71.1567C39.7505 71.232 39.6002 71.2567 39.4563 71.2257C39.3124 71.1947 39.1856 71.1104 39.1013 70.9897C39.0581 70.9248 39.0286 70.8518 39.0146 70.7751C39.0007 70.6984 39.0027 70.6197 39.0204 70.5438C39.0381 70.4678 39.0712 70.3964 39.1176 70.3338C39.164 70.2711 39.2228 70.2187 39.2903 70.1797L41.671 68.8052C42.4778 68.3419 42.8221 67.3612 42.4592 66.5734C42.361 66.3555 42.2183 66.1605 42.0401 66.0012C41.862 65.8418 41.6524 65.7216 41.4249 65.6483C41.1975 65.575 40.9571 65.5502 40.7195 65.5755C40.4818 65.6008 40.2521 65.6756 40.0452 65.7952L39.0753 66.3551C38.9489 66.4305 38.7986 66.4551 38.6547 66.4241C38.5108 66.3931 38.384 66.3088 38.2997 66.1881C38.2565 66.1233 38.227 66.0502 38.2131 65.9736C38.1991 65.8969 38.2011 65.8181 38.2188 65.7422C38.2365 65.6663 38.2696 65.5948 38.316 65.5322C38.3624 65.4696 38.4212 65.4172 38.4887 65.3782L41.365 63.7175C42.1676 63.2542 42.5135 62.2734 42.1534 61.4847C42.0553 61.2668 41.9125 61.0719 41.7344 60.9125C41.5562 60.7532 41.3467 60.633 41.1192 60.5597C40.8917 60.4863 40.6514 60.4615 40.4137 60.4868C40.176 60.5121 39.9463 60.587 39.7394 60.7066L38.7714 61.2654C38.645 61.3407 38.4947 61.3654 38.3508 61.3344C38.2069 61.3034 38.0801 61.2191 37.9959 61.0984C37.9526 61.0335 37.9231 60.9605 37.9092 60.8838C37.8952 60.8071 37.8972 60.7284 37.9149 60.6525C37.9326 60.5766 37.9657 60.5051 38.0121 60.4425C38.0586 60.3799 38.1173 60.3274 38.1848 60.2884L39.1703 59.7195C39.9729 59.2561 40.3188 58.2753 39.9587 57.4867C39.8606 57.2687 39.7178 57.0738 39.5397 56.9145C39.3615 56.7551 39.152 56.6349 38.9245 56.5616C38.697 56.4882 38.4567 56.4634 38.219 56.4887C37.9814 56.514 37.7516 56.5889 37.5447 56.7085L37.5484 56.7105Z" fill="#1C1C1C"/>
</g>
</g>
<defs>
<filter id="filter0_dd_2234_3037" x="0.5" y="0.959961" width="94" height="94" filterUnits="userSpaceOnUse" color-interpolation-filters="sRGB">
<feFlood flood-opacity="0" result="BackgroundImageFix"/>
<feColorMatrix in="SourceAlpha" type="matrix" values="0 0 0 0 0 0 0 0 0 0 0 0 0 0 0 0 0 0 127 0" result="hardAlpha"/>
<feOffset dx="-4" dy="-4"/>
<feGaussianBlur stdDeviation="4"/>
<feComposite in2="hardAlpha" operator="out"/>
<feColorMatrix type="matrix" values="0 0 0 0 1 0 0 0 0 1 0 0 0 0 1 0 0 0 1 0"/>
<feBlend mode="normal" in2="BackgroundImageFix" result="effect1_dropShadow_2234_3037"/>
<feColorMatrix in="SourceAlpha" type="matrix" values="0 0 0 0 0 0 0 0 0 0 0 0 0 0 0 0 0 0 127 0" result="hardAlpha"/>
<feOffset dx="4" dy="4"/>
<feGaussianBlur stdDeviation="4"/>
<feComposite in2="hardAlpha" operator="out"/>
<feColorMatrix type="matrix" values="0 0 0 0 0.718924 0 0 0 0 0.780295 0 0 0 0 0.841667 0 0 0 1 0"/>
<feBlend mode="normal" in2="effect1_dropShadow_2234_3037" result="effect2_dropShadow_2234_3037"/>
<feBlend mode="normal" in="SourceGraphic" in2="effect2_dropShadow_2234_3037" result="shape"/>
</filter>
<linearGradient id="paint0_linear_2234_3037" x1="48.9279" y1="31.4706" x2="48.9279" y2="52.6849" gradientUnits="userSpaceOnUse">
<stop stop-color="#DDA01A"/>
<stop offset="1" stop-color="#FEC83A"/>
</linearGradient>
<linearGradient id="paint1_linear_2234_3037" x1="47.531" y1="24.3643" x2="47.531" y2="56.8097" gradientUnits="userSpaceOnUse">
<stop stop-color="#DDA01A"/>
<stop offset="1" stop-color="#FEC83A"/>
</linearGradient>
<linearGradient id="paint2_linear_2234_3037" x1="47.531" y1="16.7707" x2="47.531" y2="64.1909" gradientUnits="userSpaceOnUse">
<stop stop-color="#DDA01A"/>
<stop offset="1" stop-color="#FEC83A"/>
</linearGradient>
<linearGradient id="paint3_linear_2234_3037" x1="41.2449" y1="36.0469" x2="41.2449" y2="64.7486" gradientUnits="userSpaceOnUse">
<stop stop-color="#DDA01A"/>
<stop offset="1" stop-color="#FEC83A"/>
</linearGradient>
<linearGradient id="paint4_linear_2234_3037" x1="48.9279" y1="42.5519" x2="48.9279" y2="57.5267" gradientUnits="userSpaceOnUse">
<stop stop-color="#DDA01A"/>
<stop offset="1" stop-color="#FEC83A"/>
</linearGradient>
</defs>
</svg>
