<svg width="25" height="24" viewBox="0 0 25 24" fill="none" xmlns="http://www.w3.org/2000/svg">
<path d="M9.12166 21.5396C9.20801 21.6333 9.25392 21.7572 9.24942 21.8844C9.24493 22.0117 9.19039 22.132 9.09766 22.2193L8.0551 23.1942C7.96201 23.2807 7.83839 23.3267 7.7114 23.3221C7.58441 23.3175 7.46443 23.2627 7.37782 23.1697L1.3063 16.6264C1.22002 16.5327 1.1742 16.4088 1.17878 16.2815C1.18336 16.1542 1.23799 16.0339 1.33078 15.9467L2.37478 14.9732C2.42085 14.9304 2.47492 14.897 2.53389 14.875C2.59287 14.853 2.6556 14.8429 2.7185 14.8451C2.7814 14.8474 2.84323 14.8621 2.90046 14.8882C2.9577 14.9144 3.00921 14.9516 3.05206 14.9977L9.12166 21.5396ZM16.8689 9.22765C16.9551 9.32132 17.001 9.44525 16.9964 9.57252C16.9918 9.69979 16.9372 9.82011 16.8444 9.90733L10.2828 16.0369C10.1897 16.1234 10.0661 16.1694 9.93908 16.1648C9.81209 16.1602 9.69211 16.1054 9.6055 16.0124L8.03926 14.3224C7.95298 14.2287 7.90716 14.1048 7.91174 13.9775C7.91632 13.8502 7.97095 13.7299 8.06374 13.6427L14.6239 7.51309C14.6699 7.47021 14.724 7.43684 14.7829 7.41486C14.8418 7.39289 14.9045 7.38275 14.9674 7.38502C15.0302 7.3873 15.092 7.40194 15.1492 7.42811C15.2064 7.45429 15.2579 7.49148 15.3007 7.53757L16.8689 9.22765ZM11.3541 19.4531C11.5337 19.6465 11.5226 19.9523 11.3297 20.1328L10.2857 21.1072C10.2396 21.1501 10.1855 21.1834 10.1266 21.2054C10.0676 21.2274 10.0049 21.2375 9.94195 21.2353C9.87905 21.233 9.81722 21.2184 9.75998 21.1922C9.70275 21.166 9.65123 21.1288 9.60838 21.0827L3.54022 14.5393C3.45388 14.4457 3.40797 14.3218 3.41247 14.1946C3.41696 14.0673 3.4715 13.9469 3.56422 13.8596L4.6063 12.8857C4.6994 12.7992 4.82302 12.7532 4.95001 12.7578C5.077 12.7624 5.19698 12.8172 5.28358 12.9102L11.3541 19.4531ZM21.4644 9.46237C21.5506 9.5561 21.5963 9.68007 21.5917 9.80734C21.587 9.93461 21.5323 10.0549 21.4394 10.142L20.3959 11.1164C20.3028 11.203 20.1791 11.2491 20.0521 11.2446C19.925 11.2401 19.8049 11.1854 19.7181 11.0924L13.649 4.55053C13.5626 4.45697 13.5166 4.33305 13.5211 4.20574C13.5256 4.07844 13.5802 3.95807 13.673 3.87085L14.7194 2.89405C14.7655 2.85117 14.8195 2.8178 14.8784 2.79582C14.9374 2.77385 15 2.76371 15.0629 2.76598C15.1258 2.76826 15.1876 2.7829 15.2447 2.80907C15.3019 2.83525 15.3534 2.87244 15.3962 2.91853L21.4644 9.46237ZM23.6935 7.37917C23.7797 7.47297 23.8255 7.59696 23.8209 7.72427C23.8163 7.85158 23.7617 7.97196 23.669 8.05933L22.6274 9.03325C22.5814 9.07615 22.5274 9.10956 22.4685 9.13157C22.4096 9.15359 22.3469 9.16377 22.284 9.16154C22.2212 9.15932 22.1594 9.14472 22.1022 9.11858C22.045 9.09245 21.9935 9.0553 21.9506 9.00924L15.8825 2.46445C15.7962 2.3707 15.7504 2.24675 15.7549 2.11944C15.7593 1.99213 15.8138 1.87172 15.9065 1.78429L16.949 0.808445C16.9949 0.7655 17.0489 0.732046 17.1078 0.710002C17.1667 0.687958 17.2293 0.677758 17.2922 0.679988C17.355 0.682218 17.4168 0.696833 17.474 0.722996C17.5311 0.749158 17.5826 0.786353 17.6253 0.832445L23.6935 7.37917Z" fill="url(#paint0_linear_306_2925)"/>
<defs>
<linearGradient id="paint0_linear_306_2925" x1="12.4998" y1="-3.39601" x2="12.4998" y2="26.9453" gradientUnits="userSpaceOnUse">
<stop stop-color="#FACB30"/>
<stop offset="0.302269" stop-color="#FEF9C8"/>
<stop offset="0.640625" stop-color="#C49530"/>
<stop offset="1" stop-color="#FFF8C4"/>
</linearGradient>
</defs>
</svg>
