<svg width="26" height="22" viewBox="0 0 26 22" fill="none" xmlns="http://www.w3.org/2000/svg">
<g clip-path="url(#clip0_306_2907)">
<path fill-rule="evenodd" clip-rule="evenodd" d="M22.9668 21.6303C22.9668 21.8335 22.8027 22.0004 22.5986 22.0004H2.88683C2.68473 22.0004 2.51865 21.8355 2.51865 21.6303V10.394C2.10644 10.5529 1.72425 10.5549 1.40409 10.4483C1.15397 10.3638 0.943866 10.2129 0.789789 10.0158C0.635712 9.82069 0.537663 9.58132 0.507649 9.31982C0.463627 8.91148 0.585687 8.44883 0.929859 8.01635C0.947868 7.99423 0.967878 7.97411 0.989888 7.95601L12.5156 0.0969977C12.6457 -0.0236935 12.8458 -0.0357627 12.9899 0.0768825L24.5356 7.9198C24.5516 7.93187 24.5656 7.94595 24.5796 7.96003C25.0439 8.46291 25.1599 9.0201 25.0479 9.49281C24.9918 9.72413 24.8818 9.93534 24.7297 10.1063C24.5776 10.2793 24.3835 10.4121 24.1614 10.4925C23.8092 10.6213 23.393 10.6152 22.9688 10.4141C22.9668 13.5521 22.9668 18.4944 22.9668 21.6303ZM9.57016 7.31232H16.0154V11.6753H9.57016V7.31232ZM11.7612 8.49711C11.9473 8.49711 12.0994 8.64998 12.0994 8.83705C12.0994 9.02413 11.9473 9.177 11.7612 9.177C11.5752 9.177 11.4231 9.02413 11.4231 8.83705C11.4231 8.64797 11.5732 8.49711 11.7612 8.49711ZM13.184 9.95546L13.9443 8.78073L14.6627 10.6072H11.1409V10.3799L11.4231 10.3658L11.7052 9.67184L11.9293 10.1687H12.3515L12.7177 9.21924L13.184 9.95546ZM9.95835 7.76089H15.6312V11.2267H9.95835V7.76089ZM12.6917 15.0225C12.6997 15.0245 12.7097 15.0225 12.7177 15.0144C13.1499 14.6745 13.7843 14.8173 14.0744 15.5294H14.0684C13.4961 16.0182 13.0859 16.5492 12.9378 17.1426H12.1094L12.6917 15.0225ZM15.5771 16.3803C15.6472 16.9837 15.0309 17.5047 14.4886 17.3398C14.4126 17.4725 14.3545 17.6395 14.3085 17.8406C14.2065 18.3093 14.2365 18.1665 14.2805 18.6211C14.3405 19.2266 14.2765 19.6389 13.8883 19.8159V20.0493H6.04841V19.8159C5.74625 19.7073 5.61619 19.4096 5.66221 18.9208C5.76226 17.9995 5.70023 17.7119 5.47012 17.3639C5.06592 17.378 4.77377 17.2814 4.59168 17.0762C4.2195 16.6599 4.33355 16.0504 4.79778 15.7587C4.89383 15.6984 5.00589 15.6521 5.13595 15.6239C6.13245 15.4127 6.68272 16.4386 6.94685 17.2472L9.56215 17.3176C9.74024 17.3418 9.8543 17.4222 9.93034 17.5308C10.0004 17.4242 10.1024 17.3438 10.2585 17.3076C11.0729 17.2714 11.6552 17.38 12.2495 17.38H12.9418C13.0839 17.38 13.1579 17.3176 13.182 17.203C13.358 16.6639 13.9824 15.5817 14.6367 15.6018C15.0389 15.6159 15.4771 15.8935 15.5771 16.3803ZM5.93035 15.465C6.19448 14.8736 6.60668 14.7268 7.16896 14.9239L7.77126 17.0058H7.12094C6.81879 16.3863 6.61869 15.7567 5.93035 15.465ZM7.42309 14.94C7.43109 14.936 7.4371 14.9299 7.4411 14.9199C7.66321 14.4049 8.27551 14.2601 8.77576 14.4814C8.77576 14.4794 8.77776 14.4794 8.77776 14.4794L8.91383 17.1306H8.0474L7.42309 14.94ZM9.0439 14.4251C9.20598 13.7472 10.7427 13.886 10.8848 14.3526C10.9048 14.3506 10.7247 16.855 10.7127 17.1326H10.4846C10.1244 17.1326 9.80628 17.1326 9.4501 17.1326H9.16195L9.0499 14.4251H9.0439ZM11.0849 14.5397C11.0889 14.5397 11.0949 14.5377 11.1009 14.5357C11.6572 14.238 12.4316 14.4552 12.5056 14.8435L12.4676 14.8575L11.8573 17.1306H10.9548L11.0849 14.5397ZM19.0749 15.6702V19.3613H19.8153C19.9293 19.3613 20.0214 19.4961 20.0214 19.6108C20.0214 19.7254 19.9293 19.8602 19.8153 19.8602H17.7642C17.6502 19.8602 17.5581 19.7254 17.5581 19.6108C17.5581 19.4961 17.6502 19.3613 17.7642 19.3613H18.5046V15.6702H19.0749ZM17.7262 12.8742H19.8473L20.4696 15.3423H17.1079L17.7262 12.8742ZM22.0424 21.0691V9.98161C22.0424 9.95747 22.0444 9.93333 22.0484 9.91121L12.8298 3.73785L3.4331 9.91322C3.44111 9.94339 3.44511 9.97558 3.44511 10.0078V21.0691C9.64419 21.0691 15.8433 21.0691 22.0424 21.0691Z" fill="url(#paint0_linear_306_2907)"/>
</g>
<defs>
<linearGradient id="paint0_linear_306_2907" x1="12.7932" y1="-3.96123" x2="12.7932" y2="25.5207" gradientUnits="userSpaceOnUse">
<stop stop-color="#FACB30"/>
<stop offset="0.302269" stop-color="#FEF9C8"/>
<stop offset="0.640625" stop-color="#C49530"/>
<stop offset="1" stop-color="#FFF8C4"/>
</linearGradient>
<clipPath id="clip0_306_2907">
<rect width="24.5882" height="22" fill="white" transform="translate(0.5)"/>
</clipPath>
</defs>
</svg>
