<svg width="154" height="112" viewBox="0 0 154 112" fill="none" xmlns="http://www.w3.org/2000/svg">
<path d="M22.9695 108.9C6.44761 108.9 1.8661 86.6366 0 77H44.2013C43.9063 88.5782 40.6623 108.9 22.9695 108.9Z" fill="url(#paint0_linear_209_8)"/>
<path d="M128.232 3C144.754 3 152.059 24.4163 153.303 34.726H107C107.295 23.2106 110.539 3 128.232 3Z" fill="url(#paint1_linear_209_8)"/>
<g filter="url(#filter0_d_209_8)">
<path fill-rule="evenodd" clip-rule="evenodd" d="M29.0905 15.0903C29.0905 8.41303 34.5035 3 41.1805 3H124.422H131.5C124.832 3 124.439 8.39683 124.422 15.06V96.9097C124.422 103.587 119.009 109 112.332 109H29.0905H17C23.6735 109 29.0845 103.592 29.0905 96.9201V15.0903Z" fill="#E5E8ED"/>
</g>
<defs>
<filter id="filter0_d_209_8" x="16" y="0" width="120.5" height="112" filterUnits="userSpaceOnUse" color-interpolation-filters="sRGB">
<feFlood flood-opacity="0" result="BackgroundImageFix"/>
<feColorMatrix in="SourceAlpha" type="matrix" values="0 0 0 0 0 0 0 0 0 0 0 0 0 0 0 0 0 0 127 0" result="hardAlpha"/>
<feOffset dx="2"/>
<feGaussianBlur stdDeviation="1.5"/>
<feComposite in2="hardAlpha" operator="out"/>
<feColorMatrix type="matrix" values="0 0 0 0 0 0 0 0 0 0 0 0 0 0 0 0 0 0 0.12 0"/>
<feBlend mode="normal" in2="BackgroundImageFix" result="effect1_dropShadow_209_8"/>
<feBlend mode="normal" in="SourceGraphic" in2="effect1_dropShadow_209_8" result="shape"/>
</filter>
<linearGradient id="paint0_linear_209_8" x1="-0.275012" y1="69.459" x2="49.5412" y2="120.566" gradientUnits="userSpaceOnUse">
<stop stop-color="#9A9A9A" stop-opacity="0.84"/>
<stop offset="0.0001" stop-color="#9EC1C2"/>
<stop offset="0.640652" stop-color="#FBFFFF"/>
</linearGradient>
<linearGradient id="paint1_linear_209_8" x1="106.712" y1="-4.5" x2="156.125" y2="48.8942" gradientUnits="userSpaceOnUse">
<stop stop-color="#9A9A9A" stop-opacity="0.84"/>
<stop offset="0.0001" stop-color="#9EC1C2"/>
<stop offset="0.640652" stop-color="#FBFFFF"/>
</linearGradient>
</defs>
</svg>
