<svg width="32" height="24" viewBox="0 0 32 24" fill="none" xmlns="http://www.w3.org/2000/svg">
<g clip-path="url(#clip0_883_25593)">
<path d="M26.5917 10.6667C26.306 7.62573 25.1733 5.08772 23.1937 3.05263C21.2141 1.01754 18.8978 0 16.2448 0C13.5917 0 11.2754 1.01754 9.29578 3.05263C7.31619 5.08772 6.18353 7.62573 5.89782 10.6667C4.3468 10.9474 3.07129 11.7076 2.07129 12.9474C1.07129 14.1871 0.571289 15.6257 0.571289 17.2632C0.571289 19.1345 1.20394 20.7251 2.46925 22.0351C3.73455 23.345 5.28557 24 7.12231 24H8.40802V12C8.40802 9.56725 9.18353 7.46199 10.7346 5.68421C12.2856 3.90643 14.1223 3.01754 16.2448 3.01754C18.3672 3.01754 20.2039 3.90643 21.755 5.68421C23.306 7.46199 24.0815 9.56725 24.0815 12V24H25.3672C27.2039 24 28.755 23.345 30.0203 22.0351C31.2856 20.7251 31.9182 19.1345 31.9182 17.2632C31.9182 15.6257 31.4182 14.1871 30.4182 12.9474C29.4182 11.7076 28.1427 10.9474 26.5917 10.6667ZM5.77537 20.8421C4.99986 20.6082 4.37741 20.152 3.90802 19.4737C3.43864 18.7953 3.20394 18.0585 3.20394 17.2632C3.20394 15.5322 4.06109 14.3158 5.77537 13.614V20.8421ZM26.7141 20.8421V13.8246C27.4897 14.0117 28.1121 14.4444 28.5815 15.1228C29.0509 15.8012 29.2856 16.5614 29.2856 17.4035C29.2856 18.9942 28.4284 20.1404 26.7141 20.8421Z" fill="url(#paint0_linear_883_25593)"/>
<path d="M14.3469 10.4894C13.0324 11.9646 12.1302 14.0841 12.0465 14.2838L9.71387 13.2853L12.3236 10.6762C12.6264 10.3734 13.0646 10.2381 13.4899 10.3219L14.3469 10.4894ZM15.6227 17.3503C15.6227 17.3503 18.0327 16.3518 19.418 14.9667C22.8976 11.4879 22.3177 8.76929 22.1308 8.15728C21.5187 7.96402 18.7995 7.39066 15.3199 10.8695C13.9345 12.2545 12.9357 14.6639 12.9357 14.6639L15.6227 17.3503ZM19.7982 15.9395C18.3226 17.2537 16.2026 18.1556 16.0029 18.2393L17.0017 20.5714L19.6114 17.9623C19.9142 17.6595 20.0495 17.2215 19.9658 16.7963L19.7982 15.9395ZM14.2244 17.9945C14.2244 18.5292 14.0054 19.0124 13.6574 19.3603C12.897 20.1205 9.71387 20.5714 9.71387 20.5714C9.71387 20.5714 10.1649 17.389 10.9253 16.6288C11.1951 16.3576 11.5395 16.1727 11.9147 16.0975C12.2899 16.0224 12.6789 16.0604 13.0325 16.2067C13.386 16.3531 13.6881 16.6012 13.9003 16.9195C14.1125 17.2378 14.2253 17.612 14.2244 17.9945ZM16.8019 12.1966C16.8019 11.4879 17.3818 10.9081 18.0906 10.9081C18.7995 10.9081 19.3794 11.4879 19.3794 12.1966C19.3794 12.9052 18.7995 13.485 18.0906 13.485C17.3818 13.485 16.8019 12.9052 16.8019 12.1966Z" fill="url(#paint1_linear_883_25593)"/>
</g>
<defs>
<linearGradient id="paint0_linear_883_25593" x1="16.2447" y1="-4.32" x2="16.2447" y2="27.84" gradientUnits="userSpaceOnUse">
<stop stop-color="#FACB30"/>
<stop offset="0.302269" stop-color="#FEF9C8"/>
<stop offset="0.640625" stop-color="#C49530"/>
<stop offset="1" stop-color="#FFF8C4"/>
</linearGradient>
<linearGradient id="paint1_linear_883_25593" x1="15.9996" y1="5.73714" x2="15.9996" y2="22.5829" gradientUnits="userSpaceOnUse">
<stop stop-color="#FACB30"/>
<stop offset="0.302269" stop-color="#FEF9C8"/>
<stop offset="0.640625" stop-color="#C49530"/>
<stop offset="1" stop-color="#FFF8C4"/>
</linearGradient>
<clipPath id="clip0_883_25593">
<rect width="30.8571" height="24" fill="white" transform="translate(0.571289)"/>
</clipPath>
</defs>
</svg>