<svg width="575" height="445" viewBox="0 0 575 445" fill="none" xmlns="http://www.w3.org/2000/svg">
<rect width="575" height="445" fill="#EBF3FF"/>
<g filter="url(#filter0_ii_105_153)">
<rect x="158" y="78" width="260" height="80" rx="40" fill="#EBF3FF"/>
</g>
<path d="M256.84 107C258.82 107 260.47 107.66 261.79 108.98C263.13 110.3 263.8 111.94 263.8 113.9C263.8 115.84 263.13 117.48 261.79 118.82C260.47 120.14 258.82 120.8 256.84 120.8H252.55V128H249.1V107H256.84ZM256.84 117.56C257.86 117.56 258.7 117.22 259.36 116.54C260.02 115.84 260.35 114.96 260.35 113.9C260.35 112.84 260.02 111.97 259.36 111.29C258.7 110.59 257.86 110.24 256.84 110.24H252.55V117.56H256.84ZM272.611 128.39C270.411 128.39 268.541 127.63 267.001 126.11C265.461 124.59 264.691 122.72 264.691 120.5C264.691 118.28 265.461 116.41 267.001 114.89C268.541 113.37 270.411 112.61 272.611 112.61C274.831 112.61 276.701 113.37 278.221 114.89C279.761 116.41 280.531 118.28 280.531 120.5C280.531 122.72 279.761 124.59 278.221 126.11C276.701 127.63 274.831 128.39 272.611 128.39ZM269.281 123.89C270.181 124.79 271.291 125.24 272.611 125.24C273.931 125.24 275.041 124.79 275.941 123.89C276.841 122.99 277.291 121.86 277.291 120.5C277.291 119.14 276.841 118.01 275.941 117.11C275.041 116.21 273.931 115.76 272.611 115.76C271.291 115.76 270.181 116.21 269.281 117.11C268.381 118.01 267.931 119.14 267.931 120.5C267.931 121.86 268.381 122.99 269.281 123.89ZM286.077 117.14C286.077 117.64 286.347 118.04 286.887 118.34C287.447 118.62 288.117 118.87 288.897 119.09C289.697 119.29 290.497 119.53 291.297 119.81C292.097 120.09 292.767 120.57 293.307 121.25C293.867 121.91 294.147 122.75 294.147 123.77C294.147 125.21 293.587 126.34 292.467 127.16C291.367 127.98 289.977 128.39 288.297 128.39C286.817 128.39 285.547 128.08 284.487 127.46C283.427 126.84 282.657 125.98 282.177 124.88L284.967 123.26C285.487 124.7 286.597 125.42 288.297 125.42C289.997 125.42 290.847 124.86 290.847 123.74C290.847 123.26 290.567 122.87 290.007 122.57C289.467 122.27 288.797 122.02 287.997 121.82C287.217 121.6 286.427 121.35 285.627 121.07C284.827 120.79 284.147 120.33 283.587 119.69C283.047 119.03 282.777 118.2 282.777 117.2C282.777 115.82 283.297 114.71 284.337 113.87C285.397 113.03 286.707 112.61 288.267 112.61C289.507 112.61 290.607 112.89 291.567 113.45C292.547 113.99 293.297 114.75 293.817 115.73L291.087 117.26C290.567 116.12 289.627 115.55 288.267 115.55C287.647 115.55 287.127 115.69 286.707 115.97C286.287 116.23 286.077 116.62 286.077 117.14ZM299.88 110.15C299.48 110.55 299 110.75 298.44 110.75C297.88 110.75 297.39 110.55 296.97 110.15C296.57 109.73 296.37 109.24 296.37 108.68C296.37 108.12 296.57 107.64 296.97 107.24C297.37 106.82 297.86 106.61 298.44 106.61C299.02 106.61 299.51 106.82 299.91 107.24C300.31 107.64 300.51 108.12 300.51 108.68C300.51 109.24 300.3 109.73 299.88 110.15ZM296.82 128V113H300.06V128H296.82ZM312.192 116.12H308.472V123.32C308.472 123.94 308.612 124.39 308.892 124.67C309.172 124.93 309.582 125.08 310.122 125.12C310.682 125.14 311.372 125.13 312.192 125.09V128C309.712 128.3 307.932 128.09 306.852 127.37C305.772 126.63 305.232 125.28 305.232 123.32V116.12H302.472V113H305.232V109.76L308.472 108.8V113H312.192V116.12ZM318.19 110.15C317.79 110.55 317.31 110.75 316.75 110.75C316.19 110.75 315.7 110.55 315.28 110.15C314.88 109.73 314.68 109.24 314.68 108.68C314.68 108.12 314.88 107.64 315.28 107.24C315.68 106.82 316.17 106.61 316.75 106.61C317.33 106.61 317.82 106.82 318.22 107.24C318.62 107.64 318.82 108.12 318.82 108.68C318.82 109.24 318.61 109.73 318.19 110.15ZM315.13 128V113H318.37V128H315.13ZM332.302 113H335.842L329.992 128H326.242L320.392 113H323.932L328.132 124.4L332.302 113ZM339.858 121.88C340.098 123.02 340.648 123.9 341.508 124.52C342.368 125.12 343.418 125.42 344.658 125.42C346.378 125.42 347.668 124.8 348.528 123.56L351.198 125.12C349.718 127.3 347.528 128.39 344.628 128.39C342.188 128.39 340.218 127.65 338.718 126.17C337.218 124.67 336.468 122.78 336.468 120.5C336.468 118.26 337.208 116.39 338.688 114.89C340.168 113.37 342.068 112.61 344.388 112.61C346.588 112.61 348.388 113.38 349.788 114.92C351.208 116.46 351.918 118.33 351.918 120.53C351.918 120.87 351.878 121.32 351.798 121.88H339.858ZM339.828 119.24H348.648C348.428 118.02 347.918 117.1 347.118 116.48C346.338 115.86 345.418 115.55 344.358 115.55C343.158 115.55 342.158 115.88 341.358 116.54C340.558 117.2 340.048 118.1 339.828 119.24Z" fill="#575757"/>
<g filter="url(#filter1_dd_105_153)">
<path d="M202.583 88H201.417C185.171 88 172 101.431 172 118V118C172 134.569 185.171 148 201.417 148H202.583C218.829 148 232 134.569 232 118V118C232 101.431 218.829 88 202.583 88Z" fill="#EBF3FF"/>
</g>
<circle cx="202" cy="118" r="28.9091" fill="#1FE31F"/>
<g filter="url(#filter2_dd_105_153)">
<rect x="92" y="183" width="392" height="80" rx="5" fill="#EBF3FF"/>
</g>
<path d="M169.3 206.5V238H164.125V215.545L154.54 231.385H153.91L144.325 215.5V238H139.15V206.5H144.73L154.225 222.25L163.765 206.5H169.3ZM193.086 215.5H197.946V238H193.086V234.76C191.256 237.31 188.631 238.585 185.211 238.585C182.121 238.585 179.481 237.445 177.291 235.165C175.101 232.855 174.006 230.05 174.006 226.75C174.006 223.42 175.101 220.615 177.291 218.335C179.481 216.055 182.121 214.915 185.211 214.915C188.631 214.915 191.256 216.175 193.086 218.695V215.5ZM180.891 231.925C182.241 233.275 183.936 233.95 185.976 233.95C188.016 233.95 189.711 233.275 191.061 231.925C192.411 230.545 193.086 228.82 193.086 226.75C193.086 224.68 192.411 222.97 191.061 221.62C189.711 220.24 188.016 219.55 185.976 219.55C183.936 219.55 182.241 220.24 180.891 221.62C179.541 222.97 178.866 224.68 178.866 226.75C178.866 228.82 179.541 230.545 180.891 231.925ZM208.47 219.28C209.7 216.49 212.01 215.095 215.4 215.095V220.36C213.54 220.24 211.92 220.69 210.54 221.71C209.16 222.7 208.47 224.35 208.47 226.66V238H203.61V215.5H208.47V219.28ZM238.881 238H233.076L223.851 227.605V238H218.991V206.5H223.851V225.445L232.581 215.5H238.521L228.621 226.525L238.881 238ZM244.174 228.82C244.534 230.53 245.359 231.85 246.649 232.78C247.939 233.68 249.514 234.13 251.374 234.13C253.954 234.13 255.889 233.2 257.179 231.34L261.184 233.68C258.964 236.95 255.679 238.585 251.329 238.585C247.669 238.585 244.714 237.475 242.464 235.255C240.214 233.005 239.089 230.17 239.089 226.75C239.089 223.39 240.199 220.585 242.419 218.335C244.639 216.055 247.489 214.915 250.969 214.915C254.269 214.915 256.969 216.07 259.069 218.38C261.199 220.69 262.264 223.495 262.264 226.795C262.264 227.305 262.204 227.98 262.084 228.82H244.174ZM244.129 224.86H257.359C257.029 223.03 256.264 221.65 255.064 220.72C253.894 219.79 252.514 219.325 250.924 219.325C249.124 219.325 247.624 219.82 246.424 220.81C245.224 221.8 244.459 223.15 244.129 224.86ZM278.392 220.18H272.812V230.98C272.812 231.91 273.022 232.585 273.442 233.005C273.862 233.395 274.477 233.62 275.287 233.68C276.127 233.71 277.162 233.695 278.392 233.635V238C274.672 238.45 272.002 238.135 270.382 237.055C268.762 235.945 267.952 233.92 267.952 230.98V220.18H263.812V215.5H267.952V210.64L272.812 209.2V215.5H278.392V220.18ZM294.585 206.5H299.76V238H294.585V206.5ZM330.309 214.915C332.859 214.915 334.914 215.74 336.474 217.39C338.034 219.04 338.814 221.26 338.814 224.05V238H333.954V224.365C333.954 222.805 333.564 221.605 332.784 220.765C332.004 219.895 330.939 219.46 329.589 219.46C328.089 219.46 326.889 219.955 325.989 220.945C325.119 221.935 324.684 223.42 324.684 225.4V238H319.824V224.365C319.824 222.805 319.449 221.605 318.699 220.765C317.979 219.895 316.944 219.46 315.594 219.46C314.124 219.46 312.924 219.97 311.994 220.99C311.064 221.98 310.599 223.45 310.599 225.4V238H305.739V215.5H310.599V218.2C312.039 216.01 314.184 214.915 317.034 214.915C319.914 214.915 322.044 216.1 323.424 218.47C324.924 216.1 327.219 214.915 330.309 214.915ZM356.751 214.915C359.841 214.915 362.481 216.07 364.671 218.38C366.861 220.66 367.956 223.45 367.956 226.75C367.956 230.08 366.861 232.885 364.671 235.165C362.481 237.445 359.841 238.585 356.751 238.585C353.331 238.585 350.706 237.325 348.876 234.805V247H344.016V215.5H348.876V218.74C350.706 216.19 353.331 214.915 356.751 214.915ZM350.901 231.925C352.251 233.275 353.946 233.95 355.986 233.95C358.026 233.95 359.721 233.275 361.071 231.925C362.421 230.545 363.096 228.82 363.096 226.75C363.096 224.68 362.421 222.97 361.071 221.62C359.721 220.24 358.026 219.55 355.986 219.55C353.946 219.55 352.251 220.24 350.901 221.62C349.551 222.97 348.876 224.68 348.876 226.75C348.876 228.82 349.551 230.545 350.901 231.925ZM390.18 215.5H395.04V238H390.18V234.76C388.35 237.31 385.725 238.585 382.305 238.585C379.215 238.585 376.575 237.445 374.385 235.165C372.195 232.855 371.1 230.05 371.1 226.75C371.1 223.42 372.195 220.615 374.385 218.335C376.575 216.055 379.215 214.915 382.305 214.915C385.725 214.915 388.35 216.175 390.18 218.695V215.5ZM377.985 231.925C379.335 233.275 381.03 233.95 383.07 233.95C385.11 233.95 386.805 233.275 388.155 231.925C389.505 230.545 390.18 228.82 390.18 226.75C390.18 224.68 389.505 222.97 388.155 221.62C386.805 220.24 385.11 219.55 383.07 219.55C381.03 219.55 379.335 220.24 377.985 221.62C376.635 222.97 375.96 224.68 375.96 226.75C375.96 228.82 376.635 230.545 377.985 231.925ZM411.325 238.585C407.935 238.585 405.1 237.445 402.82 235.165C400.57 232.885 399.445 230.08 399.445 226.75C399.445 223.39 400.57 220.585 402.82 218.335C405.1 216.055 407.935 214.915 411.325 214.915C413.515 214.915 415.51 215.44 417.31 216.49C419.11 217.54 420.46 218.95 421.36 220.72L417.175 223.15C416.665 222.07 415.885 221.23 414.835 220.63C413.815 220 412.63 219.685 411.28 219.685C409.3 219.685 407.635 220.36 406.285 221.71C404.965 223.06 404.305 224.74 404.305 226.75C404.305 228.76 404.965 230.44 406.285 231.79C407.635 233.14 409.3 233.815 411.28 233.815C412.6 233.815 413.785 233.5 414.835 232.87C415.915 232.24 416.725 231.4 417.265 230.35L421.45 232.735C420.49 234.535 419.11 235.96 417.31 237.01C415.51 238.06 413.515 238.585 411.325 238.585ZM437.518 220.18H431.938V230.98C431.938 231.91 432.148 232.585 432.568 233.005C432.988 233.395 433.603 233.62 434.413 233.68C435.253 233.71 436.288 233.695 437.518 233.635V238C433.798 238.45 431.128 238.135 429.508 237.055C427.888 235.945 427.078 233.92 427.078 230.98V220.18H422.938V215.5H427.078V210.64L431.938 209.2V215.5H437.518V220.18Z" fill="#575757"/>
<g filter="url(#filter3_ii_105_153)">
<rect x="158" y="288" width="260" height="80" rx="40" fill="#EBF3FF"/>
</g>
<path d="M209.7 317H213.15V338H210.45L200.55 323.75V338H197.1V317H199.8L209.7 331.25V317ZM219.684 331.88C219.924 333.02 220.474 333.9 221.334 334.52C222.194 335.12 223.244 335.42 224.484 335.42C226.204 335.42 227.494 334.8 228.354 333.56L231.024 335.12C229.544 337.3 227.354 338.39 224.454 338.39C222.014 338.39 220.044 337.65 218.544 336.17C217.044 334.67 216.294 332.78 216.294 330.5C216.294 328.26 217.034 326.39 218.514 324.89C219.994 323.37 221.894 322.61 224.214 322.61C226.414 322.61 228.214 323.38 229.614 324.92C231.034 326.46 231.744 328.33 231.744 330.53C231.744 330.87 231.704 331.32 231.624 331.88H219.684ZM219.654 329.24H228.474C228.254 328.02 227.744 327.1 226.944 326.48C226.164 325.86 225.244 325.55 224.184 325.55C222.984 325.55 221.984 325.88 221.184 326.54C220.384 327.2 219.874 328.1 219.654 329.24ZM246.447 323H249.627V337.31C249.627 339.59 248.877 341.34 247.377 342.56C245.877 343.78 244.057 344.39 241.917 344.39C238.457 344.39 236.087 343.18 234.807 340.76L237.597 339.14C238.377 340.68 239.837 341.45 241.977 341.45C243.377 341.45 244.467 341.08 245.247 340.34C246.047 339.62 246.447 338.61 246.447 337.31V335.48C245.227 337.22 243.487 338.09 241.227 338.09C239.107 338.09 237.317 337.34 235.857 335.84C234.397 334.32 233.667 332.49 233.667 330.35C233.667 328.21 234.397 326.39 235.857 324.89C237.317 323.37 239.107 322.61 241.227 322.61C243.487 322.61 245.227 323.48 246.447 325.22V323ZM238.257 333.71C239.177 334.61 240.317 335.06 241.677 335.06C243.037 335.06 244.167 334.61 245.067 333.71C245.987 332.81 246.447 331.69 246.447 330.35C246.447 329.01 245.987 327.89 245.067 326.99C244.167 326.09 243.037 325.64 241.677 325.64C240.317 325.64 239.177 326.09 238.257 326.99C237.357 327.89 236.907 329.01 236.907 330.35C236.907 331.69 237.357 332.81 238.257 333.71ZM265.284 323H268.524V338H265.284V335.84C264.064 337.54 262.314 338.39 260.034 338.39C257.974 338.39 256.214 337.63 254.754 336.11C253.294 334.57 252.564 332.7 252.564 330.5C252.564 328.28 253.294 326.41 254.754 324.89C256.214 323.37 257.974 322.61 260.034 322.61C262.314 322.61 264.064 323.45 265.284 325.13V323ZM257.154 333.95C258.054 334.85 259.184 335.3 260.544 335.3C261.904 335.3 263.034 334.85 263.934 333.95C264.834 333.03 265.284 331.88 265.284 330.5C265.284 329.12 264.834 327.98 263.934 327.08C263.034 326.16 261.904 325.7 260.544 325.7C259.184 325.7 258.054 326.16 257.154 327.08C256.254 327.98 255.804 329.12 255.804 330.5C255.804 331.88 256.254 333.03 257.154 333.95ZM280.67 326.12H276.95V333.32C276.95 333.94 277.09 334.39 277.37 334.67C277.65 334.93 278.06 335.08 278.6 335.12C279.16 335.14 279.85 335.13 280.67 335.09V338C278.19 338.3 276.41 338.09 275.33 337.37C274.25 336.63 273.71 335.28 273.71 333.32V326.12H270.95V323H273.71V319.76L276.95 318.8V323H280.67V326.12ZM286.669 320.15C286.269 320.55 285.789 320.75 285.229 320.75C284.669 320.75 284.179 320.55 283.759 320.15C283.359 319.73 283.159 319.24 283.159 318.68C283.159 318.12 283.359 317.64 283.759 317.24C284.159 316.82 284.649 316.61 285.229 316.61C285.809 316.61 286.299 316.82 286.699 317.24C287.099 317.64 287.299 318.12 287.299 318.68C287.299 319.24 287.089 319.73 286.669 320.15ZM283.609 338V323H286.849V338H283.609ZM300.781 323H304.321L298.471 338H294.721L288.871 323H292.411L296.611 334.4L300.781 323ZM308.336 331.88C308.576 333.02 309.126 333.9 309.986 334.52C310.846 335.12 311.896 335.42 313.136 335.42C314.856 335.42 316.146 334.8 317.006 333.56L319.676 335.12C318.196 337.3 316.006 338.39 313.106 338.39C310.666 338.39 308.696 337.65 307.196 336.17C305.696 334.67 304.946 332.78 304.946 330.5C304.946 328.26 305.686 326.39 307.166 324.89C308.646 323.37 310.546 322.61 312.866 322.61C315.066 322.61 316.866 323.38 318.266 324.92C319.686 326.46 320.396 328.33 320.396 330.53C320.396 330.87 320.356 331.32 320.276 331.88H308.336ZM308.306 329.24H317.126C316.906 328.02 316.396 327.1 315.596 326.48C314.816 325.86 313.896 325.55 312.836 325.55C311.636 325.55 310.636 325.88 309.836 326.54C309.036 327.2 308.526 328.1 308.306 329.24Z" fill="#575757"/>
<g filter="url(#filter4_dd_105_153)">
<path d="M374.583 298H373.417C357.171 298 344 311.431 344 328V328C344 344.569 357.171 358 373.417 358H374.583C390.829 358 404 344.569 404 328V328C404 311.431 390.829 298 374.583 298Z" fill="#EBF3FF"/>
</g>
<circle cx="374" cy="328" r="28.9091" fill="#EC313C"/>
<defs>
<filter id="filter0_ii_105_153" x="155" y="75" width="266" height="86" filterUnits="userSpaceOnUse" color-interpolation-filters="sRGB">
<feFlood flood-opacity="0" result="BackgroundImageFix"/>
<feBlend mode="normal" in="SourceGraphic" in2="BackgroundImageFix" result="shape"/>
<feColorMatrix in="SourceAlpha" type="matrix" values="0 0 0 0 0 0 0 0 0 0 0 0 0 0 0 0 0 0 127 0" result="hardAlpha"/>
<feOffset dx="3" dy="3"/>
<feGaussianBlur stdDeviation="3"/>
<feComposite in2="hardAlpha" operator="arithmetic" k2="-1" k3="1"/>
<feColorMatrix type="matrix" values="0 0 0 0 0.6 0 0 0 0 0.623529 0 0 0 0 0.690196 0 0 0 1 0"/>
<feBlend mode="normal" in2="shape" result="effect1_innerShadow_105_153"/>
<feColorMatrix in="SourceAlpha" type="matrix" values="0 0 0 0 0 0 0 0 0 0 0 0 0 0 0 0 0 0 127 0" result="hardAlpha"/>
<feOffset dx="-3" dy="-3"/>
<feGaussianBlur stdDeviation="3"/>
<feComposite in2="hardAlpha" operator="arithmetic" k2="-1" k3="1"/>
<feColorMatrix type="matrix" values="0 0 0 0 1 0 0 0 0 1 0 0 0 0 1 0 0 0 1 0"/>
<feBlend mode="normal" in2="effect1_innerShadow_105_153" result="effect2_innerShadow_105_153"/>
</filter>
<filter id="filter1_dd_105_153" x="160" y="76" width="84" height="84" filterUnits="userSpaceOnUse" color-interpolation-filters="sRGB">
<feFlood flood-opacity="0" result="BackgroundImageFix"/>
<feColorMatrix in="SourceAlpha" type="matrix" values="0 0 0 0 0 0 0 0 0 0 0 0 0 0 0 0 0 0 127 0" result="hardAlpha"/>
<feOffset dx="4" dy="4"/>
<feGaussianBlur stdDeviation="4"/>
<feColorMatrix type="matrix" values="0 0 0 0 0.6 0 0 0 0 0.623529 0 0 0 0 0.690196 0 0 0 0.75 0"/>
<feBlend mode="normal" in2="BackgroundImageFix" result="effect1_dropShadow_105_153"/>
<feColorMatrix in="SourceAlpha" type="matrix" values="0 0 0 0 0 0 0 0 0 0 0 0 0 0 0 0 0 0 127 0" result="hardAlpha"/>
<feOffset dx="-4" dy="-4"/>
<feGaussianBlur stdDeviation="4"/>
<feComposite in2="hardAlpha" operator="out"/>
<feColorMatrix type="matrix" values="0 0 0 0 1 0 0 0 0 1 0 0 0 0 1 0 0 0 1 0"/>
<feBlend mode="normal" in2="effect1_dropShadow_105_153" result="effect2_dropShadow_105_153"/>
<feBlend mode="normal" in="SourceGraphic" in2="effect2_dropShadow_105_153" result="shape"/>
</filter>
<filter id="filter2_dd_105_153" x="77" y="168" width="422" height="110" filterUnits="userSpaceOnUse" color-interpolation-filters="sRGB">
<feFlood flood-opacity="0" result="BackgroundImageFix"/>
<feColorMatrix in="SourceAlpha" type="matrix" values="0 0 0 0 0 0 0 0 0 0 0 0 0 0 0 0 0 0 127 0" result="hardAlpha"/>
<feOffset dx="5" dy="5"/>
<feGaussianBlur stdDeviation="5"/>
<feComposite in2="hardAlpha" operator="out"/>
<feColorMatrix type="matrix" values="0 0 0 0 0.6 0 0 0 0 0.623529 0 0 0 0 0.690196 0 0 0 1 0"/>
<feBlend mode="normal" in2="BackgroundImageFix" result="effect1_dropShadow_105_153"/>
<feColorMatrix in="SourceAlpha" type="matrix" values="0 0 0 0 0 0 0 0 0 0 0 0 0 0 0 0 0 0 127 0" result="hardAlpha"/>
<feOffset dx="-5" dy="-5"/>
<feGaussianBlur stdDeviation="5"/>
<feComposite in2="hardAlpha" operator="out"/>
<feColorMatrix type="matrix" values="0 0 0 0 1 0 0 0 0 1 0 0 0 0 1 0 0 0 1 0"/>
<feBlend mode="normal" in2="effect1_dropShadow_105_153" result="effect2_dropShadow_105_153"/>
<feBlend mode="normal" in="SourceGraphic" in2="effect2_dropShadow_105_153" result="shape"/>
</filter>
<filter id="filter3_ii_105_153" x="155" y="285" width="266" height="86" filterUnits="userSpaceOnUse" color-interpolation-filters="sRGB">
<feFlood flood-opacity="0" result="BackgroundImageFix"/>
<feBlend mode="normal" in="SourceGraphic" in2="BackgroundImageFix" result="shape"/>
<feColorMatrix in="SourceAlpha" type="matrix" values="0 0 0 0 0 0 0 0 0 0 0 0 0 0 0 0 0 0 127 0" result="hardAlpha"/>
<feOffset dx="3" dy="3"/>
<feGaussianBlur stdDeviation="3"/>
<feComposite in2="hardAlpha" operator="arithmetic" k2="-1" k3="1"/>
<feColorMatrix type="matrix" values="0 0 0 0 0.6 0 0 0 0 0.623529 0 0 0 0 0.690196 0 0 0 1 0"/>
<feBlend mode="normal" in2="shape" result="effect1_innerShadow_105_153"/>
<feColorMatrix in="SourceAlpha" type="matrix" values="0 0 0 0 0 0 0 0 0 0 0 0 0 0 0 0 0 0 127 0" result="hardAlpha"/>
<feOffset dx="-3" dy="-3"/>
<feGaussianBlur stdDeviation="3"/>
<feComposite in2="hardAlpha" operator="arithmetic" k2="-1" k3="1"/>
<feColorMatrix type="matrix" values="0 0 0 0 1 0 0 0 0 1 0 0 0 0 1 0 0 0 1 0"/>
<feBlend mode="normal" in2="effect1_innerShadow_105_153" result="effect2_innerShadow_105_153"/>
</filter>
<filter id="filter4_dd_105_153" x="332" y="286" width="84" height="84" filterUnits="userSpaceOnUse" color-interpolation-filters="sRGB">
<feFlood flood-opacity="0" result="BackgroundImageFix"/>
<feColorMatrix in="SourceAlpha" type="matrix" values="0 0 0 0 0 0 0 0 0 0 0 0 0 0 0 0 0 0 127 0" result="hardAlpha"/>
<feOffset dx="4" dy="4"/>
<feGaussianBlur stdDeviation="4"/>
<feColorMatrix type="matrix" values="0 0 0 0 0.6 0 0 0 0 0.623529 0 0 0 0 0.690196 0 0 0 0.75 0"/>
<feBlend mode="normal" in2="BackgroundImageFix" result="effect1_dropShadow_105_153"/>
<feColorMatrix in="SourceAlpha" type="matrix" values="0 0 0 0 0 0 0 0 0 0 0 0 0 0 0 0 0 0 127 0" result="hardAlpha"/>
<feOffset dx="-4" dy="-4"/>
<feGaussianBlur stdDeviation="4"/>
<feComposite in2="hardAlpha" operator="out"/>
<feColorMatrix type="matrix" values="0 0 0 0 1 0 0 0 0 1 0 0 0 0 1 0 0 0 1 0"/>
<feBlend mode="normal" in2="effect1_dropShadow_105_153" result="effect2_dropShadow_105_153"/>
<feBlend mode="normal" in="SourceGraphic" in2="effect2_dropShadow_105_153" result="shape"/>
</filter>
</defs>
</svg>
