<svg width="25" height="24" viewBox="0 0 25 24" fill="none" xmlns="http://www.w3.org/2000/svg">
<path fill-rule="evenodd" clip-rule="evenodd" d="M18.0135 8.72095C18.7113 8.92975 19.2135 8.99995 19.2135 8.99995V7.19995H20.4135C21.2091 7.19995 21.9722 6.88388 22.5348 6.32127C23.0974 5.75866 23.4135 4.9956 23.4135 4.19995C23.4135 3.4043 23.0974 2.64124 22.5348 2.07863C21.9722 1.51602 21.2091 1.19995 20.4135 1.19995H16.9551C16.1219 1.19995 15.3228 1.53094 14.7336 2.1201C14.1445 2.70927 13.8135 3.50835 13.8135 4.34155C13.8135 7.05235 16.4223 8.24515 18.0135 8.72095ZM22.2135 4.19995C22.2135 4.67734 22.0238 5.13518 21.6863 5.47274C21.3487 5.81031 20.8909 5.99995 20.4135 5.99995H18.0135V7.46095C17.6843 7.34917 17.363 7.21548 17.0517 7.06075C15.8619 6.46435 15.0135 5.61595 15.0135 4.34155C15.0135 3.82661 15.218 3.33275 15.5822 2.96863C15.9463 2.60451 16.4401 2.39995 16.9551 2.39995H20.4135C20.8909 2.39995 21.3487 2.58959 21.6863 2.92716C22.0238 3.26472 22.2135 3.72256 22.2135 4.19995ZM7.10368 8.39575C6.31739 8.36852 5.57329 8.03338 5.03182 7.46259C4.49036 6.89179 4.19489 6.13107 4.20914 5.34444C4.22339 4.55781 4.54621 3.80828 5.10799 3.25747C5.66977 2.70666 6.42552 2.39869 7.21228 2.39995H9.11368C9.88275 2.39995 10.6203 2.70546 11.1641 3.24928C11.708 3.7931 12.0135 4.53068 12.0135 5.29975C12.0135 7.72495 9.83548 8.83375 8.41348 9.29995C7.72468 9.52555 7.21348 9.59995 7.21348 9.59995V8.39995L7.10368 8.39575ZM8.41348 7.24255L7.14748 7.19695C6.67173 7.18661 6.21946 6.98818 5.8897 6.6451C5.55994 6.30203 5.37955 5.84226 5.38805 5.36648C5.39654 4.89069 5.59321 4.43765 5.93501 4.10656C6.2768 3.77547 6.73586 3.59331 7.21168 3.59995H9.11308C9.33635 3.59987 9.55745 3.64378 9.76375 3.72917C9.97005 3.81456 10.1575 3.93975 10.3154 4.0976C10.4733 4.25545 10.5986 4.44286 10.684 4.64913C10.7695 4.8554 10.8135 5.07648 10.8135 5.29975C10.8135 6.44875 10.0833 7.20175 9.05908 7.73575C8.84308 7.84855 8.62408 7.94455 8.41348 8.02615V7.24255ZM15.0135 12C15.0135 13.326 13.9395 14.4 12.6135 14.4C11.2875 14.4 10.2135 13.326 10.2135 12C10.2135 10.674 11.2875 9.59995 12.6135 9.59995C13.9395 9.59995 15.0135 10.674 15.0135 12ZM13.8135 12C13.8135 12.3182 13.687 12.6234 13.462 12.8485C13.237 13.0735 12.9317 13.2 12.6135 13.2C12.2952 13.2 11.99 13.0735 11.7649 12.8485C11.5399 12.6234 11.4135 12.3182 11.4135 12C11.4135 11.6817 11.5399 11.3765 11.7649 11.1514C11.99 10.9264 12.2952 10.8 12.6135 10.8C12.9317 10.8 13.237 10.9264 13.462 11.1514C13.687 11.3765 13.8135 11.6817 13.8135 12ZM9.61348 13.2C9.61348 14.526 8.53948 15.6 7.21348 15.6C5.88748 15.6 4.81348 14.526 4.81348 13.2C4.81348 11.874 5.88748 10.8 7.21348 10.8C8.53948 10.8 9.61348 11.874 9.61348 13.2ZM8.41348 13.2C8.41348 13.5182 8.28705 13.8234 8.062 14.0485C7.83696 14.2735 7.53174 14.4 7.21348 14.4C6.89522 14.4 6.58999 14.2735 6.36495 14.0485C6.1399 13.8234 6.01348 13.5182 6.01348 13.2C6.01348 12.8817 6.1399 12.5765 6.36495 12.3514C6.58999 12.1264 6.89522 12 7.21348 12C7.53174 12 7.83696 12.1264 8.062 12.3514C8.28705 12.5765 8.41348 12.8817 8.41348 13.2ZM1.81348 19.5269C1.81348 17.7137 5.41108 16.8 7.21348 16.8C7.56448 16.8 7.98388 16.8348 8.43148 16.9038C9.23548 16.314 10.7097 15.6 12.6135 15.6C14.5167 15.6 15.9909 16.314 16.7961 16.9038C17.1987 16.8388 17.6057 16.8041 18.0135 16.8C19.8159 16.8 23.4135 17.7137 23.4135 19.5269V22.7999H1.81348V19.5269ZM11.2047 19.2137C11.4135 19.4081 11.4135 19.5095 11.4135 19.5269V21.6H3.01348V19.5269C3.01348 19.5089 3.01348 19.4081 3.22228 19.2137C3.44008 19.0103 3.79948 18.7938 4.28788 18.5958C5.26708 18.1998 6.46348 18 7.21348 18C7.96348 18 9.15988 18.1998 10.1391 18.5958C10.6275 18.7938 10.9869 19.0103 11.2047 19.2137ZM15.0987 17.3135C14.3144 16.9735 13.4684 16.7986 12.6135 16.8C11.6199 16.8 10.7751 17.0315 10.1289 17.3135C11.4579 17.7599 12.6135 18.4992 12.6135 19.5276C12.6135 18.4992 13.7691 17.7605 15.0987 17.3135ZM22.2135 19.5276C22.2135 19.5096 22.2135 19.4081 22.0047 19.2137C21.7869 19.0103 21.4275 18.7938 20.9391 18.5958C19.9599 18.1998 18.7635 18 18.0135 18C17.2635 18 16.0671 18.1998 15.0879 18.5958C14.5995 18.7938 14.2401 19.0103 14.0223 19.2137C13.8135 19.4081 13.8135 19.5095 13.8135 19.5269V21.6H22.2135V19.5269V19.5276ZM18.0135 15.6C19.3395 15.6 20.4135 14.526 20.4135 13.2C20.4135 11.874 19.3395 10.8 18.0135 10.8C16.6875 10.8 15.6135 11.874 15.6135 13.2C15.6135 14.526 16.6875 15.6 18.0135 15.6ZM18.0135 14.4C18.3317 14.4 18.637 14.2735 18.862 14.0485C19.087 13.8234 19.2135 13.5182 19.2135 13.2C19.2135 12.8817 19.087 12.5765 18.862 12.3514C18.637 12.1264 18.3317 12 18.0135 12C17.6952 12 17.39 12.1264 17.1649 12.3514C16.9399 12.5765 16.8135 12.8817 16.8135 13.2C16.8135 13.5182 16.9399 13.8234 17.1649 14.0485C17.39 14.2735 17.6952 14.4 18.0135 14.4Z" fill="url(#paint0_linear_294_10385)"/>
<defs>
<linearGradient id="paint0_linear_294_10385" x1="12.6134" y1="-2.68805" x2="12.6134" y2="26.256" gradientUnits="userSpaceOnUse">
<stop stop-color="#FACB30"/>
<stop offset="0.302269" stop-color="#FEF9C8"/>
<stop offset="0.640625" stop-color="#C49530"/>
<stop offset="1" stop-color="#FFF8C4"/>
</linearGradient>
</defs>
</svg>
