<svg width="25" height="24" viewBox="0 0 25 24" fill="none" xmlns="http://www.w3.org/2000/svg">
<path d="M9.07143 0C5.768 0 3.07143 2.69657 3.07143 6C3.07143 8.06571 4.12571 9.90171 5.72343 10.9826C2.666 12.294 0.5 15.3257 0.5 18.8571H2.21429C2.21429 15.06 5.27429 12 9.07143 12C10.2509 12 11.3463 12.3069 12.3114 12.8314C11.324 14.0514 10.7854 15.5734 10.7857 17.1429C10.7857 20.9194 13.8663 24 17.6429 24C21.4194 24 24.5 20.9194 24.5 17.1429C24.5 13.3663 21.4194 10.2857 17.6429 10.2857C16.1986 10.2877 14.792 10.7467 13.6246 11.5971C13.2457 11.3597 12.836 11.16 12.4194 10.9817C13.2352 10.4316 13.9035 9.6897 14.3659 8.82117C14.8283 7.95263 15.0705 6.98394 15.0714 6C15.0714 2.69657 12.3749 0 9.07143 0ZM9.07143 1.71429C11.4483 1.71429 13.3571 3.62314 13.3571 6C13.3571 8.37686 11.4483 10.2857 9.07143 10.2857C6.69457 10.2857 4.78571 8.37686 4.78571 6C4.78571 3.62314 6.69457 1.71429 9.07143 1.71429ZM17.6429 12C20.4937 12 22.7857 14.292 22.7857 17.1429C22.7857 19.9937 20.4937 22.2857 17.6429 22.2857C14.792 22.2857 12.5 19.9937 12.5 17.1429C12.5 14.292 14.792 12 17.6429 12ZM16.7857 13.7143V16.2857H14.2143V18H16.7857V20.5714H18.5V18H21.0714V16.2857H18.5V13.7143H16.7857Z" fill="url(#paint0_linear_883_25542)"/>
<defs>
<linearGradient id="paint0_linear_883_25542" x1="12.5" y1="-4.32" x2="12.5" y2="27.84" gradientUnits="userSpaceOnUse">
<stop stop-color="#FACB30"/>
<stop offset="0.302269" stop-color="#FEF9C8"/>
<stop offset="0.640625" stop-color="#C49530"/>
<stop offset="1" stop-color="#FFF8C4"/>
</linearGradient>
</defs>
</svg>