<svg width="25" height="24" viewBox="0 0 25 24" fill="none" xmlns="http://www.w3.org/2000/svg">
<path d="M3.38161 15.4451C3.43636 13.6046 2.43511 12.9116 1.21411 12.4537C0.808365 14.0283 1.92811 15.3386 3.38161 15.4451ZM3.65799 7.22693C4.43649 5.56005 3.79149 4.5228 2.84799 3.62018C1.85761 4.90718 2.36686 6.55268 3.65799 7.22693ZM4.09711 11.8672C4.04349 10.0278 5.04361 9.3318 6.26536 8.8758C6.66961 10.4497 5.55061 11.7596 4.09711 11.8672ZM4.09711 14.7041C4.04349 12.8647 5.04361 12.1706 6.26536 11.7134C6.66961 13.2869 5.55061 14.5972 4.09711 14.7041ZM4.09711 9.03143C4.04349 7.1913 5.04361 6.49531 6.26536 6.03818C6.66961 7.61355 5.55061 8.92305 4.09711 9.03143ZM3.38161 12.6086C3.43636 10.7692 2.43511 10.0732 1.21411 9.61718C0.808365 11.1911 1.92811 12.5013 3.38161 12.6086ZM3.38161 9.7728C3.43636 7.9323 2.43511 7.23668 1.21411 6.7788C0.808365 8.35493 1.92811 9.6633 3.38161 9.7728ZM17.17 23.6504H7.30336L12.2372 15.1019L17.17 23.6504ZM9.26349 22.5183H15.2102L12.2369 17.3677L9.26349 22.5183ZM1.94124 17.8271L22.8441 12.1406L22.5336 10.9919L1.62924 16.6792L1.94124 17.8271ZM16.6911 0.237305C16.6911 0.237305 16.8441 3.25268 19.4871 2.99693C19.4871 2.99693 19.7852 0.47768 16.6911 0.237305ZM19.4582 10.0447C19.3163 10.2443 19.1284 10.4069 18.9105 10.5189C18.6927 10.6309 18.4511 10.6889 18.2061 10.6882C17.785 10.6882 17.3725 10.4902 17.0942 10.2127C16.525 9.59168 15.787 8.20343 15.787 8.20343C15.3734 7.3638 15.1517 6.7143 15.1517 6.05768C15.1517 4.65893 16.2839 3.4458 17.6864 3.4458C18.3492 3.44535 18.9856 3.70526 19.4586 4.16955C19.9313 3.70517 20.5675 3.44523 21.2301 3.4458C22.6322 3.4458 23.7644 4.65893 23.7644 6.05768C23.7644 6.7143 23.5424 7.3638 23.1291 8.20343C23.1291 8.20343 22.3911 9.5913 21.8219 10.2127C21.5436 10.4902 21.1311 10.6882 20.7096 10.6882C20.4647 10.689 20.2231 10.631 20.0053 10.519C19.7875 10.407 19.5997 10.2443 19.4579 10.0447H19.4582Z" fill="url(#paint0_linear_306_2920)"/>
<defs>
<linearGradient id="paint0_linear_306_2920" x1="12.4472" y1="-3.97706" x2="12.4472" y2="27.3966" gradientUnits="userSpaceOnUse">
<stop stop-color="#FACB30"/>
<stop offset="0.302269" stop-color="#FEF9C8"/>
<stop offset="0.640625" stop-color="#C49530"/>
<stop offset="1" stop-color="#FFF8C4"/>
</linearGradient>
</defs>
</svg>
