 <svg width="22" height="24" viewBox="0 0 22 24" fill="none" xmlns="http://www.w3.org/2000/svg">
          <g clip-path="url(#clip0_883_26523)">
          <path d="M16.8575 7.2145V5.92878C16.8575 5.81092 16.7611 5.7145 16.6432 5.7145H6.35749C6.23963 5.7145 6.14321 5.81092 6.14321 5.92878V7.2145C6.14321 7.33235 6.23963 7.42878 6.35749 7.42878H16.6432C16.7611 7.42878 16.8575 7.33235 16.8575 7.2145ZM6.35749 9.57164C6.23963 9.57164 6.14321 9.66807 6.14321 9.78592V11.0716C6.14321 11.1895 6.23963 11.2859 6.35749 11.2859H8.82178H11.2861C11.4039 11.2859 11.5003 11.1895 11.5003 11.0716V9.78592C11.5003 9.66807 11.4039 9.57164 11.2861 9.57164H6.35749ZM10.2146 21.6788H4.00035V2.82164H19.0003V12.0359C19.0003 12.1538 19.0968 12.2502 19.2146 12.2502H20.7146C20.8325 12.2502 20.9289 12.1538 20.9289 12.0359V1.75021C20.9289 1.2761 20.5459 0.893066 20.0718 0.893066H2.92892C2.45481 0.893066 2.07178 1.2761 2.07178 1.75021V22.7502C2.07178 23.2243 2.45481 23.6074 2.92892 23.6074H10.2146C10.3325 23.6074 10.4289 23.5109 10.4289 23.3931V21.8931C10.4289 21.7752 10.3325 21.6788 10.2146 21.6788Z" fill="url(#paint0_linear_883_26523)"/>
          <path d="M15.9249 20.5865C15.8543 20.5901 15.7927 20.5717 15.7401 20.5313C15.6875 20.4912 15.6494 20.4384 15.6259 20.3729L15.4578 19.7521C15.3344 19.7107 15.2185 19.6666 15.1102 19.6198C15.0015 19.5727 14.8897 19.5139 14.7749 19.4435L14.134 19.6621C14.0644 19.6847 13.9987 19.6855 13.937 19.6646C13.8753 19.6441 13.8229 19.6064 13.7796 19.5514L13.3876 18.9991C13.3444 18.9441 13.3312 18.8828 13.3479 18.8152C13.3647 18.7476 13.3971 18.6887 13.4451 18.6386L13.9231 18.1995C13.8972 18.0863 13.8808 17.9632 13.874 17.83C13.8672 17.6969 13.871 17.5727 13.8854 17.4576L13.3652 17.0692C13.3124 17.0242 13.2742 16.9689 13.2507 16.9034C13.2271 16.8378 13.234 16.7755 13.2715 16.7164L13.6054 16.1272C13.6429 16.0681 13.6912 16.025 13.7505 15.998C13.8098 15.9713 13.8752 15.9657 13.9468 15.9811L14.6065 16.1335C14.7136 16.0518 14.8188 15.9819 14.9222 15.924C15.0252 15.8665 15.136 15.8109 15.2546 15.7572L15.3588 15.1225C15.3755 15.0549 15.4081 14.9985 15.4563 14.9534C15.5045 14.9078 15.5639 14.8832 15.6345 14.8796L16.3605 14.8427C16.4311 14.8391 16.4926 14.8575 16.5453 14.898C16.5978 14.938 16.6359 14.9908 16.6595 15.0564L16.8275 15.6772C16.9509 15.7186 17.067 15.7627 17.1757 15.8094C17.2841 15.8565 17.3956 15.9153 17.5104 15.9858L18.1513 15.7672C18.2209 15.7446 18.2866 15.7435 18.3483 15.764C18.41 15.7849 18.4625 15.8229 18.5057 15.8779L18.8977 16.4301C18.941 16.4851 18.9542 16.5465 18.9374 16.6141C18.9206 16.6817 18.8882 16.7405 18.8402 16.7907L18.3622 17.2298C18.3882 17.3429 18.4045 17.466 18.4113 17.5992C18.4181 17.7324 18.4143 17.8565 18.3999 17.9717L18.9201 18.3601C18.9729 18.405 19.0111 18.4603 19.0347 18.5259C19.0582 18.5914 19.0513 18.6538 19.0139 18.7129L18.6799 19.302C18.6425 19.3612 18.5941 19.4041 18.5348 19.4307C18.4755 19.4578 18.4101 19.4636 18.3386 19.4481L17.6788 19.2958C17.5718 19.3775 17.4667 19.4473 17.3637 19.5052C17.2603 19.5627 17.1493 19.6183 17.0308 19.672L16.9266 20.3067C16.9098 20.3743 16.8773 20.4307 16.829 20.4759C16.7808 20.5214 16.7214 20.546 16.6508 20.5496L15.9249 20.5865ZM16.2007 18.856C16.5335 18.8391 16.8127 18.7129 17.0385 18.4775C17.2639 18.2418 17.3686 17.967 17.3526 17.6531C17.3366 17.3392 17.2046 17.0764 16.9565 16.8648C16.708 16.6535 16.4173 16.5563 16.0846 16.5732C15.7519 16.5902 15.4728 16.7163 15.2474 16.9517C15.0217 17.1875 14.9168 17.4623 14.9327 17.7762C14.9487 18.0901 15.0809 18.3528 15.3295 18.5645C15.5776 18.7758 15.868 18.8729 16.2007 18.856Z" fill="url(#paint1_linear_883_26523)"/>
          <path d="M18.9458 23.7149L16.7889 19.753C16.7097 19.6075 16.7634 19.4253 16.9089 19.3461L17.5042 19.022C17.6497 18.9428 17.8319 18.9965 17.9111 19.1421L20.0681 23.104C20.1473 23.2495 20.0935 23.4317 19.948 23.5109L19.3528 23.835C19.2073 23.9142 19.0251 23.8604 18.9458 23.7149Z" fill="url(#paint2_linear_883_26523)"/>
          </g>
          <defs>
          <linearGradient id="paint0_linear_883_26523" x1="12.1435" y1="-3.31122" x2="12.1435" y2="27.9874" gradientUnits="userSpaceOnUse">
          <stop stop-color="#FACB30"/>
          <stop offset="0.302269" stop-color="#FEF9C8"/>
          <stop offset="0.640625" stop-color="#C49530"/>
          <stop offset="1" stop-color="#FFF8C4"/>
          </linearGradient>
          <linearGradient id="paint1_linear_883_26523" x1="15.9452" y1="13.8339" x2="16.3343" y2="21.4812" gradientUnits="userSpaceOnUse">
          <stop stop-color="#FACB30"/>
          <stop offset="0.302269" stop-color="#FEF9C8"/>
          <stop offset="0.640625" stop-color="#C49530"/>
          <stop offset="1" stop-color="#FFF8C4"/>
          </linearGradient>
          <linearGradient id="paint2_linear_883_26523" x1="18.3064" y1="17.9335" x2="18.5469" y2="24.8207" gradientUnits="userSpaceOnUse">
          <stop stop-color="#FACB30"/>
          <stop offset="0.302269" stop-color="#FEF9C8"/>
          <stop offset="0.640625" stop-color="#C49530"/>
          <stop offset="1" stop-color="#FFF8C4"/>
          </linearGradient>
          <clipPath id="clip0_883_26523">
          <rect width="20.5714" height="24" fill="white" transform="translate(0.714355)"/>
          </clipPath>
          </defs>
          </svg>