<svg width="17" height="18" viewBox="0 0 17 18" fill="none" xmlns="http://www.w3.org/2000/svg">
<path d="M7.62046 6.39825C6.94733 6.89755 6.13205 7.16826 5.29396 7.17075C4.42171 7.17075 3.62146 6.87825 2.96671 6.39825C2.40421 6.867 1.84321 7.53825 1.38421 8.3655C0.316959 10.2878 0.199209 12.2595 1.12171 12.771C1.53271 13.005 1.96621 12.8295 2.41321 12.399C2.32952 12.8628 2.28761 13.3332 2.28796 13.8045C2.28796 16.008 3.14296 17.7885 4.19521 17.7885C4.82971 17.7885 5.14396 17.1398 5.29471 16.1475C5.44471 17.133 5.75971 17.7885 6.38971 17.7885C7.43746 17.7885 8.29921 16.0072 8.29921 13.8045C8.29921 13.3095 8.25271 12.837 8.17321 12.3998C8.62321 12.831 9.05521 13.0095 9.46771 12.7725C10.388 12.261 10.2687 10.29 9.20221 8.367C8.74471 7.539 8.18221 6.8685 7.61971 6.39975L7.62046 6.39825ZM5.29321 6.42075C5.7148 6.4206 6.13224 6.33742 6.52168 6.17594C6.91112 6.01447 7.26495 5.77787 7.56296 5.47966C7.86096 5.18144 8.09731 4.82745 8.25851 4.43789C8.41971 4.04834 8.50261 3.63084 8.50246 3.20925C8.50231 2.78766 8.41913 2.37022 8.25765 1.98078C8.09618 1.59133 7.85958 1.23751 7.56137 0.939502C7.26315 0.641495 6.90916 0.405145 6.5196 0.243945C6.13004 0.082745 5.71255 -0.000147546 5.29096 1.9715e-07C4.43932 0.000298584 3.62267 0.338899 3.02068 0.941312C2.41869 1.54373 2.08066 2.36061 2.08096 3.21225C2.08126 4.06389 2.41986 4.88054 3.02227 5.48253C3.62469 6.08452 4.44157 6.42255 5.29321 6.42225V6.42075ZM13.2935 10.5233C14.4245 10.5233 15.3425 9.60525 15.3425 8.47275C15.3425 7.34025 14.423 6.42075 13.2927 6.42075C12.7485 6.42095 12.2267 6.63721 11.8419 7.02199C11.4572 7.40677 11.2409 7.92859 11.2407 8.47275C11.2411 9.01691 11.4576 9.53865 11.8425 9.92329C12.2274 10.3079 12.7493 10.524 13.2935 10.524V10.5233ZM15.791 11.766C15.4985 11.2372 15.14 10.8082 14.78 10.5082C14.36 10.8158 13.85 11.0033 13.2927 11.0033C12.7347 11.0033 12.2232 10.8158 11.8055 10.5082C11.4455 10.8082 11.087 11.2372 10.793 11.766C10.1105 12.9945 10.0355 14.2545 10.625 14.5815C10.8875 14.7315 11.165 14.619 11.45 14.3445C11.3978 14.6409 11.3717 14.9413 11.372 15.2423C11.372 16.6523 11.918 17.79 12.5907 17.79C12.9957 17.79 13.1982 17.3752 13.2942 16.7415C13.3902 17.3715 13.5912 17.7892 13.9947 17.7892C14.6645 17.7892 15.215 16.6507 15.215 15.2423C15.215 14.9272 15.185 14.6243 15.134 14.3453C15.4212 14.6205 15.698 14.7353 15.962 14.583C16.5485 14.2575 16.472 12.9967 15.791 11.7682V11.766Z" fill="url(#paint0_linear_306_2953)"/>
<defs>
<linearGradient id="paint0_linear_306_2953" x1="8.42812" y1="-3.2022" x2="8.42812" y2="20.6364" gradientUnits="userSpaceOnUse">
<stop stop-color="#FACB30"/>
<stop offset="0.302269" stop-color="#FEF9C8"/>
<stop offset="0.640625" stop-color="#C49530"/>
<stop offset="1" stop-color="#FFF8C4"/>
</linearGradient>
</defs>
</svg>
