<svg width="78" height="95" viewBox="0 0 78 95" fill="none" xmlns="http://www.w3.org/2000/svg">
<g filter="url(#filter0_dd_2234_2401)">
<path fill-rule="evenodd" clip-rule="evenodd" d="M39.1819 12.0533C39.1893 12.0606 39.1967 12.0679 39.2038 12.0757C39.2038 12.0757 39.2038 12.0757 39.2038 12.0757C45.2857 18.3254 54.9216 23.4862 65.3568 25.7405C65.3543 26.4045 65.3371 30.0725 65.2561 46.9805C65.1506 69.5369 42.1689 80.5435 38.7552 82.0293C35.2319 80.3369 12.5369 69.314 12.6437 46.7577C12.6659 42.0405 12.6833 38.3539 12.6969 35.4756C12.732 28.0368 12.7416 25.9964 12.7441 25.5176C23.2254 23.347 33.0201 18.2488 39.1587 12.0293C39.1661 12.0377 39.174 12.0455 39.1819 12.0533Z" fill="#EFF4F8"/>
</g>
<path d="M17.8613 29.4518L17.7798 46.8531C17.7419 54.8786 21.0996 62.1463 27.7599 68.4589C31.9231 72.403 36.286 74.9318 38.7474 76.1868C41.0853 75.0224 45.5536 72.5123 49.8086 68.5518C56.5277 62.2974 59.9535 55.0575 59.9909 47.0344L60.0726 29.6308C51.9437 27.4669 44.5184 23.7273 39.0174 19.0324C33.4728 23.6808 26.0149 27.3554 17.8613 29.4518V29.4518ZM38.7393 78.0811L38.3363 77.8812C35.882 76.6656 31.0825 73.9788 26.5141 69.6489C19.5065 63.0086 15.9737 55.3364 16.0135 46.8461L16.1014 28.1502L16.7607 27.9899C25.195 25.9167 32.8887 22.1143 38.4252 17.2776L39.0315 16.7477L39.6725 17.3241C45.1601 22.1887 52.8009 26.0422 61.1869 28.1781L61.8447 28.3455L61.7568 47.0413C61.7173 55.5316 58.1128 63.1736 51.043 69.7534C46.5742 73.9138 41.8793 76.5308 39.4784 77.7208L39.4186 77.7487C39.3247 77.7952 39.2309 77.8417 39.144 77.8835L38.7393 78.0811Z" fill="url(#paint0_linear_2234_2401)"/>
<path d="M39.5931 50.6841V54.0006C39.5931 54.4427 39.2342 54.8096 38.7927 54.8096C38.3439 54.8096 37.9849 54.4427 37.9849 54.0006V50.6768C37.3042 50.3705 36.8255 49.6826 36.8255 48.8883C36.8255 47.8042 37.7081 46.9274 38.7927 46.9274C39.8773 46.9274 40.7527 47.8042 40.7527 48.8883C40.7527 49.6899 40.2814 50.3778 39.5931 50.6841ZM30.8411 44.473V56.1707C30.8411 57.4731 46.7372 57.4731 46.7372 56.1707V44.473H30.8411Z" fill="#2B2B2E"/>
<path d="M45.3456 43.6396H43.7366V42.8527C43.7366 40.1232 41.5172 37.9018 38.7899 37.9018C36.0618 37.9018 33.8425 40.1232 33.8425 42.8527V43.6396H32.2334V42.8527C32.2334 39.2354 35.1745 36.2931 38.7899 36.2931C42.4045 36.2931 45.3456 39.2354 45.3456 42.8527V43.6396Z" fill="#2B2B2E"/>
<defs>
<filter id="filter0_dd_2234_2401" x="0.643311" y="0.0292969" width="76.7134" height="94" filterUnits="userSpaceOnUse" color-interpolation-filters="sRGB">
<feFlood flood-opacity="0" result="BackgroundImageFix"/>
<feColorMatrix in="SourceAlpha" type="matrix" values="0 0 0 0 0 0 0 0 0 0 0 0 0 0 0 0 0 0 127 0" result="hardAlpha"/>
<feOffset dx="-4" dy="-4"/>
<feGaussianBlur stdDeviation="4"/>
<feComposite in2="hardAlpha" operator="out"/>
<feColorMatrix type="matrix" values="0 0 0 0 1 0 0 0 0 1 0 0 0 0 1 0 0 0 1 0"/>
<feBlend mode="normal" in2="BackgroundImageFix" result="effect1_dropShadow_2234_2401"/>
<feColorMatrix in="SourceAlpha" type="matrix" values="0 0 0 0 0 0 0 0 0 0 0 0 0 0 0 0 0 0 127 0" result="hardAlpha"/>
<feOffset dx="4" dy="4"/>
<feGaussianBlur stdDeviation="4"/>
<feComposite in2="hardAlpha" operator="out"/>
<feColorMatrix type="matrix" values="0 0 0 0 0.718924 0 0 0 0 0.780295 0 0 0 0 0.841667 0 0 0 1 0"/>
<feBlend mode="normal" in2="effect1_dropShadow_2234_2401" result="effect2_dropShadow_2234_2401"/>
<feBlend mode="normal" in="SourceGraphic" in2="effect2_dropShadow_2234_2401" result="shape"/>
</filter>
<linearGradient id="paint0_linear_2234_2401" x1="38.9289" y1="89.1211" x2="38.9289" y2="6.93435" gradientUnits="userSpaceOnUse">
<stop stop-color="#DDA01A"/>
<stop offset="1" stop-color="#FEC83A"/>
</linearGradient>
</defs>
</svg>
