<svg width="10" height="8" viewBox="0 0 10 8" fill="none" xmlns="http://www.w3.org/2000/svg">
<path d="M2.72505 2.02032C2.53065 2.31193 2.3888 2.70865 2.33984 2.86057L3.09945 3.40705L3.67942 2.67301C3.57574 2.51604 3.46775 2.36196 3.35543 2.21148C3.26363 2.097 3.16641 1.98684 3.06381 1.88208L2.72505 2.02032Z" fill="url(#paint0_radial_48_15253)"/>
<path d="M2.72505 2.02032C2.53065 2.31193 2.3888 2.70865 2.33984 2.86057L3.09945 3.40705L3.67942 2.67301C3.57574 2.51604 3.46775 2.36196 3.35543 2.21148C3.26363 2.097 3.16641 1.98684 3.06381 1.88208L2.72505 2.02032Z" fill="url(#paint1_radial_48_15253)"/>
<path d="M7.25515 2.02032C7.44955 2.31193 7.59105 2.70865 7.64001 2.86057L6.8804 3.40705L6.30078 2.67301C6.36918 2.56788 6.53155 2.3328 6.62479 2.21148C6.71803 2.0898 6.85844 1.94112 6.91604 1.88208L7.25515 2.02032Z" fill="url(#paint2_radial_48_15253)"/>
<path d="M7.25515 2.02032C7.44955 2.31193 7.59105 2.70865 7.64001 2.86057L6.8804 3.40705L6.30078 2.67301C6.36918 2.56788 6.53155 2.3328 6.62479 2.21148C6.71803 2.0898 6.85844 1.94112 6.91604 1.88208L7.25515 2.02032Z" fill="url(#paint3_radial_48_15253)"/>
<path d="M7.25515 2.02032C7.44955 2.31193 7.59105 2.70865 7.64001 2.86057L6.8804 3.40705L6.30078 2.67301C6.36918 2.56788 6.53155 2.3328 6.62479 2.21148C6.71803 2.0898 6.85844 1.94112 6.91604 1.88208L7.25515 2.02032Z" fill="url(#paint4_radial_48_15253)"/>
<g filter="url(#filter0_ii_48_15253)">
<path d="M0.819336 2.04431L1.82554 6.95548C1.84966 7.07248 1.91339 7.17761 2.00627 7.25285C2.09879 7.32845 2.2147 7.36949 2.33386 7.36949H7.64717C7.76669 7.36949 7.88226 7.32809 7.97514 7.25249C8.06766 7.17689 8.13102 7.07177 8.15514 6.95476L9.16134 2.04395L8.83986 1.88735C8.35925 2.23655 7.35232 2.9526 7.0924 3.10956C6.88504 3.23448 6.69458 3.03072 6.65498 2.97276C6.29318 2.44139 5.74094 1.66775 5.5343 1.39595C5.32298 1.1173 5.08394 0.980142 4.99034 0.968262C4.89674 0.980142 4.65733 1.1173 4.44601 1.39595C4.23972 1.66775 3.68749 2.44139 3.32532 2.97276C3.28572 3.03072 3.09527 3.23484 2.88791 3.10956C2.62834 2.9526 1.62141 2.23655 1.14045 1.88735L0.819336 2.04395V2.04431Z" fill="url(#paint5_linear_48_15253)"/>
<path d="M0.819336 2.04431L1.82554 6.95548C1.84966 7.07248 1.91339 7.17761 2.00627 7.25285C2.09879 7.32845 2.2147 7.36949 2.33386 7.36949H7.64717C7.76669 7.36949 7.88226 7.32809 7.97514 7.25249C8.06766 7.17689 8.13102 7.07177 8.15514 6.95476L9.16134 2.04395L8.83986 1.88735C8.35925 2.23655 7.35232 2.9526 7.0924 3.10956C6.88504 3.23448 6.69458 3.03072 6.65498 2.97276C6.29318 2.44139 5.74094 1.66775 5.5343 1.39595C5.32298 1.1173 5.08394 0.980142 4.99034 0.968262C4.89674 0.980142 4.65733 1.1173 4.44601 1.39595C4.23972 1.66775 3.68749 2.44139 3.32532 2.97276C3.28572 3.03072 3.09527 3.23484 2.88791 3.10956C2.62834 2.9526 1.62141 2.23655 1.14045 1.88735L0.819336 2.04395V2.04431Z" fill="url(#paint6_radial_48_15253)"/>
</g>
<path d="M0.818359 2.04407L1.82456 6.95524C1.84868 7.07224 1.91241 7.17736 2.00529 7.2526C2.09781 7.32821 2.21372 7.36924 2.33288 7.36924H7.64619C7.76571 7.36924 7.88128 7.32784 7.97416 7.25224C8.06668 7.17664 8.13004 7.07152 8.15416 6.95452L9.16037 2.04371L8.83888 1.88711C8.35828 2.23631 7.35134 2.95236 7.09142 3.10932C6.88406 3.23424 6.69361 3.03048 6.65401 2.97252C6.2922 2.44115 5.73997 1.66751 5.53332 1.3957C5.322 1.11706 5.08296 0.979898 4.98936 0.968018C4.89576 0.979898 4.65635 1.11706 4.44503 1.3957C4.23875 1.66751 3.68651 2.44115 3.32435 2.97252C3.28474 3.03048 3.09429 3.2346 2.88693 3.10932C2.62737 2.95236 1.62044 2.23631 1.13947 1.88711L0.818359 2.04371V2.04407Z" fill="url(#paint7_linear_48_15253)"/>
<path d="M0.818359 2.04407L1.82456 6.95524C1.84868 7.07224 1.91241 7.17736 2.00529 7.2526C2.09781 7.32821 2.21372 7.36924 2.33288 7.36924H7.64619C7.76571 7.36924 7.88128 7.32784 7.97416 7.25224C8.06668 7.17664 8.13004 7.07152 8.15416 6.95452L9.16037 2.04371L8.83888 1.88711C8.35828 2.23631 7.35134 2.95236 7.09142 3.10932C6.88406 3.23424 6.69361 3.03048 6.65401 2.97252C6.2922 2.44115 5.73997 1.66751 5.53332 1.3957C5.322 1.11706 5.08296 0.979898 4.98936 0.968018C4.89576 0.979898 4.65635 1.11706 4.44503 1.3957C4.23875 1.66751 3.68651 2.44115 3.32435 2.97252C3.28474 3.03048 3.09429 3.2346 2.88693 3.10932C2.62737 2.95236 1.62044 2.23631 1.13947 1.88711L0.818359 2.04371V2.04407Z" fill="url(#paint8_linear_48_15253)"/>
<path d="M0.818359 2.04407L1.82456 6.30723C1.84868 6.42423 1.91241 6.52936 2.00529 6.6046C2.09781 6.6802 2.21372 6.72124 2.33288 6.72124H7.64619C7.76571 6.72124 7.88128 6.67983 7.97416 6.60423C8.06668 6.52863 8.13004 6.42351 8.15416 6.30651L9.16037 2.04371L8.83888 1.88711C8.35828 2.23631 7.35134 2.95236 7.09142 3.10932C6.88406 3.23424 6.69361 3.03048 6.65401 2.97252C6.2922 2.44115 5.73997 1.66751 5.53332 1.3957C5.322 1.11706 5.08296 0.979898 4.98936 0.968018C4.89576 0.979898 4.65635 1.11706 4.44503 1.3957C4.23875 1.66751 3.68651 2.44115 3.32435 2.97252C3.28474 3.03048 3.09429 3.2346 2.88693 3.10932C2.62737 2.95236 1.62044 2.23631 1.13947 1.88711L0.818359 2.04371V2.04407Z" fill="url(#paint9_linear_48_15253)"/>
<path d="M0.818359 2.04407L1.82456 6.30723C1.84868 6.42423 1.91241 6.52936 2.00529 6.6046C2.09781 6.6802 2.21372 6.72124 2.33288 6.72124H7.64619C7.76571 6.72124 7.88128 6.67983 7.97416 6.60423C8.06668 6.52863 8.13004 6.42351 8.15416 6.30651L9.16037 2.04371L8.83888 1.88711C8.35828 2.23631 7.35134 2.95236 7.09142 3.10932C6.88406 3.23424 6.69361 3.03048 6.65401 2.97252C6.2922 2.44115 5.73997 1.66751 5.53332 1.3957C5.322 1.11706 5.08296 0.979898 4.98936 0.968018C4.89576 0.979898 4.65635 1.11706 4.44503 1.3957C4.23875 1.66751 3.68651 2.44115 3.32435 2.97252C3.28474 3.03048 3.09429 3.2346 2.88693 3.10932C2.62737 2.95236 1.62044 2.23631 1.13947 1.88711L0.818359 2.04371V2.04407Z" fill="url(#paint10_radial_48_15253)"/>
<path d="M0.818359 2.04407L1.82456 6.95524C1.84868 7.07224 1.91241 7.17736 2.00529 7.2526C2.09781 7.32821 2.21372 7.36924 2.33288 7.36924H7.64619C7.76571 7.36924 7.88128 7.32784 7.97416 7.25224C8.06668 7.17664 8.13004 7.07152 8.15416 6.95452L9.16037 2.04371L8.83888 1.88711C8.35828 2.23631 7.35134 2.95236 7.09142 3.10932C6.88406 3.23424 6.69361 3.03048 6.65401 2.97252C6.2922 2.44115 5.73997 1.66751 5.53332 1.3957C5.322 1.11706 5.08296 0.979898 4.98936 0.968018C4.89576 0.979898 4.65635 1.11706 4.44503 1.3957C4.23875 1.66751 3.68651 2.44115 3.32435 2.97252C3.28474 3.03048 3.09429 3.2346 2.88693 3.10932C2.62737 2.95236 1.62044 2.23631 1.13947 1.88711L0.818359 2.04371V2.04407Z" fill="url(#paint11_linear_48_15253)"/>
<path d="M1.40109 1.96917C1.40109 2.08833 1.35356 2.20316 1.26896 2.2874C1.18436 2.37201 1.06988 2.41953 0.950356 2.41953C0.830835 2.41953 0.716372 2.37201 0.631771 2.2874C0.547531 2.20316 0.5 2.08833 0.5 1.96917C0.5 1.84964 0.547531 1.73516 0.631771 1.65056C0.716372 1.56596 0.830835 1.5188 0.950356 1.5188C1.06988 1.5188 1.18437 1.56596 1.26861 1.65056C1.35321 1.73516 1.40073 1.84964 1.40073 1.96917H1.40109Z" fill="url(#paint12_radial_48_15253)"/>
<path d="M1.40109 1.96917C1.40109 2.08833 1.35356 2.20316 1.26896 2.2874C1.18436 2.37201 1.06988 2.41953 0.950356 2.41953C0.830835 2.41953 0.716372 2.37201 0.631771 2.2874C0.547531 2.20316 0.5 2.08833 0.5 1.96917C0.5 1.84964 0.547531 1.73516 0.631771 1.65056C0.716372 1.56596 0.830835 1.5188 0.950356 1.5188C1.06988 1.5188 1.18437 1.56596 1.26861 1.65056C1.35321 1.73516 1.40073 1.84964 1.40073 1.96917H1.40109Z" fill="url(#paint13_radial_48_15253)"/>
<path d="M1.40109 1.96917C1.40109 2.08833 1.35356 2.20316 1.26896 2.2874C1.18436 2.37201 1.06988 2.41953 0.950356 2.41953C0.830835 2.41953 0.716372 2.37201 0.631771 2.2874C0.547531 2.20316 0.5 2.08833 0.5 1.96917C0.5 1.84964 0.547531 1.73516 0.631771 1.65056C0.716372 1.56596 0.830835 1.5188 0.950356 1.5188C1.06988 1.5188 1.18437 1.56596 1.26861 1.65056C1.35321 1.73516 1.40073 1.84964 1.40073 1.96917H1.40109Z" fill="url(#paint14_radial_48_15253)"/>
<path d="M1.40109 1.96917C1.40109 2.08833 1.35356 2.20316 1.26896 2.2874C1.18436 2.37201 1.06988 2.41953 0.950356 2.41953C0.830835 2.41953 0.716372 2.37201 0.631771 2.2874C0.547531 2.20316 0.5 2.08833 0.5 1.96917C0.5 1.84964 0.547531 1.73516 0.631771 1.65056C0.716372 1.56596 0.830835 1.5188 0.950356 1.5188C1.06988 1.5188 1.18437 1.56596 1.26861 1.65056C1.35321 1.73516 1.40073 1.84964 1.40073 1.96917H1.40109Z" fill="url(#paint15_linear_48_15253)"/>
<path d="M3.13684 2.053C3.22289 2.00259 3.28985 1.92519 3.32693 1.83267C3.36437 1.74015 3.36978 1.63791 3.34277 1.54215C3.31577 1.44603 3.25745 1.36179 3.17717 1.30275C3.09724 1.24335 2.9997 1.21239 2.89998 1.21419C2.80026 1.21635 2.70412 1.25127 2.62672 1.31391C2.54896 1.37655 2.49424 1.46331 2.4712 1.56015C2.44816 1.65699 2.45789 1.75887 2.49893 1.84995C2.53997 1.94068 2.6098 2.0152 2.698 2.062C2.7412 2.04544 2.78909 2.04328 2.83373 2.05552C2.90321 2.07568 3.01698 2.10088 3.13722 2.053H3.13684Z" fill="url(#paint16_radial_48_15253)"/>
<path d="M3.13684 2.053C3.22289 2.00259 3.28985 1.92519 3.32693 1.83267C3.36437 1.74015 3.36978 1.63791 3.34277 1.54215C3.31577 1.44603 3.25745 1.36179 3.17717 1.30275C3.09724 1.24335 2.9997 1.21239 2.89998 1.21419C2.80026 1.21635 2.70412 1.25127 2.62672 1.31391C2.54896 1.37655 2.49424 1.46331 2.4712 1.56015C2.44816 1.65699 2.45789 1.75887 2.49893 1.84995C2.53997 1.94068 2.6098 2.0152 2.698 2.062C2.7412 2.04544 2.78909 2.04328 2.83373 2.05552C2.90321 2.07568 3.01698 2.10088 3.13722 2.053H3.13684Z" fill="url(#paint17_radial_48_15253)"/>
<path d="M3.13684 2.053C3.22289 2.00259 3.28985 1.92519 3.32693 1.83267C3.36437 1.74015 3.36978 1.63791 3.34277 1.54215C3.31577 1.44603 3.25745 1.36179 3.17717 1.30275C3.09724 1.24335 2.9997 1.21239 2.89998 1.21419C2.80026 1.21635 2.70412 1.25127 2.62672 1.31391C2.54896 1.37655 2.49424 1.46331 2.4712 1.56015C2.44816 1.65699 2.45789 1.75887 2.49893 1.84995C2.53997 1.94068 2.6098 2.0152 2.698 2.062C2.7412 2.04544 2.78909 2.04328 2.83373 2.05552C2.90321 2.07568 3.01698 2.10088 3.13722 2.053H3.13684Z" fill="url(#paint18_radial_48_15253)"/>
<path d="M3.13684 2.053C3.22289 2.00259 3.28985 1.92519 3.32693 1.83267C3.36437 1.74015 3.36978 1.63791 3.34277 1.54215C3.31577 1.44603 3.25745 1.36179 3.17717 1.30275C3.09724 1.24335 2.9997 1.21239 2.89998 1.21419C2.80026 1.21635 2.70412 1.25127 2.62672 1.31391C2.54896 1.37655 2.49424 1.46331 2.4712 1.56015C2.44816 1.65699 2.45789 1.75887 2.49893 1.84995C2.53997 1.94068 2.6098 2.0152 2.698 2.062C2.7412 2.04544 2.78909 2.04328 2.83373 2.05552C2.90321 2.07568 3.01698 2.10088 3.13722 2.053H3.13684Z" fill="url(#paint19_linear_48_15253)"/>
<g filter="url(#filter1_i_48_15253)">
<path d="M6.84277 2.05324C6.75673 2.00284 6.68976 1.92544 6.65268 1.83292C6.6156 1.7404 6.60983 1.63816 6.63719 1.5424C6.66419 1.44628 6.72217 1.36203 6.80245 1.30299C6.88237 1.24359 6.97992 1.21263 7.07964 1.21443C7.17936 1.21659 7.27549 1.25151 7.35325 1.31415C7.43065 1.37679 7.48538 1.46355 7.50842 1.56039C7.53146 1.65723 7.52173 1.75912 7.48069 1.8502C7.43965 1.94092 7.36982 2.01544 7.28161 2.06224C7.23841 2.04568 7.19089 2.04352 7.14589 2.05576C7.07677 2.07592 6.96264 2.10112 6.8424 2.05324H6.84277Z" fill="url(#paint20_linear_48_15253)"/>
<path d="M6.84277 2.05324C6.75673 2.00284 6.68976 1.92544 6.65268 1.83292C6.6156 1.7404 6.60983 1.63816 6.63719 1.5424C6.66419 1.44628 6.72217 1.36203 6.80245 1.30299C6.88237 1.24359 6.97992 1.21263 7.07964 1.21443C7.17936 1.21659 7.27549 1.25151 7.35325 1.31415C7.43065 1.37679 7.48538 1.46355 7.50842 1.56039C7.53146 1.65723 7.52173 1.75912 7.48069 1.8502C7.43965 1.94092 7.36982 2.01544 7.28161 2.06224C7.23841 2.04568 7.19089 2.04352 7.14589 2.05576C7.07677 2.07592 6.96264 2.10112 6.8424 2.05324H6.84277Z" fill="url(#paint21_linear_48_15253)"/>
</g>
<g filter="url(#filter2_f_48_15253)">
<path d="M5.05859 1.13754C5.11439 1.13106 5.25694 1.15986 5.38258 1.32978C5.50823 1.49971 6.27217 2.58836 6.63829 3.11144C6.70921 3.22125 6.91873 3.39404 7.18981 3.20792C7.46125 3.02144 8.3339 2.39 8.66294 2.17039" stroke="url(#paint22_linear_48_15253)" stroke-width="0.15"/>
<path d="M5.05859 1.13754C5.11439 1.13106 5.25694 1.15986 5.38258 1.32978C5.50823 1.49971 6.27217 2.58836 6.63829 3.11144C6.70921 3.22125 6.91873 3.39404 7.18981 3.20792C7.46125 3.02144 8.3339 2.39 8.66294 2.17039" stroke="url(#paint23_radial_48_15253)" stroke-width="0.15"/>
</g>
<path d="M4.98787 1.16677C5.31008 1.16677 5.57143 0.90577 5.57143 0.583567C5.57143 0.261364 5.31008 0 4.98787 0C4.66567 0 4.4043 0.261364 4.4043 0.583567C4.4043 0.90577 4.66567 1.16677 4.98787 1.16677Z" fill="url(#paint24_radial_48_15253)"/>
<path d="M4.98787 1.16677C5.31008 1.16677 5.57143 0.90577 5.57143 0.583567C5.57143 0.261364 5.31008 0 4.98787 0C4.66567 0 4.4043 0.261364 4.4043 0.583567C4.4043 0.90577 4.66567 1.16677 4.98787 1.16677Z" fill="url(#paint25_radial_48_15253)"/>
<path d="M4.98787 1.16677C5.31008 1.16677 5.57143 0.90577 5.57143 0.583567C5.57143 0.261364 5.31008 0 4.98787 0C4.66567 0 4.4043 0.261364 4.4043 0.583567C4.4043 0.90577 4.66567 1.16677 4.98787 1.16677Z" fill="url(#paint26_radial_48_15253)"/>
<path d="M4.98787 1.16677C5.31008 1.16677 5.57143 0.90577 5.57143 0.583567C5.57143 0.261364 5.31008 0 4.98787 0C4.66567 0 4.4043 0.261364 4.4043 0.583567C4.4043 0.90577 4.66567 1.16677 4.98787 1.16677Z" fill="url(#paint27_linear_48_15253)"/>
<path d="M9.49972 1.96917C9.49972 2.08833 9.45219 2.20316 9.36795 2.2874C9.28335 2.37201 9.16888 2.41953 9.04936 2.41953C8.92984 2.41953 8.81536 2.37201 8.73076 2.2874C8.64615 2.20316 8.59863 2.08833 8.59863 1.96917C8.59863 1.84964 8.64615 1.73516 8.73076 1.65056C8.815 1.56596 8.92983 1.5188 9.04899 1.5188C9.16851 1.5188 9.283 1.56596 9.3676 1.65056C9.45184 1.73516 9.49937 1.84964 9.49937 1.96917H9.49972Z" fill="url(#paint28_radial_48_15253)"/>
<path d="M9.49972 1.96917C9.49972 2.08833 9.45219 2.20316 9.36795 2.2874C9.28335 2.37201 9.16888 2.41953 9.04936 2.41953C8.92984 2.41953 8.81536 2.37201 8.73076 2.2874C8.64615 2.20316 8.59863 2.08833 8.59863 1.96917C8.59863 1.84964 8.64615 1.73516 8.73076 1.65056C8.815 1.56596 8.92983 1.5188 9.04899 1.5188C9.16851 1.5188 9.283 1.56596 9.3676 1.65056C9.45184 1.73516 9.49937 1.84964 9.49937 1.96917H9.49972Z" fill="url(#paint29_radial_48_15253)"/>
<path d="M9.49972 1.96917C9.49972 2.08833 9.45219 2.20316 9.36795 2.2874C9.28335 2.37201 9.16888 2.41953 9.04936 2.41953C8.92984 2.41953 8.81536 2.37201 8.73076 2.2874C8.64615 2.20316 8.59863 2.08833 8.59863 1.96917C8.59863 1.84964 8.64615 1.73516 8.73076 1.65056C8.815 1.56596 8.92983 1.5188 9.04899 1.5188C9.16851 1.5188 9.283 1.56596 9.3676 1.65056C9.45184 1.73516 9.49937 1.84964 9.49937 1.96917H9.49972Z" fill="url(#paint30_radial_48_15253)"/>
<path d="M9.49972 1.96917C9.49972 2.08833 9.45219 2.20316 9.36795 2.2874C9.28335 2.37201 9.16888 2.41953 9.04936 2.41953C8.92984 2.41953 8.81536 2.37201 8.73076 2.2874C8.64615 2.20316 8.59863 2.08833 8.59863 1.96917C8.59863 1.84964 8.64615 1.73516 8.73076 1.65056C8.815 1.56596 8.92983 1.5188 9.04899 1.5188C9.16851 1.5188 9.283 1.56596 9.3676 1.65056C9.45184 1.73516 9.49937 1.84964 9.49937 1.96917H9.49972Z" fill="url(#paint31_linear_48_15253)"/>
<defs>
<filter id="filter0_ii_48_15253" x="0.419336" y="0.868262" width="9.1418" height="6.50112" filterUnits="userSpaceOnUse" color-interpolation-filters="sRGB">
<feFlood flood-opacity="0" result="BackgroundImageFix"/>
<feBlend mode="normal" in="SourceGraphic" in2="BackgroundImageFix" result="shape"/>
<feColorMatrix in="SourceAlpha" type="matrix" values="0 0 0 0 0 0 0 0 0 0 0 0 0 0 0 0 0 0 127 0" result="hardAlpha"/>
<feOffset dx="0.4" dy="-0.1"/>
<feGaussianBlur stdDeviation="0.25"/>
<feComposite in2="hardAlpha" operator="arithmetic" k2="-1" k3="1"/>
<feColorMatrix type="matrix" values="0 0 0 0 0.803922 0 0 0 0 0.580392 0 0 0 0 0.262745 0 0 0 1 0"/>
<feBlend mode="normal" in2="shape" result="effect1_innerShadow_48_15253"/>
<feColorMatrix in="SourceAlpha" type="matrix" values="0 0 0 0 0 0 0 0 0 0 0 0 0 0 0 0 0 0 127 0" result="hardAlpha"/>
<feOffset dx="-0.4" dy="-0.1"/>
<feGaussianBlur stdDeviation="0.25"/>
<feComposite in2="hardAlpha" operator="arithmetic" k2="-1" k3="1"/>
<feColorMatrix type="matrix" values="0 0 0 0 0.894118 0 0 0 0 0.686275 0 0 0 0 0.301961 0 0 0 1 0"/>
<feBlend mode="normal" in2="effect1_innerShadow_48_15253" result="effect2_innerShadow_48_15253"/>
</filter>
<filter id="filter1_i_48_15253" x="6.62012" y="1.21436" width="0.900391" height="0.866211" filterUnits="userSpaceOnUse" color-interpolation-filters="sRGB">
<feFlood flood-opacity="0" result="BackgroundImageFix"/>
<feBlend mode="normal" in="SourceGraphic" in2="BackgroundImageFix" result="shape"/>
<feColorMatrix in="SourceAlpha" type="matrix" values="0 0 0 0 0 0 0 0 0 0 0 0 0 0 0 0 0 0 127 0" result="hardAlpha"/>
<feOffset/>
<feGaussianBlur stdDeviation="0.125"/>
<feComposite in2="hardAlpha" operator="arithmetic" k2="-1" k3="1"/>
<feColorMatrix type="matrix" values="0 0 0 0 0.756863 0 0 0 0 0.619608 0 0 0 0 0.321569 0 0 0 1 0"/>
<feBlend mode="normal" in2="shape" result="effect1_innerShadow_48_15253"/>
</filter>
<filter id="filter2_f_48_15253" x="4.8998" y="0.911768" width="3.9543" height="2.60347" filterUnits="userSpaceOnUse" color-interpolation-filters="sRGB">
<feFlood flood-opacity="0" result="BackgroundImageFix"/>
<feBlend mode="normal" in="SourceGraphic" in2="BackgroundImageFix" result="shape"/>
<feGaussianBlur stdDeviation="0.075" result="effect1_foregroundBlur_48_15253"/>
</filter>
<radialGradient id="paint0_radial_48_15253" cx="0" cy="0" r="1" gradientUnits="userSpaceOnUse" gradientTransform="translate(2.61093 2.49877) rotate(15.9453) scale(1.03185 2.57544)">
<stop stop-color="#FBC96E"/>
<stop offset="1" stop-color="#FAC567"/>
</radialGradient>
<radialGradient id="paint1_radial_48_15253" cx="0" cy="0" r="1" gradientUnits="userSpaceOnUse" gradientTransform="translate(3.21825 2.72125) rotate(-156.753) scale(0.782318 2.35286)">
<stop offset="0.765" stop-color="#D89F3A" stop-opacity="0"/>
<stop offset="0.911" stop-color="#DAA139"/>
</radialGradient>
<radialGradient id="paint2_radial_48_15253" cx="0" cy="0" r="1" gradientUnits="userSpaceOnUse" gradientTransform="translate(7.54136 3.12589) rotate(-125.455) scale(0.820288 0.84129)">
<stop offset="0.254" stop-color="#BF812A"/>
<stop offset="1" stop-color="#CE9333"/>
</radialGradient>
<radialGradient id="paint3_radial_48_15253" cx="0" cy="0" r="1" gradientUnits="userSpaceOnUse" gradientTransform="translate(6.90847 2.72629) rotate(-23.0907) scale(0.709871 1.84932)">
<stop offset="0.734" stop-color="#E9BB61" stop-opacity="0"/>
<stop offset="0.929" stop-color="#E9BB61"/>
</radialGradient>
<radialGradient id="paint4_radial_48_15253" cx="0" cy="0" r="1" gradientUnits="userSpaceOnUse" gradientTransform="translate(7.32896 2.92861) rotate(-142.922) scale(1.11668 1.88389)">
<stop offset="0.773" stop-color="#C18739" stop-opacity="0"/>
<stop offset="0.948" stop-color="#C18739"/>
</radialGradient>
<linearGradient id="paint5_linear_48_15253" x1="7.32496" y1="4.77422" x2="1.60198" y2="6.10911" gradientUnits="userSpaceOnUse">
<stop stop-color="#FFBC5D"/>
<stop offset="0.304" stop-color="#FCAD6A"/>
<stop offset="1" stop-color="#CB7547"/>
</linearGradient>
<radialGradient id="paint6_radial_48_15253" cx="0" cy="0" r="1" gradientUnits="userSpaceOnUse" gradientTransform="translate(3.73789 8.42826) rotate(-69.4212) scale(3.56446 6.9376)">
<stop stop-color="#F67B4E"/>
<stop offset="1" stop-color="#F67B4E" stop-opacity="0"/>
</radialGradient>
<linearGradient id="paint7_linear_48_15253" x1="1.51713" y1="5.97207" x2="2.3977" y2="5.79027" gradientUnits="userSpaceOnUse">
<stop stop-color="#C2794C"/>
<stop offset="1" stop-color="#E07648" stop-opacity="0"/>
</linearGradient>
<linearGradient id="paint8_linear_48_15253" x1="4.98936" y1="-0.183994" x2="4.98936" y2="8.39309" gradientUnits="userSpaceOnUse">
<stop stop-color="#FACB30"/>
<stop offset="0.302269" stop-color="#FEF9C8"/>
<stop offset="0.640625" stop-color="#C49530"/>
<stop offset="1" stop-color="#FFF8C4"/>
</linearGradient>
<linearGradient id="paint9_linear_48_15253" x1="5.45557" y1="7.46033" x2="5.45557" y2="7.07548" gradientUnits="userSpaceOnUse">
<stop offset="0.184" stop-color="#FF6F8C"/>
<stop offset="1" stop-color="#FF7A6A" stop-opacity="0"/>
</linearGradient>
<radialGradient id="paint10_radial_48_15253" cx="0" cy="0" r="1" gradientUnits="userSpaceOnUse" gradientTransform="translate(8.89756 2.12507) rotate(113.385) scale(0.816215 0.676577)">
<stop offset="0.377" stop-color="#DD9049"/>
<stop offset="1" stop-color="#F8BF60" stop-opacity="0"/>
</radialGradient>
<linearGradient id="paint11_linear_48_15253" x1="4.98936" y1="-0.183994" x2="4.98936" y2="8.39309" gradientUnits="userSpaceOnUse">
<stop stop-color="#FACB30"/>
<stop offset="0.302269" stop-color="#FEF9C8"/>
<stop offset="0.640625" stop-color="#C49530"/>
<stop offset="1" stop-color="#FFF8C4"/>
</linearGradient>
<radialGradient id="paint12_radial_48_15253" cx="0" cy="0" r="1" gradientUnits="userSpaceOnUse" gradientTransform="translate(1.31469 1.66136) rotate(135.198) scale(0.963105 1.00198)">
<stop offset="0.172" stop-color="#E7C04E"/>
<stop offset="1" stop-color="#D9972A"/>
</radialGradient>
<radialGradient id="paint13_radial_48_15253" cx="0" cy="0" r="1" gradientUnits="userSpaceOnUse" gradientTransform="translate(0.849202 2.47821) rotate(-71.3311) scale(0.537651 0.582398)">
<stop offset="0.065" stop-color="#DF8089"/>
<stop offset="1" stop-color="#DF8089" stop-opacity="0"/>
</radialGradient>
<radialGradient id="paint14_radial_48_15253" cx="0" cy="0" r="1" gradientUnits="userSpaceOnUse" gradientTransform="translate(1.35069 1.68188) rotate(141.017) scale(0.455839 0.235564)">
<stop stop-color="#FFDE71"/>
<stop offset="1" stop-color="#FFDE71" stop-opacity="0"/>
</radialGradient>
<linearGradient id="paint15_linear_48_15253" x1="0.950363" y1="1.35644" x2="0.950363" y2="2.56353" gradientUnits="userSpaceOnUse">
<stop stop-color="#FACB30"/>
<stop offset="0.302269" stop-color="#FEF9C8"/>
<stop offset="0.640625" stop-color="#C49530"/>
<stop offset="1" stop-color="#FFF8C4"/>
</linearGradient>
<radialGradient id="paint16_radial_48_15253" cx="0" cy="0" r="1" gradientUnits="userSpaceOnUse" gradientTransform="translate(3.27401 1.35099) rotate(136.302) scale(0.945196 0.982356)">
<stop offset="0.172" stop-color="#E7C04E"/>
<stop offset="1" stop-color="#D9972A"/>
</radialGradient>
<radialGradient id="paint17_radial_48_15253" cx="0" cy="0" r="1" gradientUnits="userSpaceOnUse" gradientTransform="translate(3.30929 1.37115) rotate(142.093) scale(0.449095 0.230061)">
<stop stop-color="#FFDE71"/>
<stop offset="1" stop-color="#FFDE71" stop-opacity="0"/>
</radialGradient>
<radialGradient id="paint18_radial_48_15253" cx="0" cy="0" r="1" gradientUnits="userSpaceOnUse" gradientTransform="translate(2.90969 2.13544) rotate(-76.7987) scale(0.421151 0.561695)">
<stop stop-color="#E4A122"/>
<stop offset="1" stop-color="#E4A122" stop-opacity="0"/>
</radialGradient>
<linearGradient id="paint19_linear_48_15253" x1="2.90933" y1="1.0583" x2="2.90933" y2="2.21932" gradientUnits="userSpaceOnUse">
<stop stop-color="#FACB30"/>
<stop offset="0.302269" stop-color="#FEF9C8"/>
<stop offset="0.640625" stop-color="#C49530"/>
<stop offset="1" stop-color="#FFF8C4"/>
</linearGradient>
<linearGradient id="paint20_linear_48_15253" x1="7.07029" y1="1.05855" x2="7.07029" y2="2.21956" gradientUnits="userSpaceOnUse">
<stop stop-color="#FACB30"/>
<stop offset="0.302269" stop-color="#FEF9C8"/>
<stop offset="0.640625" stop-color="#C49530"/>
<stop offset="1" stop-color="#FFF8C4"/>
</linearGradient>
<linearGradient id="paint21_linear_48_15253" x1="7.07029" y1="1.05855" x2="7.07029" y2="2.21956" gradientUnits="userSpaceOnUse">
<stop stop-color="#FACB30"/>
<stop offset="0.302269" stop-color="#FEF9C8"/>
<stop offset="0.640625" stop-color="#C49530"/>
<stop offset="1" stop-color="#FFF8C4"/>
</linearGradient>
<linearGradient id="paint22_linear_48_15253" x1="5.05895" y1="1.07202" x2="7.11421" y2="3.66368" gradientUnits="userSpaceOnUse">
<stop stop-color="#FFD678"/>
<stop offset="1" stop-color="#FFD678" stop-opacity="0"/>
</linearGradient>
<radialGradient id="paint23_radial_48_15253" cx="0" cy="0" r="1" gradientUnits="userSpaceOnUse" gradientTransform="translate(7.11421 3.4106) rotate(-34.668) scale(2.10488 0.563772)">
<stop offset="0.289" stop-color="#FFD175"/>
<stop offset="1" stop-color="#FFD175" stop-opacity="0"/>
</radialGradient>
<radialGradient id="paint24_radial_48_15253" cx="0" cy="0" r="1" gradientUnits="userSpaceOnUse" gradientTransform="translate(5.45515 0.262083) rotate(125.606) scale(1.11289 0.94487)">
<stop offset="0.376" stop-color="#F3D154"/>
<stop offset="1" stop-color="#CC9848"/>
</radialGradient>
<radialGradient id="paint25_radial_48_15253" cx="0" cy="0" r="1" gradientUnits="userSpaceOnUse" gradientTransform="translate(4.8777 1.16677) rotate(-79.3129) scale(0.593689 0.705731)">
<stop stop-color="#E78F5E"/>
<stop offset="1" stop-color="#E78F5E" stop-opacity="0"/>
</radialGradient>
<radialGradient id="paint26_radial_48_15253" cx="0" cy="0" r="1" gradientUnits="userSpaceOnUse" gradientTransform="translate(5.23231 0.778328) rotate(-146.725) scale(1.16249 1.3904)">
<stop offset="0.557" stop-color="#E9C251" stop-opacity="0"/>
<stop offset="1" stop-color="#B49858"/>
</radialGradient>
<linearGradient id="paint27_linear_48_15253" x1="4.98786" y1="-0.209882" x2="4.98786" y2="1.35361" gradientUnits="userSpaceOnUse">
<stop stop-color="#FACB30"/>
<stop offset="0.302269" stop-color="#FEF9C8"/>
<stop offset="0.640625" stop-color="#C49530"/>
<stop offset="1" stop-color="#FFF8C4"/>
</linearGradient>
<radialGradient id="paint28_radial_48_15253" cx="0" cy="0" r="1" gradientUnits="userSpaceOnUse" gradientTransform="translate(9.41368 1.66172) rotate(135.198) scale(0.963105 1.00198)">
<stop offset="0.172" stop-color="#F8CB54"/>
<stop offset="1" stop-color="#EAA34B"/>
</radialGradient>
<radialGradient id="paint29_radial_48_15253" cx="0" cy="0" r="1" gradientUnits="userSpaceOnUse" gradientTransform="translate(8.9482 2.47821) rotate(-71.3305) scale(0.537647 0.726737)">
<stop offset="0.16" stop-color="#F1907C"/>
<stop offset="1" stop-color="#F1907C" stop-opacity="0"/>
</radialGradient>
<radialGradient id="paint30_radial_48_15253" cx="0" cy="0" r="1" gradientUnits="userSpaceOnUse" gradientTransform="translate(9.44968 1.68224) rotate(141.017) scale(0.455839 0.235564)">
<stop stop-color="#FFDE71"/>
<stop offset="1" stop-color="#FFDE71" stop-opacity="0"/>
</radialGradient>
<linearGradient id="paint31_linear_48_15253" x1="9.04936" y1="1.35644" x2="9.04936" y2="2.56353" gradientUnits="userSpaceOnUse">
<stop stop-color="#FACB30"/>
<stop offset="0.302269" stop-color="#FEF9C8"/>
<stop offset="0.640625" stop-color="#C49530"/>
<stop offset="1" stop-color="#FFF8C4"/>
</linearGradient>
</defs>
</svg>
