<svg width="23" height="24" viewBox="0 0 23 24" fill="none" xmlns="http://www.w3.org/2000/svg">
<g clip-path="url(#clip0_294_10352)">
<path d="M8.00272 13.3555C7.8582 13.3555 7.71959 13.2981 7.6174 13.1959C7.51521 13.0937 7.4578 12.9551 7.4578 12.8106C7.4578 12.666 7.51521 12.5274 7.6174 12.4252C7.71959 12.323 7.8582 12.2656 8.00272 12.2656H9.91092C9.79305 12.4953 9.68807 12.7313 9.59647 12.9727C9.54764 13.0977 9.50467 13.2246 9.46366 13.3633L8.00272 13.3555ZM17.6043 22.4336C17.565 22.6466 17.4897 22.8514 17.3816 23.0391C17.2142 23.3323 16.9719 23.5757 16.6795 23.7446C16.3872 23.9134 16.0552 24.0015 15.7176 24C15.4913 24.001 15.2666 23.9627 15.0535 23.8867C14.8392 23.8108 14.6406 23.6963 14.4676 23.5488C14.2957 23.4072 14.1491 23.2375 14.034 23.0469C13.9229 22.8534 13.8468 22.6418 13.8094 22.4219C13.8002 22.3683 13.8125 22.3133 13.8436 22.2687C13.8746 22.2242 13.922 22.1936 13.9754 22.1836H17.407C17.4588 22.1836 17.5085 22.2042 17.5451 22.2408C17.5818 22.2774 17.6023 22.3271 17.6023 22.3789C17.6044 22.3971 17.6044 22.4154 17.6023 22.4336H17.6043ZM16.7898 11.3008C16.9545 11.3432 17.1163 11.396 17.2742 11.459C17.5045 11.5506 17.7272 11.6603 17.9402 11.7871L17.9656 11.8027C18.1648 11.9259 18.3542 12.0644 18.532 12.2168C18.7146 12.3729 18.8839 12.5441 19.0379 12.7285C19.1928 12.9155 19.3313 13.1154 19.4519 13.3262C19.5744 13.5381 19.6795 13.7595 19.7664 13.9883C19.8534 14.224 19.9188 14.4672 19.9617 14.7148C20.0067 14.9669 20.0289 15.2225 20.0281 15.4785V16.3086C20.0281 16.5723 20.0281 16.832 20.0281 17.0898C20.0288 17.3197 20.0431 17.5492 20.0711 17.7773C20.0991 17.999 20.1402 18.2188 20.1941 18.4356C20.2466 18.643 20.3186 18.8451 20.409 19.0391C20.5036 19.2442 20.6167 19.4403 20.7469 19.625C20.8905 19.8259 21.0555 20.0106 21.239 20.1758C21.4599 20.3777 21.6963 20.5618 21.9461 20.7266C22.0067 20.767 22.0525 20.826 22.0766 20.8948C22.1007 20.9635 22.1018 21.0382 22.0798 21.1076C22.0577 21.1771 22.0137 21.2374 21.9544 21.2797C21.895 21.3219 21.8236 21.3437 21.7508 21.3418H9.63553C9.59125 21.3421 9.54736 21.3336 9.50637 21.3168C9.46539 21.3 9.42812 21.2753 9.39672 21.2441C9.36532 21.2129 9.3404 21.1758 9.3234 21.1349C9.30639 21.094 9.29764 21.0501 9.29764 21.0059C9.29614 20.9448 9.31112 20.8844 9.34103 20.8312C9.37093 20.7779 9.41464 20.7337 9.46756 20.7031C9.71593 20.5389 9.95103 20.3554 10.1707 20.1543C10.3535 19.9888 10.5172 19.8034 10.659 19.6016L10.6726 19.584C10.7955 19.404 10.9039 19.2146 10.9969 19.0176C11.0879 18.8235 11.1611 18.6214 11.2156 18.4141C11.2156 18.4141 11.2156 18.4141 11.2156 18.4023C11.2677 18.1954 11.3062 17.9854 11.3308 17.7734C11.3585 17.5427 11.3722 17.3105 11.3719 17.0781V15.4805C11.3722 15.2238 11.3951 14.9676 11.4402 14.7148C11.4825 14.4665 11.5479 14.2226 11.6355 13.9863C11.7234 13.7554 11.8298 13.532 11.9539 13.3184C12.0766 13.1063 12.217 12.9051 12.3738 12.7168C12.5305 12.5298 12.7023 12.3561 12.8875 12.1973C13.2643 11.8745 13.6937 11.6188 14.157 11.4414C14.3191 11.3804 14.4847 11.3295 14.6531 11.2891C14.7018 11.099 14.8058 10.9277 14.9519 10.7969C15.1686 10.6154 15.4475 10.5257 15.7293 10.5469C16.0086 10.532 16.2832 10.6227 16.4988 10.8008C16.6429 10.9334 16.7465 11.104 16.7976 11.293L16.7898 11.3008ZM16.9695 12.3359C16.7932 12.2665 16.6116 12.211 16.4265 12.1699C16.3557 12.1612 16.2898 12.1289 16.2395 12.0783C16.1892 12.0276 16.1574 11.9615 16.1492 11.8906C16.1447 11.7812 16.1018 11.6768 16.0281 11.5957C15.9387 11.5291 15.8289 11.4959 15.7176 11.502C15.6106 11.4913 15.5035 11.5205 15.4168 11.584C15.3423 11.6652 15.2999 11.7707 15.2976 11.8809C15.2903 11.9492 15.261 12.0134 15.2142 12.0637C15.1674 12.1141 15.1055 12.1479 15.0379 12.1602C14.838 12.1963 14.6419 12.2506 14.4519 12.3223C14.2656 12.393 14.0859 12.4799 13.9148 12.582C13.7443 12.6838 13.5829 12.8001 13.4324 12.9297C13.2827 13.0583 13.1436 13.1987 13.0164 13.3496C12.891 13.5032 12.778 13.6664 12.6785 13.8379C12.579 14.0121 12.4928 14.1936 12.4207 14.3809C12.3487 14.5708 12.2944 14.7669 12.2586 14.9668C12.2228 15.1706 12.2051 15.3771 12.2058 15.584V17.1055C12.2058 17.3535 12.1908 17.6014 12.1609 17.8477C12.1318 18.08 12.0881 18.3103 12.0301 18.5371C12.0301 18.5371 12.0301 18.5469 12.0301 18.5527C11.968 18.7878 11.8843 19.0167 11.7801 19.2363C11.6767 19.4543 11.5565 19.6639 11.4207 19.8633L11.409 19.8828C11.2465 20.11 11.0606 20.3195 10.8543 20.5078H20.5769C20.3693 20.3195 20.1827 20.1093 20.0203 19.8809C19.8753 19.6748 19.7485 19.4565 19.6414 19.2285C19.5347 19.0124 19.4484 18.7868 19.3836 18.5547C19.3257 18.3212 19.282 18.0845 19.2527 17.8457C19.2243 17.6032 19.2093 17.3594 19.2078 17.1152C19.2078 16.875 19.2078 16.627 19.2078 16.3691C19.2078 15.8887 19.2078 15.6289 19.2078 15.5879C19.2085 15.3803 19.1902 15.173 19.1531 14.9688C19.1189 14.7689 19.066 14.5727 18.9949 14.3828C18.925 14.1959 18.84 14.015 18.741 13.8418C18.6428 13.6712 18.5304 13.5092 18.4051 13.3574C18.2797 13.2067 18.1419 13.0669 17.993 12.9395C17.8488 12.8165 17.6954 12.7048 17.534 12.6055L17.5125 12.5918C17.34 12.4911 17.1605 12.403 16.9754 12.3281L16.9695 12.3359ZM3.36405 12.8145C3.31031 12.7259 3.29281 12.62 3.31519 12.5189C3.33757 12.4177 3.3981 12.3291 3.48418 12.2714C3.57026 12.2138 3.67525 12.1916 3.7773 12.2094C3.87935 12.2273 3.97059 12.2838 4.03201 12.3672L4.25076 12.6953L5.1199 11.6387C5.15225 11.5946 5.19324 11.5576 5.24037 11.5299C5.2875 11.5022 5.33978 11.4843 5.39403 11.4775C5.44827 11.4707 5.50334 11.475 5.55587 11.4901C5.6084 11.5053 5.65729 11.531 5.69955 11.5657C5.74181 11.6004 5.77656 11.6433 5.80168 11.6919C5.82679 11.7404 5.84174 11.7936 5.84562 11.8482C5.8495 11.9027 5.84222 11.9574 5.82424 12.0091C5.80625 12.0607 5.77793 12.1081 5.741 12.1484L4.53787 13.6113C4.51133 13.646 4.47894 13.6757 4.44217 13.6992C4.35345 13.7583 4.24498 13.78 4.14036 13.7595C4.03575 13.739 3.94346 13.678 3.88358 13.5899L3.36405 12.8086V12.8145ZM3.36405 8.98633C3.33182 8.94257 3.30879 8.89273 3.29636 8.83982C3.28392 8.78691 3.28233 8.73203 3.29169 8.67849C3.30105 8.62496 3.32115 8.57387 3.3508 8.52831C3.38044 8.48276 3.41901 8.44368 3.46417 8.41344C3.50933 8.3832 3.56015 8.36243 3.61356 8.35237C3.66697 8.34231 3.72187 8.34318 3.77494 8.35492C3.828 8.36666 3.87814 8.38903 3.92233 8.42068C3.96651 8.45233 4.00382 8.4926 4.03201 8.53907L4.25076 8.86524L5.1199 7.81251C5.18943 7.7366 5.28539 7.69022 5.38807 7.68292C5.49074 7.67562 5.59231 7.70794 5.67187 7.77325C5.75143 7.83855 5.80295 7.93186 5.8158 8.03399C5.82866 8.13611 5.80189 8.23928 5.741 8.32227L4.53787 9.78516C4.51127 9.82029 4.47891 9.85067 4.44217 9.87501C4.39832 9.90452 4.34908 9.9251 4.29727 9.93558C4.24545 9.94606 4.19209 9.94622 4.14021 9.93606C4.08834 9.92591 4.03897 9.90563 3.99494 9.87638C3.9509 9.84714 3.91306 9.80951 3.88358 9.76563L3.36405 8.98438V8.98633ZM3.36405 5.15626C3.33182 5.11249 3.30879 5.06265 3.29636 5.00974C3.28392 4.95683 3.28233 4.90195 3.29169 4.84842C3.30105 4.79488 3.32115 4.74379 3.3508 4.69823C3.38044 4.65268 3.41901 4.6136 3.46417 4.58336C3.50933 4.55312 3.56015 4.53235 3.61356 4.52229C3.66697 4.51223 3.72187 4.5131 3.77494 4.52484C3.828 4.53658 3.87814 4.55895 3.92233 4.5906C3.96651 4.62225 4.00382 4.66252 4.03201 4.70899L4.25076 5.03321L5.1199 3.97657C5.18828 3.89421 5.28658 3.84238 5.39316 3.83249C5.49975 3.8226 5.6059 3.85546 5.68826 3.92383C5.77063 3.99221 5.82245 4.0905 5.83234 4.19709C5.84223 4.30368 5.80937 4.40983 5.741 4.49219L4.53787 5.95508C4.51086 5.98984 4.47856 6.02016 4.44217 6.04493C4.35321 6.10383 4.24458 6.12518 4.13994 6.10433C4.03531 6.08348 3.94316 6.02211 3.88358 5.9336L3.36405 5.15235V5.15626ZM8.00272 5.24805C7.93116 5.24805 7.8603 5.23396 7.79418 5.20657C7.72807 5.17919 7.668 5.13905 7.6174 5.08845C7.5668 5.03785 7.52666 4.97778 7.49928 4.91166C7.47189 4.84555 7.4578 4.77469 7.4578 4.70313C7.4578 4.63157 7.47189 4.56071 7.49928 4.4946C7.52666 4.42849 7.5668 4.36841 7.6174 4.31781C7.668 4.26721 7.72807 4.22707 7.79418 4.19969C7.8603 4.1723 7.93116 4.15821 8.00272 4.15821H13.8094C13.8809 4.15821 13.9518 4.1723 14.0179 4.19969C14.084 4.22707 14.1441 4.26721 14.1947 4.31781C14.2453 4.36841 14.2854 4.42849 14.3128 4.4946C14.3402 4.56071 14.3543 4.63157 14.3543 4.70313C14.3543 4.77469 14.3402 4.84555 14.3128 4.91166C14.2854 4.97778 14.2453 5.03785 14.1947 5.08845C14.1441 5.13905 14.084 5.17919 14.0179 5.20657C13.9518 5.23396 13.8809 5.24805 13.8094 5.24805H8.00272ZM1.35623 6.07561e-06H16.8894C17.0554 -0.000508632 17.2198 0.0317611 17.3732 0.094962C17.5266 0.158163 17.666 0.25105 17.7834 0.368288C17.9009 0.485527 17.994 0.624806 18.0574 0.778129C18.1208 0.931452 18.1534 1.0958 18.1531 1.26172V9.20508L18.0613 9.16407C17.8238 9.06918 17.5805 8.98959 17.3328 8.92579C17.2789 8.73497 17.1894 8.55605 17.0691 8.39844V1.26758C17.068 1.22053 17.05 1.17545 17.0183 1.14063C16.9833 1.10781 16.9374 1.08904 16.8894 1.0879H1.35623C1.30892 1.08841 1.26371 1.10757 1.23044 1.14121C1.19716 1.17485 1.1785 1.22026 1.1785 1.26758V16.8809C1.1785 16.9282 1.19716 16.9736 1.23044 17.0072C1.26371 17.0409 1.30892 17.06 1.35623 17.0606H9.18826V17.6113C9.18826 17.791 9.18826 17.9668 9.17264 18.1387H1.36014C1.19398 18.1401 1.02918 18.1086 0.875293 18.0459C0.721406 17.9832 0.581491 17.8906 0.463655 17.7734C0.345051 17.6568 0.251089 17.5175 0.187342 17.3638C0.123596 17.2102 0.0913649 17.0453 0.0925614 16.8789V1.26368C0.0920456 1.09759 0.124379 0.933031 0.187702 0.779482C0.251025 0.625933 0.344087 0.486422 0.461532 0.368977C0.578978 0.251531 0.718489 0.15847 0.872037 0.0951468C1.02559 0.031824 1.19014 -0.000509743 1.35623 6.07561e-06ZM7.99686 9.30079C7.92269 9.30523 7.84839 9.29446 7.77853 9.26914C7.70867 9.24381 7.64473 9.20447 7.59064 9.15352C7.53655 9.10257 7.49344 9.0411 7.46398 8.97289C7.43452 8.90467 7.41933 8.83115 7.41933 8.75684C7.41933 8.68254 7.43452 8.60901 7.46398 8.5408C7.49344 8.47258 7.53655 8.41111 7.59064 8.36016C7.64473 8.30922 7.70867 8.26987 7.77853 8.24455C7.84839 8.21922 7.92269 8.20845 7.99686 8.2129H13.3562C13.4486 8.2125 13.5395 8.23565 13.6203 8.28015C13.7012 8.32466 13.7694 8.38906 13.8185 8.46726C13.8676 8.54546 13.8959 8.63488 13.9008 8.72708C13.9057 8.81927 13.887 8.91119 13.8465 8.99415C13.6902 9.03907 13.5359 9.0918 13.3836 9.14844C13.2605 9.19532 13.1394 9.2461 13.0183 9.30079H7.99686Z" fill="url(#paint0_linear_294_10352)"/>
</g>
<defs>
<linearGradient id="paint0_linear_294_10352" x1="11.094" y1="-4.32001" x2="11.094" y2="27.8401" gradientUnits="userSpaceOnUse">
<stop stop-color="#FACB30"/>
<stop offset="0.302269" stop-color="#FEF9C8"/>
<stop offset="0.640625" stop-color="#C49530"/>
<stop offset="1" stop-color="#FFF8C4"/>
</linearGradient>
<clipPath id="clip0_294_10352">
<rect width="22.0234" height="24" fill="white" transform="translate(0.0926514)"/>
</clipPath>
</defs>
</svg>
