<svg width="8" height="14" viewBox="0 0 8 14" fill="none" xmlns="http://www.w3.org/2000/svg">
<path d="M1.66154 -0.000763059C1.81093 -0.00127103 1.95854 0.0317011 2.09352 0.0957297C2.2285 0.159758 2.34742 0.253217 2.44154 0.369238L7.27154 6.36924C7.41862 6.54817 7.49902 6.77261 7.49902 7.00424C7.49902 7.23586 7.41862 7.4603 7.27154 7.63924L2.27154 13.6392C2.1018 13.8435 1.85789 13.9719 1.59346 13.9963C1.32903 14.0206 1.06575 13.939 0.861536 13.7692C0.657319 13.5995 0.528895 13.3556 0.504516 13.0912C0.480136 12.8267 0.561797 12.5635 0.731536 12.3592L5.20154 6.99924L0.881536 1.63924C0.759253 1.49245 0.681576 1.31371 0.657697 1.12416C0.633817 0.934614 0.664734 0.74219 0.74679 0.569662C0.828846 0.397134 0.958606 0.251723 1.12072 0.150633C1.28283 0.0495425 1.4705 -0.00299486 1.66154 -0.000763059Z" fill="#525253"/>
</svg>
