<svg width="20" height="22" viewBox="0 0 20 22" fill="none" xmlns="http://www.w3.org/2000/svg">
<path d="M10.7485 0.5C11.728 0.5 12.562 1.12625 12.871 2H14.1235C14.8197 2 15.4874 2.27656 15.9797 2.76885C16.472 3.26113 16.7485 3.92881 16.7485 4.625V9.5315C16.2043 9.60858 15.6883 9.82193 15.2485 10.1518V4.625C15.2485 4.32663 15.13 4.04048 14.919 3.8295C14.7081 3.61853 14.4219 3.5 14.1235 3.5H12.871C12.7158 3.93881 12.4283 4.31868 12.0482 4.58732C11.6681 4.85596 11.214 5.00013 10.7485 5H6.24854C5.78307 5.00013 5.32902 4.85596 4.9489 4.58732C4.56878 4.31868 4.28129 3.93881 4.12604 3.5H2.87354C2.57517 3.5 2.28902 3.61853 2.07804 3.8295C1.86706 4.04048 1.74854 4.32663 1.74854 4.625V18.875C1.74854 19.1734 1.86706 19.4595 2.07804 19.6705C2.28902 19.8815 2.57517 20 2.87354 20H7.22653L7.05704 20.6532C6.98428 20.9299 6.97607 21.2196 7.03303 21.5H2.87354C2.17734 21.5 1.50966 21.2234 1.01738 20.7312C0.525097 20.2389 0.248535 19.5712 0.248535 18.875V4.625C0.248535 3.92881 0.525097 3.26113 1.01738 2.76885C1.50966 2.27656 2.17734 2 2.87354 2H4.12604C4.28129 1.56119 4.56878 1.18132 4.9489 0.91268C5.32902 0.644044 5.78307 0.499866 6.24854 0.5H10.7485ZM6.24854 2C6.04962 2 5.85886 2.07902 5.71821 2.21967C5.57755 2.36032 5.49854 2.55109 5.49854 2.75C5.49854 2.94891 5.57755 3.13968 5.71821 3.28033C5.85886 3.42098 6.04962 3.5 6.24854 3.5H10.7485C10.9474 3.5 11.1382 3.42098 11.2789 3.28033C11.4195 3.13968 11.4985 2.94891 11.4985 2.75C11.4985 2.55109 11.4195 2.36032 11.2789 2.21967C11.1382 2.07902 10.9474 2 10.7485 2H6.24854ZM9.89354 15.5L8.45504 16.9505C8.43885 16.9668 8.42284 16.9833 8.40704 17H4.74854C4.54962 17 4.35886 16.921 4.21821 16.7803C4.07755 16.6397 3.99854 16.4489 3.99854 16.25C3.99854 16.0511 4.07755 15.8603 4.21821 15.7197C4.35886 15.579 4.54962 15.5 4.74854 15.5H9.89354ZM3.99854 8.75C3.99854 8.55109 4.07755 8.36032 4.21821 8.21967C4.35886 8.07902 4.54962 8 4.74854 8H12.2485C12.4474 8 12.6382 8.07902 12.7789 8.21967C12.9195 8.36032 12.9985 8.55109 12.9985 8.75C12.9985 8.94891 12.9195 9.13968 12.7789 9.28033C12.6382 9.42098 12.4474 9.5 12.2485 9.5H4.74854C4.54962 9.5 4.35886 9.42098 4.21821 9.28033C4.07755 9.13968 3.99854 8.94891 3.99854 8.75ZM4.74854 11.75C4.54962 11.75 4.35886 11.829 4.21821 11.9697C4.07755 12.1103 3.99854 12.3011 3.99854 12.5C3.99854 12.6989 4.07755 12.8897 4.21821 13.0303C4.35886 13.171 4.54962 13.25 4.74854 13.25H8.49854C8.69745 13.25 8.88821 13.171 9.02887 13.0303C9.16952 12.8897 9.24854 12.6989 9.24854 12.5C9.24854 12.3011 9.16952 12.1103 9.02887 11.9697C8.88821 11.829 8.69745 11.75 8.49854 11.75H4.74854ZM18.7375 14.3187L12.2778 20.726C12.0138 20.9878 11.6853 21.1745 11.3253 21.2668L9.06029 21.8503C8.93381 21.8829 8.801 21.882 8.67499 21.8476C8.54898 21.8132 8.43414 21.7464 8.34185 21.654C8.24956 21.5616 8.18301 21.4466 8.1488 21.3206C8.11459 21.1945 8.11389 21.0617 8.14679 20.9352L8.73928 18.647C8.82778 18.305 9.00554 17.993 9.25453 17.7425L15.682 11.2625C15.8827 11.0619 16.1209 10.9027 16.3831 10.7942C16.6453 10.6856 16.9263 10.6298 17.21 10.6298C17.4938 10.6298 17.7748 10.6858 18.0369 10.7944C18.2991 10.903 18.5373 11.0622 18.7379 11.2629C18.9385 11.4636 19.0977 11.7018 19.2062 11.964C19.3148 12.2261 19.3707 12.5071 19.3706 12.7909C19.3706 13.0747 19.3147 13.3556 19.206 13.6178C19.0974 13.8799 18.9382 14.1181 18.7375 14.3187Z" fill="url(#paint0_linear_1134_6194)"/>
<defs>
<linearGradient id="paint0_linear_1134_6194" x1="9.80954" y1="-3.34734" x2="9.80954" y2="25.294" gradientUnits="userSpaceOnUse">
<stop stop-color="#FACB30"/>
<stop offset="0.302269" stop-color="#FEF9C8"/>
<stop offset="0.640625" stop-color="#C49530"/>
<stop offset="1" stop-color="#FFF8C4"/>
</linearGradient>
</defs>
</svg>