<svg width="25" height="24" viewBox="0 0 25 24" fill="none" xmlns="http://www.w3.org/2000/svg">
<g clip-path="url(#clip0_306_2930)">
<path d="M23.9541 0.545539C24.4541 1.13645 24.5223 1.97736 24.1587 3.06827C23.795 4.15917 23.1814 5.13645 22.3178 6.00008L19.5735 8.7444L22.3007 20.608C22.3575 20.8239 22.2894 21.0114 22.0962 21.1705L19.9144 22.8069C19.8348 22.8751 19.7269 22.9092 19.5905 22.9092C19.545 22.9092 19.5053 22.9035 19.4712 22.8921C19.3007 22.858 19.1814 22.7671 19.1132 22.6194L14.3575 13.9603L9.94278 18.3751L10.8462 21.6819C10.903 21.8751 10.8575 22.0512 10.7098 22.2103L9.07346 23.8467C8.97119 23.9489 8.8405 24.0001 8.68141 24.0001H8.64732C8.47687 23.9774 8.34051 23.9035 8.23823 23.7785L5.01664 19.483L0.721187 16.2614C0.596187 16.1819 0.522324 16.0512 0.499596 15.8694C0.488233 15.7217 0.539369 15.5796 0.653006 15.4433L2.28937 13.7899C2.39164 13.6876 2.52232 13.6364 2.68141 13.6364C2.7496 13.6364 2.79505 13.6421 2.81778 13.6535L6.1246 14.5569L10.5394 10.1421L1.88028 5.38645C1.72119 5.29554 1.6246 5.15918 1.59051 4.97736C1.56778 4.79554 1.61891 4.64213 1.74391 4.51713L3.92573 2.33531C4.08482 2.18758 4.25528 2.14213 4.4371 2.19895L15.7723 4.90918L18.4996 2.1819C19.3632 1.31827 20.3405 0.70463 21.4314 0.340993C22.5223 -0.0226432 23.3632 0.0455386 23.9541 0.545539Z" fill="url(#paint0_linear_306_2930)"/>
</g>
<defs>
<linearGradient id="paint0_linear_306_2930" x1="12.4432" y1="-4.18865" x2="12.4432" y2="27.8223" gradientUnits="userSpaceOnUse">
<stop stop-color="#FACB30"/>
<stop offset="0.302269" stop-color="#FEF9C8"/>
<stop offset="0.640625" stop-color="#C49530"/>
<stop offset="1" stop-color="#FFF8C4"/>
</linearGradient>
<clipPath id="clip0_306_2930">
<rect width="24" height="24" fill="white" transform="translate(0.5)"/>
</clipPath>
</defs>
</svg>
