<svg width="31" height="24" viewBox="0 0 31 24" fill="none" xmlns="http://www.w3.org/2000/svg">
<g clip-path="url(#clip0_294_10411)">
<path fill-rule="evenodd" clip-rule="evenodd" d="M17.2956 20.4625C14.7332 20.4625 16.4193 20.6624 16.7698 17.8778C17.2932 13.7108 21.2528 13.7108 21.8379 17.8778C22.2131 20.5563 23.8202 20.4625 21.3121 20.4625H20.3098C20.3049 21.1463 20.2012 21.3561 20.9072 21.7387C21.2676 21.9338 21.9416 22.0794 22.5143 22.3065C23.3907 21.5585 24.9459 22.0523 25.1064 20.6797C25.1311 20.4699 24.6373 19.8107 24.5262 19.4306C24.2843 19.043 24.1979 18.4332 24.4621 18.0259C24.5657 17.863 24.5238 17.273 24.5238 17.0508C24.5238 14.8315 28.4119 14.829 28.4119 17.0508C28.4119 17.3298 28.3477 17.8482 28.4983 18.0679C28.7525 18.4382 28.6217 19.0924 28.4069 19.433C28.2687 19.8354 27.7453 20.4575 27.7898 20.6822C28.1675 22.6028 30.7842 20.5464 30.7842 24.0025C20.6727 24.0025 10.5612 23.8642 0.449707 23.8642C0.449707 20.3514 3.76507 22.4324 4.01934 20.2822C4.0465 20.0477 3.49353 19.2923 3.36763 18.8653C3.09854 18.4332 2.99733 17.7445 3.29604 17.2878C3.41453 17.1076 3.36516 16.4435 3.36516 16.1917C3.36516 13.7034 7.72228 13.7034 7.72228 16.1917C7.72228 16.5077 7.65069 17.0854 7.82103 17.3322C8.10739 17.7445 7.95927 18.4777 7.71982 18.8628C7.56429 19.3145 6.97923 20.0255 7.02613 20.2798C7.20881 21.2105 9.52685 21.7042 10.3341 22.0448C10.7908 21.8103 11.1561 21.6721 11.1956 21.3487C11.2154 21.1808 10.8204 20.6846 10.7315 20.3785C10.539 20.0699 10.4699 19.5812 10.6797 19.2553C10.7636 19.1245 10.7291 18.6554 10.7291 18.4752C10.7291 16.7052 13.8346 16.7027 13.8346 18.4752C13.8346 18.6999 13.7828 19.1121 13.9037 19.2874C14.1086 19.5836 14.0025 20.1045 13.8297 20.3785C13.721 20.6994 13.3014 21.1685 13.3384 21.3487C13.568 22.5114 14.8221 21.8498 15.417 22.662C15.9774 22.2226 17.0932 22.0992 17.7721 21.6918C18.3942 21.3191 18.288 21.0846 18.2831 20.4649L17.2932 20.3242V20.4625H17.2956ZM23.9412 15.0068H22.2008C21.8848 14.56 21.517 14.2045 21.1171 13.9428C20.5394 13.5626 19.9025 13.375 19.2631 13.3775C18.6188 13.38 17.9819 13.5775 17.4092 13.965C17.0265 14.2242 16.6735 14.5723 16.3699 15.0068H8.89488C8.54434 14.0934 7.78647 13.4836 6.88542 13.1701C6.44847 13.0195 5.99178 12.943 5.54742 12.943C5.10307 12.943 4.64637 13.0195 4.20943 13.1701C4.0465 13.2269 3.88604 13.2936 3.73298 13.3701V12.9998C3.73298 12.7505 3.93788 12.5431 4.18968 12.5431H4.52047V0.664061C4.52047 0.483851 4.59453 0.315984 4.7155 0.195022C4.83399 0.0740588 5.00186 0 5.187 0C12.1436 0 18.325 0 26.0543 0C26.237 0 26.4049 0.0740588 26.5258 0.195022C26.5382 0.207365 26.548 0.219708 26.5579 0.229582C26.6616 0.345608 26.7208 0.498663 26.7208 0.664061V12.5456H27.0516C27.301 12.5456 27.5083 12.7505 27.5083 13.0023V14.1502C27.1652 14.0514 26.8122 14.0045 26.4715 14.0045C26.0593 14.0045 25.6346 14.0761 25.2298 14.2168C24.7385 14.3847 24.2942 14.6488 23.9412 15.0068ZM18.8336 5.31742C18.8336 5.42851 18.7447 5.51738 18.6336 5.51738C18.5225 5.51738 18.4337 5.42851 18.4337 5.31742V4.53487C18.4337 4.22876 18.3547 3.91524 18.2164 3.62888C18.0732 3.33018 17.8708 3.0611 17.6289 2.8562C17.1129 2.41926 16.4365 2.19708 15.7552 2.18967C15.0665 2.18227 14.3752 2.3921 13.8445 2.8167C13.5877 3.0216 13.3532 3.28821 13.1903 3.58938C13.0471 3.85106 12.9607 4.13495 12.9607 4.42131V5.3273L12.9656 5.32483L13.1459 5.54948C13.131 5.18906 13.131 4.80395 13.1459 4.46328C13.1582 4.34725 13.1804 4.23123 13.2125 4.11273C13.5063 3.06357 14.7011 2.45382 15.7404 2.51059C16.5452 2.55503 17.3006 2.8488 17.7795 3.3993C18.446 4.16951 18.2732 5.11993 18.251 6.06048C18.4016 6.10739 18.4978 6.20119 18.5349 6.35425C18.5768 6.52458 18.5299 6.76404 18.3868 7.0899C18.3843 7.09484 18.3818 7.10224 18.3769 7.10718L17.7622 8.11932C17.5252 8.50936 17.2833 8.90187 16.9648 9.20058C16.9426 9.22033 17.3499 9.83008 17.3968 9.8992C18.0708 10.4077 19.7988 10.5238 20.4579 10.8891C20.6727 11.0101 20.8677 11.1631 21.0233 11.368C21.3935 11.8568 21.438 11.9358 21.5713 12.4888H25.9111V0.804773C20.49 0.804773 11.166 0.80971 5.32278 0.80971V12.4962H9.66263C9.79593 11.9408 9.8379 11.8642 10.2107 11.3754C10.3662 11.1681 10.5612 11.015 10.776 10.8965C11.4351 10.5287 13.1631 10.4127 13.8371 9.90413L14.1629 8.95618C13.9704 8.7266 13.8025 8.46739 13.6445 8.21313L13.1162 7.37379C13.0767 7.37132 13.0372 7.36392 12.9977 7.35157C12.5756 7.21827 12.2251 6.27772 12.2917 5.83337C12.3312 5.58157 12.4201 5.4927 12.5633 5.43592C12.5559 5.41617 12.5534 5.39395 12.5534 5.37173V4.42378C12.5534 4.0683 12.6595 3.71775 12.8348 3.3993C13.0249 3.05122 13.2964 2.74018 13.5902 2.50566C14.1926 2.02427 14.9751 1.78482 15.7527 1.79222C16.5254 1.8021 17.2932 2.05143 17.8832 2.55256C18.167 2.79449 18.4065 3.11047 18.5744 3.45855C18.7373 3.79922 18.8311 4.17198 18.8311 4.53734L18.8336 5.31742ZM14.3925 9.19564C14.3036 9.49187 14.1457 10.0152 13.9975 10.2399L14.8541 11.9803L15.3306 10.9731C14.5703 9.78317 16.7723 9.85229 15.9971 10.9731L16.4736 11.9803L17.2734 10.2399C17.071 9.98066 16.9006 9.6869 16.7254 9.40547C16.0292 9.92142 14.9924 9.79798 14.3925 9.19564ZM13.4125 6.26044L13.647 6.90228C13.6717 6.97634 13.6791 7.04053 13.6692 7.0973L13.6717 7.09484C14.037 7.50216 14.4888 7.79593 15.0319 7.96626C15.059 7.90455 15.0985 7.84777 15.1529 7.8058C15.3183 7.67743 15.8046 7.68978 15.9527 7.81321C16.0786 7.91689 16.0811 8.15635 15.9873 8.27978C15.7922 8.53898 14.9875 8.32174 14.7159 8.23287C14.2839 8.09463 13.8914 7.7589 13.5359 7.46019L13.9037 8.04279C14.121 8.38593 14.3456 8.73647 14.6295 8.99568C14.9011 9.24254 15.2294 9.41041 15.6639 9.41288C16.1354 9.41288 16.4785 9.24007 16.7575 8.9784C17.0488 8.70685 17.2783 8.33409 17.503 7.96132L18.1103 6.96153C18.2238 6.70232 18.2658 6.52952 18.2386 6.42831C18.2238 6.36659 18.1572 6.33944 18.0436 6.33203C18.0189 6.33203 17.9942 6.33203 17.9696 6.33203C17.9424 6.33203 17.9128 6.3345 17.8856 6.33697C17.8683 6.33697 17.8535 6.33697 17.8387 6.3345C17.7844 6.33697 17.7276 6.3345 17.6709 6.32462L17.8807 5.40383C16.3353 5.64575 15.1825 4.50031 13.5507 5.17424L13.6692 6.26044C13.6026 6.26291 13.5408 6.26044 13.4841 6.25303C13.4569 6.2555 13.4347 6.25797 13.4125 6.26044Z" fill="url(#paint0_linear_294_10411)"/>
</g>
<defs>
<linearGradient id="paint0_linear_294_10411" x1="15.6169" y1="-4.32045" x2="15.6169" y2="27.8429" gradientUnits="userSpaceOnUse">
<stop stop-color="#FACB30"/>
<stop offset="0.302269" stop-color="#FEF9C8"/>
<stop offset="0.640625" stop-color="#C49530"/>
<stop offset="1" stop-color="#FFF8C4"/>
</linearGradient>
<clipPath id="clip0_294_10411">
<rect width="30.3345" height="24" fill="white" transform="translate(0.452148)"/>
</clipPath>
</defs>
</svg>
