<svg width="14" height="9" viewBox="0 0 14 9" fill="none" xmlns="http://www.w3.org/2000/svg">
<path d="M3.82129 0H9.72686V8.12H3.82129V0Z" fill="white"/>
<path fill-rule="evenodd" clip-rule="evenodd" d="M8.96236 3.96291C8.88752 3.92884 8.87496 3.9051 8.89737 3.82263C8.9525 3.61602 9.00985 3.41076 9.06587 3.2046C9.07035 3.18757 9.07484 3.17054 9.08111 3.14589C9.01164 3.15978 8.94712 3.17188 8.88213 3.18622C8.75127 3.21401 8.6213 3.24224 8.49089 3.26958C8.40573 3.28751 8.36674 3.26376 8.34254 3.17951C8.31969 3.09973 8.29727 3.01996 8.26097 2.92853C8.25246 2.94242 8.24662 2.95811 8.23586 2.96977C8.08617 3.13873 7.93603 3.30679 7.78545 3.47575C7.73884 3.52684 7.68731 3.54925 7.65056 3.52908C7.59678 3.4986 7.59857 3.44483 7.60753 3.39463C7.64742 3.17548 7.68819 2.9572 7.72942 2.73805C7.759 2.57895 7.78904 2.42075 7.81997 2.25493C7.80428 2.2612 7.79398 2.26389 7.78457 2.26837C7.69987 2.3123 7.61606 2.35711 7.53135 2.39969C7.42738 2.45168 7.37536 2.43465 7.32113 2.33426C7.20595 2.12138 7.09212 1.90803 6.97784 1.69515C6.97156 1.6844 6.96798 1.67409 6.95902 1.66064L6.9402 1.69515C6.82591 1.90803 6.71163 2.12138 6.5969 2.33426C6.54267 2.43465 6.49022 2.45213 6.38625 2.39969C6.30154 2.35711 6.21773 2.3123 6.13303 2.26837C6.12406 2.26389 6.11333 2.2612 6.0981 2.25493C6.12857 2.42075 6.15858 2.57895 6.18861 2.73805C6.2294 2.95631 6.27063 3.17503 6.31006 3.39463C6.31903 3.44528 6.32082 3.49905 6.26704 3.52908C6.23029 3.54925 6.17875 3.52684 6.13259 3.47575C5.98156 3.30679 5.83143 3.13873 5.68174 2.96977C5.67143 2.95811 5.66516 2.94242 5.65709 2.92853C5.62034 3.01996 5.59793 3.09973 5.57552 3.17951C5.55132 3.26376 5.51187 3.28751 5.42671 3.26958C5.29629 3.24224 5.16588 3.21401 5.03546 3.18622C4.97048 3.17188 4.90596 3.15978 4.83649 3.14589C4.84321 3.17054 4.84723 3.18802 4.85216 3.2046C4.90818 3.41076 4.96509 3.61647 5.02067 3.82263C5.04263 3.9051 5.03008 3.92884 4.95523 3.96291C4.88622 3.99428 4.81719 4.02744 4.74414 4.0615C4.75759 4.07316 4.76477 4.08033 4.77284 4.08705C4.94673 4.22823 5.12061 4.36941 5.29495 4.51103C5.46346 4.64772 5.63109 4.78441 5.79961 4.9211C5.85876 4.96861 5.87802 5.02643 5.85382 5.09859C5.83993 5.14116 5.82783 5.18373 5.81528 5.2263C5.79959 5.2765 5.78482 5.32716 5.76779 5.38452C5.93496 5.36077 6.0927 5.33836 6.2518 5.3164C6.43824 5.29085 6.62423 5.26441 6.81111 5.2411C6.8752 5.23259 6.92272 5.28144 6.92048 5.34508C6.90613 5.6821 6.87386 6.0626 6.87162 6.38215H7.04641C7.04417 6.0626 7.01145 5.68255 6.99756 5.34508C6.99442 5.28144 7.0424 5.23259 7.10648 5.2411C7.29337 5.26441 7.4798 5.29085 7.66624 5.3164C7.82489 5.33836 7.98264 5.36077 8.14981 5.38452C8.13322 5.32716 8.11799 5.2765 8.10276 5.2263C8.08976 5.18328 8.07767 5.14116 8.06378 5.09859C8.03957 5.02643 8.05883 4.96861 8.11799 4.9211C8.28695 4.78441 8.45458 4.64772 8.62309 4.51103C8.79698 4.36941 8.97087 4.22823 9.14476 4.08705C9.15283 4.08033 9.16046 4.07316 9.17346 4.0615C9.09996 4.02699 9.03138 3.99428 8.96236 3.96291Z" fill="#EC1C24"/>
<path d="M0.5 0.896346C0.5 0.401115 0.901115 0 1.39635 0H3.82185V8.12H1.39635C0.901115 8.12 0.5 7.71844 0.5 7.22365V0.896346Z" fill="#EC1C24"/>
<path d="M9.72705 0H12.1526C12.6478 0 13.0489 0.401115 13.0489 0.896346V7.22365C13.0489 7.71844 12.6478 8.12 12.1526 8.12H9.72705V0Z" fill="#EC1C24"/>
</svg>